<svg xmlns="http://www.w3.org/2000/svg" xmlns:xlink="http://www.w3.org/1999/xlink" width="64" height="64" viewBox="0 0 64 64" fill="none">
<path    stroke="rgba(255, 255, 255, 1.00)" stroke-width="1.75" stroke-linejoin="round" stroke-linecap="round"  d="M35.4399 15.4399C35.8346 16.8693 35.8986 18.5999 34.8506 19.6506L31.4373 23.0639C31.4161 23.0855 31.3979 23.1094 31.3826 23.1354C31.3673 23.1614 31.3554 23.1888 31.3469 23.2178C31.3382 23.2467 31.3331 23.2762 31.3317 23.3064C31.3301 23.3365 31.3322 23.3664 31.3381 23.396C31.3438 23.4256 31.353 23.4542 31.3658 23.4815C31.3784 23.5089 31.3942 23.5344 31.413 23.558C31.4319 23.5815 31.4533 23.6025 31.4773 23.6209C31.5013 23.6392 31.5271 23.6545 31.5546 23.6666C32.0421 23.8755 32.5186 24.1072 32.9839 24.3615C33.4493 24.6158 33.9018 24.8916 34.341 25.1889C34.7802 25.4863 35.2042 25.8038 35.6133 26.1415C36.0221 26.4792 36.4141 26.8356 36.7893 27.2106C37.1642 27.5857 37.5205 27.9777 37.8583 28.3866C38.1962 28.7957 38.5135 29.2198 38.8109 29.6589C39.1082 30.0982 39.3842 30.5505 39.6383 31.0159C39.8927 31.4814 40.1245 31.9578 40.3333 32.4453C40.3453 32.4733 40.3605 32.4991 40.3789 32.5234C40.3973 32.5477 40.4183 32.5693 40.4421 32.5882C40.4658 32.6071 40.4914 32.6231 40.5189 32.6359C40.5463 32.6487 40.5751 32.6581 40.605 32.6637C40.6349 32.6695 40.665 32.6717 40.6951 32.6701C40.7255 32.6685 40.7551 32.6634 40.7842 32.6546C40.8133 32.6458 40.841 32.6335 40.8671 32.6181C40.8933 32.6023 40.917 32.5839 40.9386 32.5626L44.3519 29.1493C45.3999 28.1013 47.1306 28.1653 48.5599 28.5626C51.2639 29.3093 54.7173 28.2826 56.6986 26.3013C56.8541 26.1457 57.0015 25.9829 57.141 25.8128C57.2805 25.6428 57.4111 25.4663 57.5333 25.2834C57.6554 25.1004 57.7682 24.912 57.8719 24.718C57.9754 24.524 58.0693 24.3254 58.1533 24.1222C58.2375 23.919 58.3114 23.7122 58.3751 23.5017C58.4389 23.2912 58.4922 23.0781 58.5351 22.8624C58.5781 22.6467 58.6101 22.4294 58.6317 22.2106C58.6533 21.9917 58.6639 21.7723 58.6639 21.5524C58.6639 21.3325 58.653 21.1131 58.6314 20.8942C58.6098 20.6754 58.5778 20.4581 58.5349 20.2424C58.4919 20.0267 58.4383 19.8136 58.3746 19.6032C58.3109 19.3927 58.2367 19.1859 58.1525 18.9827C58.0685 18.7795 57.9746 18.581 57.8709 18.387C57.7671 18.1931 57.6543 18.0046 57.5322 17.8218C57.4098 17.6389 57.2791 17.4624 57.1397 17.2924C57.0002 17.1224 56.8525 16.9596 56.697 16.8041C56.5415 16.6486 56.3789 16.501 56.209 16.3615C56.0389 16.2219 55.8623 16.0911 55.6797 15.9688C55.497 15.8466 55.3085 15.7336 55.1146 15.6299C54.9207 15.5262 54.7221 15.4322 54.5189 15.348C54.3157 15.2638 54.109 15.1898 53.8986 15.1258C53.6882 15.0619 53.4751 15.0085 53.2594 14.9655C53.0437 14.9225 52.8266 14.8902 52.6077 14.8686C52.3887 14.8469 52.1693 14.836 51.9493 14.8359C51.7293 14.8358 51.5101 14.8465 51.2911 14.868C51.0722 14.8894 50.8551 14.9215 50.6394 14.9643C50.4237 15.0071 50.2103 15.0604 49.9999 15.1241C49.7895 15.1878 49.5826 15.2617 49.3794 15.3458C49.1762 15.4298 48.9775 15.5236 48.7834 15.6271C48.5895 15.7307 48.401 15.8435 48.2181 15.9656C48.0351 16.0876 47.8586 16.2184 47.6885 16.3577C47.5183 16.4971 47.3554 16.6446 47.1999 16.7999C47.3554 16.6443 47.5026 16.4815 47.6421 16.3114C47.7815 16.1412 47.9122 15.9647 48.0343 15.7818C48.1565 15.5988 48.2693 15.4104 48.3727 15.2163C48.4762 15.0223 48.5701 14.8237 48.6541 14.6205C48.7381 14.4172 48.8119 14.2104 48.8757 13.9999C48.9394 13.7894 48.9927 13.5763 49.0357 13.3606C49.0783 13.1449 49.1103 12.9276 49.1319 12.7087C49.1535 12.4898 49.1642 12.2704 49.1639 12.0505C49.1637 11.8306 49.153 11.6112 49.1314 11.3923C49.1098 11.1735 49.0773 10.9562 49.0343 10.7405C48.9914 10.5248 48.9378 10.3118 48.8741 10.1014C48.8101 9.89092 48.7359 9.68412 48.6519 9.48098C48.5677 9.2778 48.4738 9.07927 48.3701 8.88532C48.2663 8.6914 48.1533 8.50303 48.0311 8.3202C47.9087 8.13735 47.7778 7.96095 47.6383 7.79098C47.4989 7.621 47.3511 7.45828 47.1957 7.30279C47.0402 7.14729 46.8775 6.9998 46.7074 6.86031C46.5375 6.72081 46.361 6.58997 46.1781 6.4678C45.9954 6.34562 45.8069 6.23269 45.613 6.12903C45.4191 6.02537 45.2205 5.93146 45.0173 5.8473C44.8141 5.76314 44.6071 5.68913 44.3967 5.62527C44.1863 5.56143 43.9733 5.50804 43.7575 5.46511C43.5418 5.4222 43.3247 5.38995 43.1058 5.36836C42.8869 5.34678 42.6674 5.33597 42.4474 5.33594C42.2274 5.3359 42.0082 5.34664 41.7893 5.36815C41.5703 5.38966 41.3533 5.42185 41.1375 5.46471C40.9218 5.50756 40.7085 5.56087 40.4981 5.62466C40.2877 5.68844 40.081 5.76238 39.8775 5.84647C39.6743 5.93058 39.4757 6.02444 39.2818 6.12804C39.0879 6.23164 38.8994 6.34449 38.7165 6.4666C38.5335 6.58872 38.357 6.7195 38.1871 6.85895C38.017 6.9984 37.8541 7.14584 37.6986 7.30127M26.3013 56.6986C26.1457 56.8541 25.9829 57.0015 25.8128 57.141C25.6428 57.2805 25.4663 57.4111 25.2834 57.5333C25.1004 57.6554 24.912 57.7682 24.718 57.8719C24.524 57.9754 24.3254 58.0693 24.1222 58.1533C23.919 58.2375 23.7122 58.3114 23.5017 58.3751C23.2912 58.4389 23.0782 58.4922 22.8624 58.5351C22.6467 58.5781 22.4294 58.6101 22.2106 58.6317C21.9917 58.6533 21.7723 58.6639 21.5524 58.6639C21.3325 58.6639 21.1131 58.653 20.8942 58.6314C20.6754 58.6098 20.4581 58.5778 20.2424 58.5349C20.0267 58.4919 19.8136 58.4383 19.6032 58.3746C19.3927 58.3109 19.1859 58.2367 18.9827 58.1525C18.7795 58.0685 18.581 57.9746 18.387 57.8709C18.1931 57.7671 18.0046 57.6543 17.8218 57.5322C17.6389 57.4098 17.4624 57.2791 17.2924 57.1397C17.1224 57.0002 16.9596 56.8525 16.8041 56.697C16.6486 56.5415 16.501 56.3789 16.3615 56.209C16.2219 56.0389 16.0911 55.8623 15.9688 55.6797C15.8466 55.497 15.7336 55.3085 15.6299 55.1146C15.5262 54.9207 15.4322 54.7221 15.348 54.5189C15.2638 54.3157 15.1898 54.109 15.1258 53.8986C15.0619 53.6882 15.0085 53.4751 14.9655 53.2594C14.9225 53.0437 14.8902 52.8266 14.8686 52.6077C14.8469 52.3887 14.836 52.1693 14.8359 51.9493C14.8358 51.7293 14.8465 51.5101 14.868 51.2911C14.8894 51.0722 14.9215 50.8551 14.9643 50.6394C15.0071 50.4237 15.0604 50.2103 15.1241 49.9999C15.1878 49.7895 15.2617 49.5826 15.3458 49.3794C15.4298 49.1762 15.5236 48.9775 15.6271 48.7834C15.7307 48.5895 15.8435 48.401 15.9656 48.2181C16.0876 48.0351 16.2184 47.8586 16.3577 47.6885C16.4971 47.5183 16.6446 47.3554 16.7999 47.1999C16.6443 47.3554 16.4815 47.5026 16.3114 47.6421C16.1412 47.7815 15.9647 47.9122 15.7818 48.0343C15.5988 48.1565 15.4104 48.2693 15.2164 48.3727C15.0223 48.4762 14.8237 48.5701 14.6205 48.6541C14.4172 48.7381 14.2104 48.8119 13.9999 48.8757C13.7894 48.9394 13.5763 48.9927 13.3606 49.0357C13.1449 49.0783 12.9276 49.1103 12.7087 49.1319C12.4898 49.1535 12.2704 49.1642 12.0505 49.1639C11.8306 49.1639 11.6112 49.153 11.3923 49.1314C11.1735 49.1098 10.9562 49.0773 10.7405 49.0343C10.5248 48.9914 10.3118 48.9378 10.1014 48.8741C9.89092 48.8101 9.68412 48.7359 9.48098 48.6519C9.2778 48.5677 9.07927 48.4738 8.88532 48.3701C8.6914 48.2663 8.50303 48.1533 8.3202 48.0311C8.13735 47.9087 7.96095 47.7778 7.79098 47.6383C7.621 47.4989 7.45828 47.3511 7.30279 47.1957C7.14729 47.0402 6.9998 46.8775 6.86031 46.7074C6.72081 46.5375 6.58997 46.361 6.4678 46.1781C6.34562 45.9954 6.23269 45.8069 6.12903 45.613C6.02537 45.4191 5.93146 45.2205 5.8473 45.0173C5.76314 44.8141 5.68913 44.6071 5.62527 44.3967C5.56143 44.1863 5.50804 43.9733 5.46511 43.7575C5.4222 43.5418 5.38995 43.3247 5.36836 43.1058C5.34678 42.8869 5.33597 42.6674 5.33594 42.4474C5.3359 42.2274 5.34664 42.0082 5.36815 41.7893C5.38966 41.5703 5.42185 41.3533 5.46471 41.1375C5.50756 40.9218 5.56087 40.7085 5.62466 40.4981C5.68844 40.2877 5.76238 40.081 5.84647 39.8775C5.93058 39.6743 6.02444 39.4757 6.12804 39.2818C6.23164 39.0879 6.34449 38.8994 6.4666 38.7165C6.58872 38.5335 6.7195 38.357 6.85895 38.1871C6.9984 38.017 7.14584 37.8541 7.30127 37.6986C9.2826 35.7173 12.7359 34.6906 15.4399 35.4373C16.8693 35.8346 18.5999 35.8986 19.6506 34.8506L23.0639 31.4373C23.0855 31.4161 23.1094 31.3979 23.1354 31.3826C23.1614 31.3673 23.1888 31.3554 23.2178 31.3469C23.2467 31.3382 23.2762 31.3331 23.3064 31.3317C23.3365 31.3301 23.3664 31.3322 23.396 31.3381C23.4256 31.3438 23.4542 31.353 23.4815 31.3658C23.5089 31.3784 23.5344 31.3942 23.558 31.413C23.5815 31.4319 23.6025 31.4533 23.6209 31.4773C23.6392 31.5013 23.6545 31.5271 23.6666 31.5546C23.8755 32.0421 24.1072 32.5186 24.3615 32.9839C24.6158 33.4493 24.8916 33.9018 25.1889 34.341C25.4863 34.7802 25.8038 35.2042 26.1415 35.6133C26.4792 36.0221 26.8356 36.4141 27.2106 36.7893C27.5857 37.1642 27.9777 37.5205 28.3866 37.8583C28.7957 38.1962 29.2198 38.5135 29.6589 38.8109C30.0982 39.1082 30.5505 39.3842 31.0159 39.6383C31.4814 39.8927 31.9578 40.1245 32.4453 40.3333C32.4733 40.3453 32.4991 40.3605 32.5234 40.3789C32.5477 40.3973 32.5693 40.4183 32.5882 40.4421C32.6071 40.4658 32.6231 40.4914 32.6359 40.5189C32.6487 40.5463 32.6581 40.5751 32.6637 40.605C32.6695 40.6349 32.6717 40.665 32.6701 40.6951C32.6685 40.7255 32.6634 40.7551 32.6546 40.7842C32.6458 40.8133 32.6335 40.841 32.6181 40.8671C32.6023 40.8933 32.5839 40.917 32.5626 40.9386L29.1493 44.3519C28.1013 45.3999 28.1653 47.1306 28.5626 48.5599">
</path>
<path    stroke="rgba(255, 255, 255, 1.00)" stroke-width="1.75"  stroke-linecap="round"  d="M47.0853 47.0852L50.856 50.8558M16.9146 16.9145L13.1466 13.1465M40 50.6665L40 53.3332M13.3333 23.9998L10.6666 23.9998M50.6666 39.9998L53.3333 39.9998M24 13.3332L24 10.6665">
</path>
</svg>
