<svg xmlns="http://www.w3.org/2000/svg" xmlns:xlink="http://www.w3.org/1999/xlink" width="28" height="28" viewBox="1 1 33 33" fill="none">
<path d="M12 5.25C12 5.1763 12.0036 5.10279 12.0108 5.02946C12.0181 4.95612 12.0289 4.88333 12.0432 4.81104C12.0576 4.73877 12.0755 4.66737 12.0969 4.59686C12.1183 4.52634 12.1431 4.45705 12.1713 4.38897C12.1995 4.32088 12.2309 4.25434 12.2657 4.18936C12.3004 4.12437 12.3383 4.06125 12.3792 3.99997C12.4201 3.9387 12.464 3.87957 12.5107 3.82261C12.5575 3.76566 12.6069 3.71112 12.659 3.65901C12.7111 3.6069 12.7657 3.55747 12.8226 3.51072C12.8796 3.46398 12.9387 3.42014 13 3.3792C13.0612 3.33826 13.1244 3.30042 13.1894 3.26568C13.2543 3.23094 13.3209 3.19947 13.389 3.17127C13.457 3.14307 13.5263 3.11827 13.5969 3.09688C13.6674 3.07549 13.7388 3.05761 13.811 3.04323C13.8833 3.02886 13.9561 3.01806 14.0295 3.01083C14.1028 3.00361 14.1763 3 14.25 3L21.75 3C21.8237 3 21.8972 3.00361 21.9705 3.01083C22.0439 3.01806 22.1167 3.02886 22.1889 3.04323C22.2612 3.05761 22.3326 3.07549 22.4031 3.09688C22.4736 3.11827 22.5429 3.14307 22.611 3.17127C22.6791 3.19947 22.7457 3.23094 22.8106 3.26568C22.8756 3.30042 22.9388 3.33826 23.0001 3.3792C23.0613 3.42014 23.1204 3.46398 23.1774 3.51072C23.2344 3.55747 23.289 3.6069 23.341 3.65901C23.3931 3.71112 23.4426 3.76566 23.4893 3.82261C23.536 3.87957 23.5799 3.93869 23.6208 3.99996C23.6617 4.06124 23.6996 4.12437 23.7344 4.18935C23.769 4.25434 23.8005 4.32087 23.8287 4.38896C23.8569 4.45704 23.8817 4.52634 23.9031 4.59686C23.9245 4.66737 23.9424 4.73877 23.9568 4.81104C23.9712 4.88333 23.982 4.95612 23.9892 5.02946C23.9964 5.10279 24 5.1763 24 5.25L24 6.75C24 6.8237 23.9964 6.89721 23.9892 6.97054C23.982 7.04388 23.9712 7.11667 23.9568 7.18894C23.9424 7.26123 23.9245 7.33263 23.9031 7.40314C23.8817 7.47366 23.8569 7.54294 23.8287 7.61103C23.8005 7.67911 23.769 7.74565 23.7344 7.81063C23.6996 7.87563 23.6617 7.93875 23.6208 8.00002C23.5799 8.0613 23.536 8.12043 23.4893 8.17739C23.4426 8.23434 23.3931 8.28888 23.341 8.34099C23.289 8.3931 23.2344 8.44252 23.1774 8.48928C23.1204 8.53602 23.0613 8.57986 23.0001 8.6208C22.9388 8.66173 22.8756 8.69958 22.8106 8.73432C22.7457 8.76906 22.6791 8.80053 22.611 8.82873C22.5429 8.85693 22.4736 8.88173 22.4031 8.90311C22.3326 8.92451 22.2612 8.94238 22.1889 8.95677C22.1167 8.97114 22.0439 8.98194 21.9705 8.98917C21.8972 8.99638 21.8237 9 21.75 9L14.25 9C14.1763 9 14.1028 8.99638 14.0295 8.98917C13.9561 8.98194 13.8833 8.97114 13.811 8.95677C13.7388 8.94238 13.6674 8.92451 13.5969 8.90311C13.5263 8.88173 13.457 8.85693 13.389 8.82873C13.3209 8.80053 13.2543 8.76906 13.1894 8.73432C13.1244 8.69958 13.0612 8.66173 13 8.6208C12.9387 8.57986 12.8796 8.53602 12.8226 8.48928C12.7657 8.44252 12.7111 8.3931 12.659 8.34099C12.6069 8.28888 12.5575 8.23434 12.5107 8.17739C12.464 8.12043 12.4201 8.0613 12.3792 8.00002C12.3382 7.93875 12.3004 7.87563 12.2657 7.81063C12.2309 7.74565 12.1995 7.67911 12.1713 7.61103C12.1431 7.54294 12.1183 7.47366 12.0969 7.40314C12.0755 7.33263 12.0576 7.26123 12.0432 7.18894C12.0289 7.11667 12.0181 7.04388 12.0108 6.97054C12.0036 6.89721 12 6.8237 12 6.75L12 5.25Z" stroke="currentColor" stroke-width="1.75"   >
</path>
<path    stroke="currentColor" stroke-width="1.75"  stroke-linecap="round"  d="M22.5 19.4999L18 19.4999M18 19.4999L13.5 19.4999M18 19.4999L18 14.9999M18 19.4999L18 23.9999M31.5 23.9999C31.5 28.2434 31.5 30.3644 30.1815 31.6829C28.8645 32.9999 26.742 32.9999 22.5 32.9999L13.5 32.9999C9.258 32.9999 7.1355 32.9999 5.8185 31.6829C4.5 30.3629 4.5 28.2434 4.5 23.9999L4.5 19.4999M24 6.00293C27.2625 6.02093 29.0295 6.16643 30.1815 7.31843C31.5 8.63693 31.5 10.7579 31.5 14.9999L31.5 17.9999M12 6.00293C8.7375 6.02093 6.9705 6.16643 5.8185 7.31843C4.665 8.47043 4.521 10.2374 4.503 13.4999">
</path>
</svg>
