<svg xmlns="http://www.w3.org/2000/svg" xmlns:xlink="http://www.w3.org/1999/xlink" width="24" height="24" viewBox="0 0 64 64" fill="none">
<path d="M34.8987 57.0347L36.6187 58.0533L34.8987 57.0347ZM36.344 54.592L34.6213 53.5733L36.344 54.592ZM27.656 54.592L25.936 55.6107L27.656 54.592ZM29.1013 57.0347L30.824 56.016L29.1013 57.0347ZM3.33333 28C3.33333 28.1314 3.34614 28.2614 3.37176 28.3901C3.39738 28.519 3.43532 28.6441 3.48557 28.7653C3.53583 28.8867 3.59744 29.0021 3.6704 29.1112C3.74336 29.2203 3.82627 29.3213 3.91912 29.4141C4.01197 29.5071 4.113 29.5901 4.22219 29.6629C4.33138 29.7358 4.44664 29.7974 4.56797 29.8477C4.68929 29.8981 4.81435 29.936 4.94315 29.9616C5.07195 29.9872 5.20201 30 5.33333 30C5.46466 30 5.59472 29.9872 5.72352 29.9616C5.85232 29.936 5.97738 29.8981 6.09869 29.8477C6.22003 29.7974 6.33528 29.7358 6.44448 29.6629C6.55368 29.5901 6.65469 29.5071 6.74755 29.4141C6.8404 29.3213 6.92331 29.2203 6.99627 29.1112C7.06923 29.0021 7.13083 28.8867 7.18109 28.7653C7.23136 28.6441 7.26928 28.519 7.29491 28.3901C7.32053 28.2614 7.33333 28.1314 7.33333 28L3.33333 28ZM8.19733 41.6693C8.14707 41.548 8.08547 41.4325 8.01251 41.3235C7.93955 41.2144 7.85664 41.1133 7.76379 41.0203C7.67091 40.9275 7.56989 40.8445 7.46069 40.7717C7.35149 40.6987 7.23624 40.6371 7.11488 40.5867C6.99355 40.5365 6.86848 40.4987 6.73968 40.4728C6.61085 40.4472 6.4808 40.4344 6.34947 40.4344C6.21813 40.4344 6.08805 40.4472 5.95923 40.4728C5.83041 40.4984 5.70533 40.5363 5.584 40.5867C5.46267 40.6371 5.3474 40.6987 5.23819 40.7715C5.12898 40.8443 5.02794 40.9272 4.93507 41.0203C4.8422 41.1131 4.75927 41.2141 4.68629 41.3232C4.61332 41.4325 4.5517 41.5477 4.50144 41.6691C4.45117 41.7904 4.41321 41.9155 4.38757 42.0443C4.36196 42.1731 4.34914 42.3032 4.34912 42.4347C4.34912 42.5659 4.36192 42.696 4.38752 42.8248C4.41314 42.9536 4.45108 43.0787 4.50133 43.2L8.19733 41.6693ZM20.7733 50.6427L20.7387 52.6427L20.7733 50.6427ZM13.5653 49.6507L12.8 51.4987L13.5653 49.6507ZM57.6507 42.4347L59.4987 43.2L57.6507 42.4347ZM43.2267 50.6427L43.1947 48.6427L43.2267 50.6427ZM50.4347 49.6507L51.2 51.4987L50.4347 49.6507ZM52.3013 7.29867L51.256 9.00533L52.3013 7.29867ZM56.7013 11.6987L58.408 10.656L56.7013 11.6987ZM11.7013 7.30133L10.656 5.59467L11.7013 7.30133ZM7.29867 11.7013L5.592 10.6587L7.29867 11.7013ZM25.0747 51.2267L26.08 49.496L25.0747 51.2267ZM36.6213 58.0533L38.064 55.6107L34.624 53.5733L33.176 56.016L36.6213 58.0533ZM25.936 55.6107L27.3813 58.0533L30.8213 56.016L29.3787 53.5733L25.936 55.6107ZM33.176 56.016C33.1448 56.0656 33.1109 56.1131 33.0739 56.1587C33.0368 56.204 32.9971 56.2467 32.9547 56.2869C32.9123 56.3272 32.8672 56.3648 32.82 56.3995C32.7728 56.4341 32.7235 56.4656 32.6723 56.4941C32.6211 56.5224 32.5683 56.5475 32.5139 56.5691C32.4595 56.5909 32.404 56.6091 32.3472 56.6237C32.2904 56.6384 32.2331 56.6493 32.1749 56.6568C32.1168 56.6643 32.0584 56.668 32 56.668C31.9416 56.668 31.8832 56.6643 31.8251 56.6568C31.7669 56.6493 31.7096 56.6384 31.6528 56.6237C31.596 56.6091 31.5405 56.5909 31.4861 56.5691C31.4317 56.5475 31.3789 56.5224 31.3277 56.4941C31.2765 56.4656 31.2272 56.4341 31.18 56.3995C31.1328 56.3648 31.0877 56.3272 31.0453 56.2869C31.0029 56.2467 30.9632 56.204 30.9261 56.1587C30.8891 56.1131 30.8552 56.0656 30.824 56.016L27.3813 58.0533C29.4427 61.5387 34.5547 61.5387 36.6187 58.0533L33.176 56.016ZM28 7.33333L36 7.33333L36 3.33333L28 3.33333L28 7.33333ZM56.6667 28L56.6667 30.6667L60.6667 30.6667L60.6667 28L56.6667 28ZM20.808 48.6453C17.4587 48.5867 15.704 48.3733 14.328 47.8027L12.8 51.5013C14.9467 52.392 17.3893 52.5893 20.7387 52.648L20.808 48.6453ZM4.50133 43.2C4.69351 43.664 4.90797 44.1173 5.14469 44.5603C5.38144 45.0032 5.63932 45.4336 5.91832 45.8509C6.19733 46.2685 6.49613 46.6715 6.81472 47.0597C7.13331 47.448 7.47016 47.8197 7.82528 48.1747C8.1804 48.5299 8.55205 48.8667 8.94027 49.1853C9.32848 49.504 9.73136 49.8027 10.1489 50.0816C10.5665 50.3608 10.9967 50.6187 11.4397 50.8552C11.8826 51.092 12.336 51.3064 12.8 51.4987L14.3307 47.8027C13.6432 47.5179 12.9901 47.1688 12.3714 46.7555C11.7526 46.3419 11.1802 45.872 10.654 45.3459C10.1278 44.8197 9.65805 44.2475 9.24464 43.6285C8.83123 43.0099 8.48211 42.3568 8.19733 41.6693L4.50133 43.2ZM56.6667 30.6667C56.6667 33.8 56.6667 36.0507 56.544 37.8267C56.424 39.584 56.1947 40.7307 55.8053 41.6693L59.4987 43.2C60.1253 41.6907 60.4 40.0587 60.536 38.0987C60.6693 36.1547 60.6667 33.7467 60.6667 30.6667L56.6667 30.6667ZM43.2613 52.6427C46.6107 52.5867 49.0533 52.3893 51.2 51.4987L49.6693 47.8027C48.296 48.3733 46.5413 48.5867 43.1947 48.6453L43.2613 52.6427ZM55.8053 41.6693C55.5205 42.3568 55.1715 43.0099 54.7581 43.6285C54.3445 44.2475 53.8747 44.8197 53.3485 45.3459C52.8224 45.872 52.2501 46.3419 51.6312 46.7555C51.0125 47.1688 50.3595 47.5179 49.672 47.8027L51.2 51.4987C51.664 51.3064 52.1173 51.092 52.5603 50.8552C53.0032 50.6187 53.4336 50.3608 53.8509 50.0816C54.2685 49.8027 54.6715 49.504 55.0597 49.1853C55.448 48.8667 55.8197 48.5299 56.1747 48.1747C56.5299 47.8197 56.8667 47.448 57.1853 47.0597C57.504 46.6715 57.8027 46.2685 58.0816 45.8509C58.3608 45.4336 58.6187 45.0032 58.8552 44.5603C59.092 44.1173 59.3064 43.664 59.4987 43.2L55.8053 41.6693ZM36 7.33333C40.4027 7.33333 43.5653 7.33333 46.032 7.57067C48.4693 7.80267 50.0187 8.24533 51.256 9.00267L53.344 5.592C51.3733 4.38667 49.1387 3.848 46.4107 3.58667C43.712 3.33067 40.3253 3.33333 36 3.33333L36 7.33333ZM60.6667 28C60.6667 23.6747 60.6667 20.2907 60.4107 17.5893C60.152 14.8613 59.6133 12.624 58.408 10.656L54.9947 12.744C55.7547 13.9813 56.1973 15.5307 56.4293 17.9707C56.664 20.4347 56.6667 23.5973 56.6667 28L60.6667 28ZM51.2533 9.00267C52.0163 9.46973 52.7141 10.0194 53.3469 10.6517C53.9797 11.284 54.5299 11.9814 54.9973 12.744L58.408 10.656C57.7757 9.62397 57.0315 8.68003 56.1757 7.82421C55.32 6.96837 54.376 6.22429 53.344 5.592L51.2533 9.00267ZM28 3.33333C23.6747 3.33333 20.2907 3.33333 17.5893 3.58667C14.8613 3.848 12.624 4.38667 10.656 5.592L12.744 9.00533C13.9813 8.24533 15.5307 7.80267 17.9707 7.57067C20.4347 7.336 23.5973 7.33333 28 7.33333L28 3.33333ZM7.33333 28C7.33333 23.5973 7.33333 20.4347 7.57067 17.968C7.80267 15.5307 8.24533 13.9813 9.00267 12.744L5.592 10.656C4.38667 12.624 3.848 14.8613 3.58667 17.5893C3.33333 20.2933 3.33333 23.6747 3.33333 28L7.33333 28ZM10.656 5.592C9.62397 6.22429 8.68003 6.96837 7.82421 7.82421C6.96837 8.68003 6.22429 9.62397 5.592 10.656L9.00533 12.744C9.47219 11.9817 10.0215 11.2845 10.6534 10.6522C11.2852 10.0199 11.9821 9.47005 12.744 9.00267L10.656 5.592ZM29.376 53.5733C28.8373 52.6587 28.3627 51.8507 27.8987 51.216C27.416 50.512 26.8098 49.9387 26.08 49.496L24.0693 52.9547C24.1947 53.0293 24.368 53.1627 24.6667 53.5733C24.9893 54.016 25.3547 54.6293 25.936 55.6107L29.376 53.5733ZM20.736 52.6427C21.9093 52.664 22.6507 52.68 23.216 52.7413C23.744 52.8 23.9493 52.8853 24.0693 52.9547L26.08 49.496C25.3247 49.0776 24.5167 48.8339 23.656 48.7653C22.8613 48.6773 21.904 48.664 20.8053 48.6453L20.736 52.6427ZM38.064 55.6107C38.6453 54.632 39.0107 54.016 39.3333 53.5733C39.632 53.1627 39.8053 53.0293 39.9307 52.9547L37.92 49.496C37.1467 49.9493 36.5867 50.5493 36.1013 51.216C35.64 51.8507 35.1627 52.656 34.6213 53.5733L38.064 55.6107ZM43.1947 48.6453C42.096 48.664 41.1387 48.6773 40.344 48.7653C39.5147 48.8587 38.7013 49.0427 37.92 49.496L39.9307 52.9547C40.0507 52.8853 40.256 52.8 40.784 52.7413C41.3493 52.68 42.0907 52.6613 43.264 52.6427L43.1947 48.6453Z"   fill="currentColor" >
</path>
<path    stroke="currentColor" stroke-width="6" stroke-linejoin="round" stroke-linecap="round"  d="M21.3333 29.3333L21.3573 29.3333M31.976 29.3333L32 29.3333M42.6427 29.3333L42.6667 29.3333">
</path>
</svg>
