<svg xmlns="http://www.w3.org/2000/svg" xmlns:xlink="http://www.w3.org/1999/xlink" width="64" height="64" viewBox="0 0 64 64" fill="none">
<path    stroke="currentColor" stroke-width="1.75"  stroke-linecap="round"  d="M42.6667 58.6668L42.6667 40.0002M8 58.6668L8 48.0002M8 37.3335L8 21.3335C8 13.7922 8 10.0188 10.344 7.6775C12.6853 5.3335 16.4587 5.3335 24 5.3335L26.6667 5.3335C34.208 5.3335 37.9813 5.3335 40.3227 7.6775C42.6667 10.0188 42.6667 13.7922 42.6667 21.3335L42.6667 29.3335">
</path>
<path    stroke="currentColor" stroke-width="1.75" stroke-linejoin="round" stroke-linecap="round"  d="M25.3334 26.6665L21.3334 33.3332L29.3334 33.3332L25.3334 39.9998">
</path>
<path    stroke="currentColor" stroke-width="1.75"  stroke-linecap="round"  d="M45.3334 58.6665L5.33337 58.6665M52 10.6665L55.288 13.2958C55.656 13.5892 55.84 13.7385 56.008 13.8878C56.3982 14.2379 56.7507 14.6226 57.0654 15.042C57.3798 15.4614 57.6507 15.9074 57.8776 16.3799C58.1046 16.8525 58.2832 17.3427 58.4136 17.8504C58.5443 18.3582 58.6243 18.8737 58.6534 19.3972C58.6667 19.6212 58.6667 19.8558 58.6667 20.3252L58.6667 49.3332C58.6667 49.4641 58.6603 49.5948 58.6475 49.7252C58.6347 49.8556 58.6155 49.9852 58.5899 50.1134C58.5643 50.242 58.5326 50.3689 58.4944 50.4942C58.4563 50.6196 58.4123 50.7428 58.3622 50.8638C58.312 50.9849 58.256 51.1033 58.1944 51.2188C58.1326 51.3342 58.0654 51.4465 57.9926 51.5556C57.9198 51.6644 57.8419 51.7694 57.7587 51.8708C57.6758 51.9721 57.5878 52.0692 57.4952 52.1617C57.4027 52.2542 57.3056 52.3422 57.2043 52.4252C57.103 52.5084 56.9979 52.5862 56.8891 52.659C56.78 52.7318 56.6678 52.799 56.5523 52.8609C56.4368 52.9225 56.3184 52.9785 56.1974 53.0286C56.0763 53.0788 55.9531 53.1228 55.8278 53.1609C55.7024 53.199 55.5755 53.2308 55.447 53.2564C55.3187 53.282 55.1891 53.3012 55.0587 53.314C54.9283 53.3268 54.7976 53.3332 54.6667 53.3332C54.5358 53.3332 54.4051 53.3268 54.2747 53.314C54.1443 53.3012 54.0147 53.282 53.8864 53.2564C53.7579 53.2308 53.631 53.199 53.5056 53.1609C53.3803 53.1228 53.2571 53.0788 53.136 53.0286C53.015 52.9785 52.8966 52.9225 52.7811 52.8609C52.6656 52.799 52.5534 52.7318 52.4443 52.659C52.3355 52.5862 52.2304 52.5084 52.1291 52.4252C52.0278 52.3422 51.9307 52.2542 51.8382 52.1617C51.7456 52.0692 51.6576 51.9721 51.5747 51.8708C51.4915 51.7694 51.4136 51.6644 51.3408 51.5556C51.268 51.4465 51.2008 51.3342 51.139 51.2188C51.0774 51.1033 51.0214 50.9849 50.9712 50.8638C50.9211 50.7428 50.8771 50.6196 50.839 50.4942C50.8008 50.3689 50.7691 50.242 50.7435 50.1134C50.7179 49.9852 50.6987 49.8556 50.6859 49.7252C50.6731 49.5948 50.6667 49.4641 50.6667 49.3332L50.6667 49.1438C50.6667 47.0372 48.96 45.3332 46.856 45.3332L42.6667 45.3332">
</path>
<path    stroke="currentColor" stroke-width="1.75"  stroke-linecap="round"  d="M58.6666 21.3335L54.6666 21.3335C54.5356 21.3335 54.4049 21.3399 54.2746 21.3528C54.1441 21.3656 54.0147 21.3848 53.8864 21.4103C53.7578 21.4359 53.6309 21.4677 53.5056 21.5057C53.3802 21.5438 53.257 21.5878 53.136 21.638C53.0149 21.6881 52.8966 21.7441 52.781 21.8058C52.6655 21.8676 52.5532 21.9348 52.4442 22.0076C52.3354 22.0804 52.2304 22.1583 52.129 22.2414C52.0277 22.3246 51.9307 22.4124 51.8381 22.5051C51.7455 22.5977 51.6576 22.6947 51.5746 22.7959C51.4914 22.8972 51.4135 23.0023 51.3408 23.1112C51.268 23.2201 51.2008 23.3324 51.1389 23.4479C51.0772 23.5634 51.0213 23.6817 50.9712 23.8027C50.921 23.9238 50.8769 24.047 50.8389 24.1723C50.8008 24.2977 50.769 24.4246 50.7434 24.5531C50.7178 24.6816 50.6986 24.811 50.6858 24.9414C50.673 25.0718 50.6666 25.2025 50.6666 25.3335L50.6666 31.7842C50.6666 31.9929 50.6829 32.2002 50.7154 32.4063C50.7478 32.6124 50.796 32.8146 50.8602 33.0132C50.9244 33.2116 51.0036 33.4039 51.0978 33.59C51.192 33.7762 51.3001 33.9538 51.4221 34.1231C51.544 34.2924 51.6784 34.4511 51.8253 34.5994C51.9721 34.7474 52.1297 34.8833 52.2978 35.0068C52.4658 35.1304 52.6424 35.2402 52.8277 35.3362C53.0131 35.432 53.2048 35.5129 53.4026 35.5788L58.6666 37.3335">
</path>
</svg>
