<?xml version="1.0" standalone="no"?>
<svg viewBox="0 0 64 64" xmlns="http://www.w3.org/2000/svg" width="24" height="24">
<g fill="currentColor">
<path d="M49.3333 8L42.6667 8C42.5792 8 42.4925 8.00854 42.4067 8.02563C42.3208 8.04269 42.2374 8.06798 42.1565 8.10149C42.0756 8.135 41.9988 8.17607 41.9259 8.22469C41.8532 8.27333 41.7858 8.32861 41.7237 8.39053C41.6619 8.45243 41.6067 8.51978 41.5581 8.59256C41.5094 8.66536 41.4684 8.74221 41.4349 8.82309C41.4013 8.90398 41.376 8.98735 41.3589 9.0732C41.3419 9.15907 41.3333 9.24578 41.3333 9.33333L41.3333 9.49067L50.6667 16.9573L50.6667 9.33333C50.6667 9.24578 50.6581 9.15907 50.6411 9.0732C50.624 8.98735 50.5987 8.90398 50.5651 8.82309C50.5317 8.74221 50.4906 8.66536 50.4419 8.59256C50.3933 8.51978 50.3381 8.45243 50.2763 8.39053C50.2142 8.32861 50.1469 8.27333 50.0741 8.22469C50.0013 8.17607 49.9244 8.135 49.8435 8.10149C49.7626 8.06798 49.6792 8.04269 49.5933 8.02563C49.5075 8.00854 49.4208 8 49.3333 8Z" >
</path>
<path d="M28.6667 25.3333C28.6667 25.2242 28.672 25.1153 28.6827 25.0066C28.6933 24.898 28.7093 24.7901 28.7307 24.683C28.752 24.576 28.7785 24.4702 28.8101 24.3657C28.842 24.2612 28.8787 24.1586 28.9203 24.0577C28.9622 23.9569 29.0089 23.8583 29.0603 23.762C29.1116 23.6657 29.1677 23.5722 29.2285 23.4814C29.2892 23.3907 29.354 23.3031 29.4232 23.2187C29.4925 23.1343 29.5658 23.0535 29.6429 22.9763C29.7201 22.8991 29.8009 22.8259 29.8853 22.7566C29.9698 22.6874 30.0573 22.6224 30.148 22.5618C30.2388 22.5011 30.3324 22.4451 30.4288 22.3936C30.525 22.3421 30.6235 22.2955 30.7243 22.2537C30.8252 22.212 30.9279 22.1752 31.0323 22.1435C31.1368 22.1118 31.2426 22.0854 31.3496 22.0641C31.4568 22.0428 31.5647 22.0268 31.6733 22.0161C31.7819 22.0054 31.8909 22 32 22C32.1091 22 32.2181 22.0054 32.3267 22.0161C32.4353 22.0268 32.5432 22.0428 32.6504 22.0641C32.7574 22.0854 32.8632 22.1118 32.9677 22.1435C33.0721 22.1752 33.1747 22.212 33.2757 22.2537C33.3765 22.2955 33.475 22.3421 33.5712 22.3936C33.6675 22.4451 33.7611 22.5011 33.852 22.5618C33.9427 22.6224 34.0302 22.6874 34.1147 22.7566C34.1991 22.8259 34.2799 22.8991 34.3571 22.9763C34.4342 23.0535 34.5075 23.1343 34.5768 23.2187C34.646 23.3031 34.7109 23.3907 34.7715 23.4814C34.8323 23.5722 34.8883 23.6657 34.9397 23.762C34.9911 23.8583 35.0377 23.9569 35.0795 24.0577C35.1213 24.1586 35.1581 24.2612 35.1899 24.3657C35.2215 24.4702 35.248 24.576 35.2693 24.683C35.2907 24.7901 35.3067 24.898 35.3173 25.0066C35.328 25.1153 35.3333 25.2242 35.3333 25.3333C35.3333 25.4425 35.328 25.5514 35.3173 25.6601C35.3067 25.7687 35.2907 25.8766 35.2693 25.9836C35.248 26.0907 35.2215 26.1965 35.1899 26.301C35.1581 26.4054 35.1213 26.5081 35.0795 26.6089C35.0377 26.7098 34.9911 26.8083 34.9397 26.9045C34.8883 27.0009 34.8323 27.0945 34.7715 27.1853C34.7109 27.276 34.646 27.3635 34.5768 27.448C34.5075 27.5325 34.4342 27.6133 34.3571 27.6904C34.2799 27.7675 34.1991 27.8408 34.1147 27.9101C34.0302 27.9793 33.9427 28.0442 33.852 28.1048C33.7611 28.1656 33.6675 28.2217 33.5712 28.2731C33.475 28.3245 33.3765 28.371 33.2757 28.4128C33.1747 28.4547 33.0721 28.4915 32.9677 28.5232C32.8632 28.5549 32.7574 28.5813 32.6504 28.6027C32.5432 28.624 32.4353 28.64 32.3267 28.6507C32.2181 28.6613 32.1091 28.6667 32 28.6667C31.8909 28.6667 31.7819 28.6613 31.6733 28.6507C31.5647 28.64 31.4568 28.624 31.3496 28.6027C31.2426 28.5813 31.1368 28.5549 31.0323 28.5232C30.9279 28.4915 30.8252 28.4547 30.7243 28.4128C30.6235 28.371 30.525 28.3245 30.4288 28.2731C30.3324 28.2217 30.2388 28.1656 30.148 28.1048C30.0573 28.0442 29.9698 27.9793 29.8853 27.9101C29.8009 27.8408 29.7201 27.7675 29.6429 27.6904C29.5658 27.6133 29.4925 27.5325 29.4232 27.448C29.354 27.3635 29.2892 27.276 29.2285 27.1853C29.1677 27.0945 29.1116 27.0009 29.0603 26.9045C29.0089 26.8083 28.9622 26.7098 28.9203 26.6089C28.8787 26.5081 28.842 26.4054 28.8101 26.301C28.7785 26.1965 28.752 26.0907 28.7307 25.9836C28.7093 25.8766 28.6933 25.7687 28.6827 25.6601C28.672 25.5514 28.6667 25.4425 28.6667 25.3333Z" >
</path>
<path d="M55.3333 29.2267L57.4187 30.896C57.5213 30.9762 57.6309 31.0456 57.7475 31.1043C57.8637 31.1629 57.9845 31.2098 58.1101 31.2448C58.2357 31.2798 58.3635 31.3024 58.4933 31.3125C58.6232 31.3227 58.7531 31.3201 58.8824 31.3048C59.0117 31.2895 59.1387 31.2619 59.2627 31.2219C59.3867 31.1817 59.5056 31.13 59.6195 31.0667C59.7333 31.0034 59.8403 30.9297 59.9397 30.8456C60.0392 30.7613 60.1296 30.6684 60.2109 30.5667C60.2923 30.4648 60.3629 30.356 60.4229 30.2403C60.4829 30.1247 60.5315 30.0044 60.568 29.8792C60.6045 29.7541 60.6285 29.6266 60.64 29.4968C60.6517 29.367 60.6507 29.2373 60.6371 29.1077C60.6232 28.9781 60.5971 28.8511 60.5584 28.7267C60.52 28.6022 60.4699 28.4827 60.4077 28.368C60.3459 28.2533 60.2733 28.1458 60.1904 28.0453C60.1075 27.9447 60.0155 27.8532 59.9147 27.7707L38.248 10.4373C38.0283 10.2615 37.8016 10.0953 37.568 9.93865C37.3341 9.78199 37.0944 9.63545 36.8483 9.49904C36.6021 9.36264 36.3507 9.23683 36.0941 9.12163C35.8373 9.00645 35.5763 8.90228 35.3107 8.80912C35.0453 8.71597 34.7763 8.63416 34.5037 8.56371C34.2315 8.49328 33.9565 8.43443 33.6792 8.38718C33.4019 8.33992 33.1229 8.30445 32.8427 8.28075C32.5624 8.25704 32.2813 8.24518 32 8.24518C31.7187 8.24518 31.4376 8.25704 31.1573 8.28075C30.8771 8.30445 30.5981 8.33992 30.3208 8.38718C30.0435 8.43443 29.7686 8.49328 29.4963 8.56371C29.2237 8.63416 28.9547 8.71597 28.6893 8.80912C28.4237 8.90228 28.1626 9.00645 27.9059 9.12163C27.6493 9.23683 27.3979 9.36264 27.1517 9.49904C26.9057 9.63545 26.6658 9.78199 26.4321 9.93865C26.1984 10.0953 25.9717 10.2615 25.752 10.4373L4.08533 27.7707C3.98283 27.8528 3.88931 27.9441 3.80477 28.0445C3.72024 28.145 3.64632 28.2527 3.58301 28.3677C3.51969 28.4828 3.4682 28.6029 3.42853 28.728C3.38887 28.8532 3.36179 28.981 3.34728 29.1115C3.33279 29.2421 3.33117 29.3728 3.3424 29.5035C3.35362 29.6343 3.37749 29.7629 3.41403 29.8891C3.45056 30.0151 3.49903 30.1365 3.55944 30.2531C3.61987 30.3697 3.69109 30.4793 3.77309 30.5819C3.85509 30.6845 3.94629 30.7781 4.04672 30.8627C4.14713 30.9471 4.25484 31.0211 4.36984 31.0845C4.48483 31.148 4.60489 31.1996 4.73003 31.2392C4.85518 31.279 4.98301 31.3062 5.11349 31.3208C5.244 31.3354 5.37467 31.3371 5.50549 31.3259C5.63634 31.3149 5.76484 31.2911 5.89099 31.2547C6.01715 31.2182 6.13853 31.1698 6.25515 31.1093C6.37176 31.0491 6.48139 30.978 6.584 30.896L8.66667 29.2267L8.66667 56.6668L5.33333 56.6668C5.20201 56.6668 5.07195 56.6796 4.94315 56.7052C4.81435 56.7308 4.68929 56.7686 4.56797 56.819C4.44664 56.8692 4.33138 56.9308 4.22219 57.0038C4.113 57.0766 4.01197 57.1596 3.91912 57.2526C3.82627 57.3454 3.74336 57.4462 3.6704 57.5556C3.59744 57.6646 3.53583 57.7798 3.48557 57.9014C3.43532 58.0225 3.39738 58.1476 3.37176 58.2766C3.34614 58.4052 3.33333 58.5353 3.33333 58.6668C3.33333 58.798 3.34614 58.9281 3.37176 59.0569C3.39738 59.1857 3.43532 59.3108 3.48557 59.4321C3.53583 59.5534 3.59744 59.6686 3.6704 59.778C3.74336 59.887 3.82627 59.9881 3.91912 60.0809C4.01197 60.1737 4.113 60.2566 4.22219 60.3297C4.33138 60.4025 4.44664 60.4641 4.56797 60.5145C4.68929 60.5646 4.81435 60.6028 4.94315 60.6284C5.07195 60.654 5.20201 60.6668 5.33333 60.6668L58.6667 60.6668C58.7981 60.6668 58.928 60.654 59.0568 60.6284C59.1856 60.6028 59.3107 60.5646 59.432 60.5145C59.5533 60.4641 59.6688 60.4025 59.7779 60.3297C59.8869 60.2566 59.988 60.1737 60.0808 60.0809C60.1739 59.9881 60.2568 59.887 60.3296 59.778C60.4024 59.6686 60.464 59.5534 60.5144 59.4321C60.5648 59.3108 60.6027 59.1857 60.6283 59.0569C60.6539 58.9281 60.6667 58.798 60.6667 58.6668C60.6667 58.5353 60.6539 58.4052 60.6283 58.2766C60.6027 58.1476 60.5648 58.0225 60.5144 57.9014C60.464 57.7798 60.4024 57.6646 60.3296 57.5556C60.2568 57.4462 60.1739 57.3454 60.0808 57.2526C59.988 57.1596 59.8869 57.0766 59.7779 57.0038C59.6688 56.9308 59.5533 56.8692 59.432 56.819C59.3107 56.7686 59.1856 56.7308 59.0568 56.7052C58.928 56.6796 58.7981 56.6668 58.6667 56.6668L55.3333 56.6668L55.3333 29.2267ZM24.6667 25.3333C24.6667 25.0932 24.6784 24.8536 24.702 24.6145C24.7255 24.3755 24.7607 24.1382 24.8076 23.9027C24.8544 23.6671 24.9127 23.4344 24.9824 23.2046C25.0522 22.9748 25.133 22.7489 25.2249 22.527C25.3168 22.3051 25.4194 22.0882 25.5326 21.8764C25.6458 21.6646 25.7691 21.4589 25.9026 21.2592C26.036 21.0594 26.1789 20.8668 26.3313 20.6811C26.4836 20.4955 26.6448 20.3177 26.8147 20.1479C26.9845 19.9781 27.1621 19.817 27.3477 19.6646C27.5335 19.5122 27.7262 19.3693 27.9259 19.2359C28.1255 19.1025 28.3313 18.9791 28.5432 18.8659C28.7549 18.7527 28.9717 18.6501 29.1936 18.5582C29.4155 18.4663 29.6413 18.3855 29.8712 18.3158C30.1011 18.2461 30.3339 18.1878 30.5693 18.1409C30.8048 18.0941 31.0421 18.0589 31.2813 18.0353C31.5203 18.0118 31.7597 18 32 18C32.2403 18 32.4797 18.0118 32.7187 18.0353C32.9579 18.0589 33.1952 18.0941 33.4307 18.1409C33.6661 18.1878 33.8989 18.2461 34.1288 18.3158C34.3587 18.3855 34.5845 18.4663 34.8064 18.5582C35.0283 18.6501 35.2451 18.7527 35.4568 18.8659C35.6688 18.9791 35.8744 19.1025 36.0741 19.2359C36.2739 19.3693 36.4664 19.5122 36.6523 19.6646C36.8379 19.817 37.0155 19.9781 37.1853 20.1479C37.3552 20.3177 37.5165 20.4955 37.6688 20.6811C37.8211 20.8668 37.964 21.0594 38.0973 21.2592C38.2309 21.4589 38.3541 21.6646 38.4675 21.8764C38.5808 22.0882 38.6832 22.3051 38.7752 22.527C38.8672 22.7489 38.948 22.9748 39.0176 23.2046C39.0872 23.4344 39.1456 23.6671 39.1925 23.9027C39.2392 24.1382 39.2744 24.3755 39.2981 24.6145C39.3216 24.8536 39.3333 25.0932 39.3333 25.3333C39.3333 25.5735 39.3216 25.8131 39.2981 26.0521C39.2744 26.2912 39.2392 26.5285 39.1925 26.764C39.1456 26.9996 39.0872 27.2323 39.0176 27.4621C38.948 27.692 38.8672 27.9179 38.7752 28.1397C38.6832 28.3616 38.5808 28.5784 38.4675 28.7901C38.3541 29.0021 38.2309 29.2078 38.0973 29.4075C37.964 29.6071 37.8211 29.7998 37.6688 29.9856C37.5165 30.1712 37.3552 30.3489 37.1853 30.5187C37.0155 30.6886 36.8379 30.8498 36.6523 31.0021C36.4664 31.1545 36.2739 31.2973 36.0741 31.4307C35.8744 31.5642 35.6688 31.6876 35.4568 31.8008C35.2451 31.9141 35.0283 32.0166 34.8064 32.1085C34.5845 32.2005 34.3587 32.2813 34.1288 32.3509C33.8989 32.4206 33.6661 32.4789 33.4307 32.5259C33.1952 32.5726 32.9579 32.6078 32.7187 32.6315C32.4797 32.6549 32.2403 32.6667 32 32.6667C31.7597 32.6667 31.5203 32.6549 31.2813 32.6315C31.0421 32.6078 30.8048 32.5726 30.5693 32.5259C30.3339 32.4789 30.1011 32.4206 29.8712 32.3509C29.6413 32.2813 29.4155 32.2005 29.1936 32.1085C28.9717 32.0166 28.7549 31.9141 28.5432 31.8008C28.3313 31.6876 28.1255 31.5642 27.9259 31.4307C27.7262 31.2973 27.5335 31.1545 27.3477 31.0021C27.1621 30.8498 26.9845 30.6886 26.8147 30.5187C26.6448 30.3489 26.4836 30.1712 26.3313 29.9856C26.1789 29.7998 26.036 29.6071 25.9026 29.4075C25.7691 29.2078 25.6458 29.0021 25.5326 28.7901C25.4194 28.5784 25.3168 28.3616 25.2249 28.1397C25.133 27.9179 25.0522 27.692 24.9824 27.4621C24.9127 27.2323 24.8544 26.9996 24.8076 26.764C24.7607 26.5285 24.7255 26.2912 24.702 26.0521C24.6784 25.8131 24.6667 25.5735 24.6667 25.3333ZM32.1333 35.3334C33.904 35.3334 35.432 35.3334 36.656 35.4988C37.968 35.6748 39.224 36.0721 40.2427 37.0908C41.2613 38.1094 41.6587 39.3654 41.8347 40.6774C41.9893 41.8241 42 43.2374 42 44.8721L42 56.6668L38 56.6668L38 45.3334C38 43.3921 37.9947 42.1334 37.872 41.2108C37.7547 40.3441 37.568 40.0721 37.4133 39.9201C37.2613 39.7681 36.9893 39.5788 36.1227 39.4614C35.1973 39.3388 33.9413 39.3334 32 39.3334C30.0587 39.3334 28.8 39.3388 27.8773 39.4614C27.0107 39.5788 26.7387 39.7681 26.5867 39.9201C26.4347 40.0721 26.2453 40.3441 26.128 41.2108C26.0053 42.1361 26 43.3921 26 45.3334L26 56.6668L22 56.6668L22 45.2001C22 43.4294 22 41.9014 22.1653 40.6774C22.3413 39.3654 22.7387 38.1094 23.7573 37.0908C24.776 36.0721 26.0347 35.6748 27.344 35.4988C28.568 35.3334 30.096 35.3334 31.8693 35.3334L32.1333 35.3334Z"  >
</path></g>
</svg>
