<svg xmlns="http://www.w3.org/2000/svg" xmlns:xlink="http://www.w3.org/1999/xlink" width="40" height="40" viewBox="0 0 40 40" fill="none">
<path d="M30.8334 5L26.6667 5C26.612 5 26.5579 5.00534 26.5042 5.01602C26.4505 5.02668 26.3984 5.04249 26.3479 5.06343C26.2973 5.08438 26.2493 5.11004 26.2037 5.14043C26.1583 5.17083 26.1161 5.20538 26.0774 5.24408C26.0387 5.28277 26.0042 5.32486 25.9739 5.37035C25.9434 5.41585 25.9178 5.46388 25.8969 5.51443C25.8759 5.56499 25.86 5.61709 25.8494 5.67075C25.8387 5.72442 25.8334 5.77861 25.8334 5.83333L25.8334 5.93167L31.6667 10.5983L31.6667 5.83333C31.6667 5.77861 31.6614 5.72442 31.6507 5.67075C31.64 5.61709 31.6242 5.56499 31.6032 5.51443C31.5823 5.46388 31.5567 5.41585 31.5262 5.37035C31.4959 5.32486 31.4614 5.28277 31.4227 5.24408C31.3839 5.20538 31.3418 5.17083 31.2964 5.14043C31.2508 5.11004 31.2028 5.08438 31.1522 5.06343C31.1017 5.04249 31.0495 5.02668 30.9959 5.01602C30.9422 5.00534 30.888 5 30.8334 5Z"   fill="#FFFFFF" >
</path>
<path d="M17.9166 15.8333C17.9166 15.7651 17.92 15.697 17.9266 15.6291C17.9333 15.5612 17.9433 15.4938 17.9566 15.4269C17.97 15.36 17.9865 15.2939 18.0063 15.2286C18.0262 15.1633 18.0491 15.0991 18.0751 15.0361C18.1013 14.973 18.1305 14.9114 18.1626 14.8512C18.1947 14.7911 18.2298 14.7326 18.2678 14.6759C18.3057 14.6192 18.3462 14.5644 18.3895 14.5117C18.4328 14.4589 18.4786 14.4084 18.5268 14.3602C18.575 14.3119 18.6255 14.2662 18.6783 14.2229C18.7311 14.1796 18.7858 14.139 18.8425 14.1011C18.8992 14.0632 18.9577 14.0282 19.018 13.996C19.0781 13.9638 19.1396 13.9347 19.2026 13.9086C19.2657 13.8825 19.3299 13.8595 19.3951 13.8397C19.4605 13.8199 19.5266 13.8033 19.5935 13.79C19.6605 13.7767 19.7279 13.7667 19.7958 13.76C19.8637 13.7533 19.9317 13.75 20 13.75C20.0682 13.75 20.1362 13.7533 20.2041 13.76C20.272 13.7667 20.3395 13.7767 20.4065 13.79C20.4733 13.8033 20.5395 13.8199 20.6048 13.8397C20.67 13.8595 20.7342 13.8825 20.7973 13.9086C20.8603 13.9347 20.9218 13.9638 20.982 13.996C21.0422 14.0282 21.1007 14.0632 21.1575 14.1011C21.2141 14.139 21.2688 14.1796 21.3216 14.2229C21.3744 14.2662 21.4249 14.3119 21.4731 14.3602C21.5213 14.4084 21.5671 14.4589 21.6105 14.5117C21.6537 14.5644 21.6942 14.6192 21.7321 14.6759C21.7701 14.7326 21.8052 14.7911 21.8373 14.8512C21.8694 14.9114 21.8985 14.973 21.9246 15.0361C21.9507 15.0991 21.9737 15.1633 21.9936 15.2286C22.0134 15.2939 22.03 15.36 22.0433 15.4269C22.0566 15.4938 22.0666 15.5612 22.0733 15.6291C22.08 15.697 22.0833 15.7651 22.0833 15.8333C22.0833 15.9016 22.08 15.9696 22.0733 16.0375C22.0666 16.1054 22.0566 16.1728 22.0433 16.2398C22.03 16.3067 22.0134 16.3728 21.9936 16.4381C21.9737 16.5034 21.9507 16.5676 21.9246 16.6306C21.8985 16.6936 21.8694 16.7552 21.8373 16.8153C21.8052 16.8755 21.7701 16.934 21.7321 16.9908C21.6942 17.0475 21.6537 17.1022 21.6105 17.155C21.5671 17.2078 21.5213 17.2583 21.4731 17.3065C21.4249 17.3547 21.3744 17.4005 21.3216 17.4438C21.2688 17.487 21.2141 17.5276 21.1575 17.5655C21.1007 17.6035 21.0422 17.6385 20.982 17.6707C20.9218 17.7028 20.8603 17.7319 20.7973 17.758C20.7342 17.7842 20.67 17.8072 20.6048 17.827C20.5395 17.8468 20.4733 17.8633 20.4065 17.8767C20.3395 17.89 20.272 17.9 20.2041 17.9067C20.1362 17.9133 20.0682 17.9167 20 17.9167C19.9317 17.9167 19.8637 17.9133 19.7958 17.9067C19.7279 17.9 19.6605 17.89 19.5935 17.8767C19.5266 17.8633 19.4605 17.8468 19.3951 17.827C19.3299 17.8072 19.2657 17.7842 19.2026 17.758C19.1396 17.7319 19.0781 17.7028 19.018 17.6707C18.9577 17.6385 18.8992 17.6035 18.8425 17.5655C18.7858 17.5276 18.7311 17.487 18.6783 17.4438C18.6255 17.4005 18.575 17.3547 18.5268 17.3065C18.4786 17.2583 18.4328 17.2078 18.3895 17.155C18.3462 17.1022 18.3057 17.0475 18.2678 16.9908C18.2298 16.934 18.1947 16.8755 18.1626 16.8153C18.1305 16.7552 18.1013 16.6936 18.0751 16.6306C18.0491 16.5676 18.0262 16.5034 18.0063 16.4381C17.9865 16.3728 17.97 16.3067 17.9566 16.2398C17.9433 16.1728 17.9333 16.1054 17.9266 16.0375C17.92 15.9696 17.9166 15.9016 17.9166 15.8333Z"   fill="#FFFFFF" >
</path>
<path d="M34.5834 18.2668L35.8867 19.3101C35.9509 19.3602 36.0194 19.4036 36.0922 19.4403C36.1649 19.4769 36.2404 19.5062 36.3189 19.5281C36.3974 19.55 36.4772 19.5641 36.5584 19.5704C36.6395 19.5768 36.7207 19.5751 36.8015 19.5656C36.8824 19.556 36.9617 19.5388 37.0392 19.5138C37.1167 19.4886 37.191 19.4563 37.2622 19.4168C37.3334 19.3772 37.4002 19.3311 37.4624 19.2786C37.5245 19.2259 37.581 19.1678 37.6319 19.1043C37.6827 19.0406 37.7269 18.9726 37.7644 18.9003C37.8019 18.828 37.8322 18.7528 37.855 18.6746C37.8779 18.5964 37.8929 18.5167 37.9 18.4356C37.9074 18.3545 37.9067 18.2734 37.8982 18.1924C37.8895 18.1114 37.8732 18.032 37.849 17.9543C37.825 17.8765 37.7937 17.8018 37.7549 17.7301C37.7162 17.6584 37.6709 17.5912 37.619 17.5284C37.5672 17.4655 37.5097 17.4083 37.4467 17.3568L23.905 6.52342C23.7677 6.41354 23.626 6.30965 23.48 6.21174C23.3339 6.11383 23.184 6.02224 23.0302 5.93699C22.8764 5.85173 22.7192 5.7731 22.5589 5.7011C22.3984 5.62912 22.2352 5.56401 22.0692 5.50579C21.9034 5.44757 21.7352 5.39644 21.5649 5.3524C21.3947 5.30838 21.2229 5.2716 21.0495 5.24207C20.8762 5.21254 20.7019 5.19036 20.5267 5.17555C20.3515 5.16073 20.1759 5.15332 20 5.15332C19.8242 5.15332 19.6485 5.16073 19.4734 5.17555C19.2982 5.19036 19.1239 5.21254 18.9505 5.24207C18.7772 5.2716 18.6054 5.30838 18.4352 5.3524C18.2649 5.39644 18.0968 5.44757 17.9309 5.50579C17.7649 5.56401 17.6017 5.62912 17.4412 5.7011C17.2809 5.7731 17.1238 5.85173 16.9699 5.93699C16.8161 6.02224 16.6662 6.11383 16.5201 6.21174C16.374 6.30965 16.2323 6.41354 16.095 6.52342L2.55337 17.3568C2.48931 17.4081 2.43086 17.4651 2.37802 17.5279C2.32519 17.5907 2.27899 17.658 2.23942 17.7299C2.19985 17.8018 2.16766 17.8769 2.14287 17.9551C2.11809 18.0333 2.10116 18.1132 2.09209 18.1948C2.08303 18.2764 2.08202 18.3581 2.08904 18.4398C2.09605 18.5215 2.11097 18.6019 2.13381 18.6808C2.15664 18.7595 2.18694 18.8354 2.22469 18.9083C2.26246 18.9811 2.30697 19.0496 2.35822 19.1138C2.40947 19.1779 2.46647 19.2364 2.52924 19.2893C2.592 19.342 2.65931 19.3883 2.73119 19.4279C2.80306 19.4676 2.8781 19.4998 2.95631 19.5246C3.03453 19.5495 3.11442 19.5665 3.19597 19.5756C3.27754 19.5847 3.35921 19.5858 3.44097 19.5788C3.52275 19.5719 3.60306 19.557 3.68191 19.5343C3.76076 19.5115 3.83662 19.4812 3.90951 19.4434C3.98239 19.4058 4.05091 19.3613 4.11504 19.3101L5.41671 18.2668L5.41671 35.4168L3.33337 35.4168C3.2513 35.4168 3.17001 35.4248 3.08951 35.4408C3.00901 35.4568 2.93085 35.4805 2.85502 35.512C2.77919 35.5433 2.70715 35.5818 2.63891 35.6275C2.57066 35.673 2.50752 35.7248 2.44949 35.783C2.39146 35.841 2.33964 35.904 2.29404 35.9723C2.24844 36.0405 2.20994 36.1125 2.17852 36.1885C2.14711 36.2642 2.1234 36.3423 2.10739 36.423C2.09138 36.5033 2.08337 36.5847 2.08337 36.6668C2.08337 36.7488 2.09138 36.8302 2.10739 36.9107C2.1234 36.9912 2.14711 37.0693 2.17852 37.1452C2.20994 37.221 2.24844 37.293 2.29404 37.3613C2.33964 37.4295 2.39146 37.4927 2.44949 37.5507C2.50752 37.6087 2.57066 37.6605 2.63891 37.7062C2.70715 37.7517 2.77919 37.7902 2.85502 37.8217C2.93085 37.853 3.00901 37.8768 3.08951 37.8928C3.17001 37.9088 3.2513 37.9168 3.33337 37.9168L36.6667 37.9168C36.7489 37.9168 36.83 37.9088 36.9105 37.8928C36.991 37.8768 37.0692 37.853 37.145 37.8217C37.2209 37.7902 37.293 37.7517 37.3612 37.7062C37.4294 37.6605 37.4925 37.6087 37.5505 37.5507C37.6087 37.4927 37.6605 37.4295 37.706 37.3613C37.7515 37.293 37.79 37.221 37.8215 37.1452C37.853 37.0693 37.8767 36.9912 37.8927 36.9107C37.9087 36.8302 37.9167 36.7488 37.9167 36.6668C37.9167 36.5847 37.9087 36.5033 37.8927 36.423C37.8767 36.3423 37.853 36.2642 37.8215 36.1885C37.79 36.1125 37.7515 36.0405 37.706 35.9723C37.6605 35.904 37.6087 35.841 37.5505 35.783C37.4925 35.7248 37.4294 35.673 37.3612 35.6275C37.293 35.5818 37.2209 35.5433 37.145 35.512C37.0692 35.4805 36.991 35.4568 36.9105 35.4408C36.83 35.4248 36.7489 35.4168 36.6667 35.4168L34.5834 35.4168L34.5834 18.2668ZM15.4167 15.8334C15.4167 15.6833 15.4241 15.5336 15.4388 15.3842C15.4535 15.2348 15.4755 15.0865 15.5048 14.9393C15.5341 14.792 15.5705 14.6466 15.6141 14.503C15.6576 14.3593 15.7081 14.2181 15.7656 14.0795C15.823 13.9408 15.8871 13.8052 15.9579 13.6729C16.0287 13.5405 16.1057 13.4119 16.1891 13.2871C16.2725 13.1622 16.3619 13.0418 16.4571 12.9258C16.5523 12.8098 16.653 12.6987 16.7592 12.5925C16.8653 12.4864 16.9764 12.3857 17.0924 12.2905C17.2085 12.1952 17.3289 12.1059 17.4537 12.0225C17.5785 11.9391 17.7071 11.862 17.8395 11.7913C17.9719 11.7205 18.1074 11.6564 18.246 11.599C18.3847 11.5415 18.5259 11.491 18.6695 11.4474C18.8132 11.4039 18.9587 11.3674 19.1059 11.3382C19.253 11.3089 19.4014 11.2869 19.5509 11.2722C19.7002 11.2574 19.8499 11.2501 20 11.2501C20.1502 11.2501 20.2999 11.2574 20.4492 11.2722C20.5987 11.2869 20.747 11.3089 20.8942 11.3382C21.0414 11.3674 21.1869 11.4039 21.3305 11.4474C21.4742 11.491 21.6154 11.5415 21.754 11.599C21.8927 11.6564 22.0282 11.7205 22.1605 11.7913C22.293 11.862 22.4215 11.9391 22.5464 12.0225C22.6712 12.1059 22.7915 12.1952 22.9077 12.2905C23.0237 12.3857 23.1347 12.4864 23.2409 12.5925C23.347 12.6987 23.4479 12.8098 23.543 12.9258C23.6382 13.0418 23.7275 13.1622 23.8109 13.2871C23.8944 13.4119 23.9714 13.5405 24.0422 13.6729C24.113 13.8052 24.177 13.9408 24.2345 14.0795C24.292 14.2181 24.3425 14.3593 24.386 14.503C24.4295 14.6466 24.466 14.792 24.4954 14.9393C24.5245 15.0865 24.5465 15.2348 24.5614 15.3842C24.576 15.5336 24.5834 15.6833 24.5834 15.8334C24.5834 15.9835 24.576 16.1333 24.5614 16.2827C24.5465 16.4321 24.5245 16.5804 24.4954 16.7276C24.466 16.8748 24.4295 17.0203 24.386 17.1639C24.3425 17.3076 24.292 17.4488 24.2345 17.5874C24.177 17.7261 24.113 17.8616 24.0422 17.9939C23.9714 18.1264 23.8944 18.255 23.8109 18.3798C23.7275 18.5045 23.6382 18.625 23.543 18.7411C23.4479 18.8571 23.347 18.9681 23.2409 19.0743C23.1347 19.1805 23.0237 19.2812 22.9077 19.3764C22.7915 19.4716 22.6712 19.5609 22.5464 19.6443C22.4215 19.7277 22.293 19.8048 22.1605 19.8756C22.0282 19.9464 21.8927 20.0105 21.754 20.0679C21.6154 20.1254 21.4742 20.1759 21.3305 20.2194C21.1869 20.263 21.0414 20.2994 20.8942 20.3288C20.747 20.358 20.5987 20.38 20.4492 20.3948C20.2999 20.4094 20.1502 20.4168 20 20.4168C19.8499 20.4168 19.7002 20.4094 19.5509 20.3948C19.4014 20.38 19.253 20.358 19.1059 20.3288C18.9587 20.2994 18.8132 20.263 18.6695 20.2194C18.5259 20.1759 18.3847 20.1254 18.246 20.0679C18.1074 20.0105 17.9719 19.9464 17.8395 19.8756C17.7071 19.8048 17.5785 19.7277 17.4537 19.6443C17.3289 19.5609 17.2085 19.4716 17.0924 19.3764C16.9764 19.2812 16.8653 19.1805 16.7592 19.0743C16.653 18.9681 16.5523 18.8571 16.4571 18.7411C16.3619 18.625 16.2725 18.5045 16.1891 18.3798C16.1057 18.255 16.0287 18.1264 15.9579 17.9939C15.8871 17.8616 15.823 17.7261 15.7656 17.5874C15.7081 17.4488 15.6576 17.3076 15.6141 17.1639C15.5705 17.0203 15.5341 16.8748 15.5048 16.7276C15.4755 16.5804 15.4535 16.4321 15.4388 16.2827C15.4241 16.1333 15.4167 15.9835 15.4167 15.8334ZM20.0834 22.0835C21.19 22.0835 22.145 22.0835 22.91 22.1868C23.73 22.2968 24.515 22.5452 25.1517 23.1818C25.7884 23.8185 26.0367 24.6035 26.1467 25.4235C26.2434 26.1402 26.25 27.0235 26.25 28.0452L26.25 35.4168L23.75 35.4168L23.75 28.3335C23.75 27.1202 23.7467 26.3335 23.67 25.7568C23.5967 25.2152 23.48 25.0452 23.3834 24.9502C23.2884 24.8552 23.1184 24.7368 22.5767 24.6635C21.9984 24.5868 21.2134 24.5835 20 24.5835C18.7867 24.5835 18 24.5868 17.4234 24.6635C16.8817 24.7368 16.7117 24.8552 16.6167 24.9502C16.5217 25.0452 16.4034 25.2152 16.33 25.7568C16.2534 26.3352 16.25 27.1202 16.25 28.3335L16.25 35.4168L13.75 35.4168L13.75 28.2502C13.75 27.1435 13.75 26.1885 13.8534 25.4235C13.9634 24.6035 14.2117 23.8185 14.8484 23.1818C15.485 22.5452 16.2717 22.2968 17.09 22.1868C17.855 22.0835 18.81 22.0835 19.9184 22.0835L20.0834 22.0835Z" fill-rule="evenodd"  fill="#FFFFFF" >
</path>
<path d="M17.9166 15.8333C17.9166 15.7651 17.92 15.697 17.9266 15.6291C17.9333 15.5612 17.9433 15.4938 17.9566 15.4269C17.97 15.36 17.9865 15.2939 18.0063 15.2286C18.0262 15.1633 18.0491 15.0991 18.0751 15.0361C18.1013 14.973 18.1305 14.9114 18.1626 14.8512C18.1947 14.7911 18.2298 14.7326 18.2678 14.6759C18.3057 14.6192 18.3462 14.5644 18.3895 14.5117C18.4328 14.4589 18.4786 14.4084 18.5268 14.3602C18.575 14.3119 18.6255 14.2662 18.6783 14.2229C18.7311 14.1796 18.7858 14.139 18.8425 14.1011C18.8992 14.0632 18.9577 14.0282 19.018 13.996C19.0781 13.9638 19.1396 13.9347 19.2026 13.9086C19.2657 13.8825 19.3299 13.8595 19.3951 13.8397C19.4605 13.8199 19.5266 13.8033 19.5935 13.79C19.6605 13.7767 19.7279 13.7667 19.7958 13.76C19.8637 13.7533 19.9317 13.75 20 13.75C20.0682 13.75 20.1362 13.7533 20.2041 13.76C20.272 13.7667 20.3395 13.7767 20.4065 13.79C20.4733 13.8033 20.5395 13.8199 20.6048 13.8397C20.67 13.8595 20.7342 13.8825 20.7973 13.9086C20.8603 13.9347 20.9218 13.9638 20.982 13.996C21.0422 14.0282 21.1007 14.0632 21.1575 14.1011C21.2141 14.139 21.2688 14.1796 21.3216 14.2229C21.3744 14.2662 21.4249 14.3119 21.4731 14.3602C21.5213 14.4084 21.5671 14.4589 21.6105 14.5117C21.6537 14.5644 21.6942 14.6192 21.7321 14.6759C21.7701 14.7326 21.8052 14.7911 21.8373 14.8512C21.8694 14.9114 21.8985 14.973 21.9246 15.0361C21.9507 15.0991 21.9737 15.1633 21.9936 15.2286C22.0134 15.2939 22.03 15.36 22.0433 15.4269C22.0566 15.4938 22.0666 15.5612 22.0733 15.6291C22.08 15.697 22.0833 15.7651 22.0833 15.8333C22.0833 15.9016 22.08 15.9696 22.0733 16.0375C22.0666 16.1054 22.0566 16.1728 22.0433 16.2398C22.03 16.3067 22.0134 16.3728 21.9936 16.4381C21.9737 16.5034 21.9507 16.5676 21.9246 16.6306C21.8985 16.6936 21.8694 16.7552 21.8373 16.8153C21.8052 16.8755 21.7701 16.934 21.7321 16.9908C21.6942 17.0475 21.6537 17.1022 21.6105 17.155C21.5671 17.2078 21.5213 17.2583 21.4731 17.3065C21.4249 17.3547 21.3744 17.4005 21.3216 17.4438C21.2688 17.487 21.2141 17.5276 21.1575 17.5655C21.1007 17.6035 21.0422 17.6385 20.982 17.6707C20.9218 17.7028 20.8603 17.7319 20.7973 17.758C20.7342 17.7842 20.67 17.8072 20.6048 17.827C20.5395 17.8468 20.4733 17.8633 20.4065 17.8767C20.3395 17.89 20.272 17.9 20.2041 17.9067C20.1362 17.9133 20.0682 17.9167 20 17.9167C19.9317 17.9167 19.8637 17.9133 19.7958 17.9067C19.7279 17.9 19.6605 17.89 19.5935 17.8767C19.5266 17.8633 19.4605 17.8468 19.3951 17.827C19.3299 17.8072 19.2657 17.7842 19.2026 17.758C19.1396 17.7319 19.0781 17.7028 19.018 17.6707C18.9577 17.6385 18.8992 17.6035 18.8425 17.5655C18.7858 17.5276 18.7311 17.487 18.6783 17.4438C18.6255 17.4005 18.575 17.3547 18.5268 17.3065C18.4786 17.2583 18.4328 17.2078 18.3895 17.155C18.3462 17.1022 18.3057 17.0475 18.2678 16.9908C18.2298 16.934 18.1947 16.8755 18.1626 16.8153C18.1305 16.7552 18.1013 16.6936 18.0751 16.6306C18.0491 16.5676 18.0262 16.5034 18.0063 16.4381C17.9865 16.3728 17.97 16.3067 17.9566 16.2398C17.9433 16.1728 17.9333 16.1054 17.9266 16.0375C17.92 15.9696 17.9166 15.9016 17.9166 15.8333Z"   fill="#FFFFFF" >
</path>
</svg>
