<svg xmlns="http://www.w3.org/2000/svg" xmlns:xlink="http://www.w3.org/1999/xlink" width="128" height="128" viewBox="0 0 128 128" fill="none">
<path d="M30.2666 40.496C18.304 44.5866 10.6666 50.7893 10.6666 57.7386C10.6666 70.032 34.544 80 64 80C93.456 80 117.333 70.032 117.333 57.7386C117.333 50.7893 109.696 44.5813 97.7333 40.496C97.072 42.0426 95.968 43.6106 94.1706 44.864C89.968 47.7866 81.6 50.6666 64 50.6666C46.4 50.6666 38.0373 47.7866 33.8293 44.864C33.0402 44.3199 32.3427 43.6764 31.7369 42.9336C31.1311 42.1909 30.641 41.3783 30.2666 40.496Z" fill-rule="evenodd"  fill="url(#linear_fill_5-zG_oL19-Gg9gDStI2S3)" >
</path>
<path d="M37.6267 37.36C37.7409 36.6236 37.8875 35.8938 38.0663 35.1705C38.2453 34.4471 38.4558 33.7331 38.6979 33.0284C38.9401 32.3237 39.2129 31.6311 39.5165 30.9506C39.82 30.2701 40.1531 29.6043 40.5156 28.9533C40.8781 28.3023 41.2687 27.6686 41.6873 27.0522C42.1061 26.4358 42.5512 25.8391 43.0228 25.2622C43.4943 24.6852 43.9904 24.1302 44.5112 23.5973C45.0319 23.0643 45.5752 22.5554 46.141 22.0706C46.7068 21.5857 47.293 21.1268 47.8995 20.6939C48.506 20.261 49.1304 19.8558 49.7728 19.4782C50.4152 19.1007 51.0731 18.7523 51.7463 18.433C52.4196 18.1137 53.1058 17.8248 53.8048 17.5663C54.5035 17.3079 55.2123 17.0808 55.9312 16.8852C56.6502 16.6895 57.3764 16.526 58.1099 16.3947C58.8434 16.2634 59.5814 16.1648 60.3238 16.0989C61.0658 16.033 61.8095 16 62.5547 16L65.4454 16C66.1906 16 66.9343 16.033 67.6763 16.0989C68.4187 16.1648 69.1567 16.2634 69.8902 16.3947C70.6237 16.526 71.3499 16.6895 72.0688 16.8852C72.7878 17.0808 73.4966 17.3079 74.1952 17.5663C74.8943 17.8248 75.5805 18.1137 76.2539 18.433C76.927 18.7523 77.5847 19.1007 78.2272 19.4782C78.8698 19.8558 79.4941 20.261 80.1003 20.6939C80.7069 21.1268 81.2932 21.5857 81.8592 22.0706C82.4251 22.5554 82.968 23.0643 83.4891 23.5973C84.0096 24.1302 84.5056 24.6852 84.9771 25.2622C85.4491 25.8391 85.8939 26.4358 86.3126 27.0522C86.7312 27.6686 87.1222 28.3023 87.4843 28.9533C87.847 29.6043 88.1803 30.2701 88.4838 30.9506C88.7872 31.6311 89.0598 32.3237 89.3019 33.0284C89.5446 33.7331 89.7552 34.4471 89.9339 35.1705C90.1126 35.8938 90.2592 36.6236 90.3734 37.36C90.2011 37.7419 89.943 38.0531 89.6 38.2933C87.392 39.8293 81.0134 42.6667 64 42.6667C46.9867 42.6667 40.608 39.8293 38.4 38.2933C38.0568 38.0531 37.799 37.7419 37.6267 37.36Z"   fill="url(#linear_fill_2KRrpIzCZyG_fJhc27RmU)" >
</path>
<ellipse cx="56" cy="29.5" rx="3" ry="6.5"   fill="#FFFFFF" >
</ellipse>
<ellipse cx="72" cy="29.5" rx="3" ry="6.5"   fill="#FFFFFF" >
</ellipse>
<path d="M69.6244 63.0622L63.5622 73.5622L57.5 63.0622L69.6244 63.0622Z"   fill="#FFFFFF" >
</path>
<path d="M45 57L34.5 63.0622L34.5 50.9378L45 57Z"   fill="#FFFFFF" >
</path>
<path d="M31 83L20.5 89.0622L20.5 76.9378L31 83Z"   fill="#00BAAD" >
</path>
<path d="M108.062 76.5L108.062 88.6244L97.5622 82.5622L108.062 76.5Z"   fill="#D43030" >
</path>
<path d="M94.0622 50.5L94.0622 62.6244L83.5622 56.5622L94.0622 50.5Z"   fill="#FFFFFF" >
</path>
<path d="M69.6244 86.0622L63.5622 96.5622L57.5 86.0622L69.6244 86.0622Z"   fill="#64767A" >
</path>
<defs>
<linearGradient id="linear_fill_5-zG_oL19-Gg9gDStI2S3" x1="10.6666259765625" y1="60.24798583984375" x2="117.333251953125" y2="60.24798583984375" gradientUnits="userSpaceOnUse">
<stop offset="0" stop-color="#00BAAD"  />
<stop offset="1" stop-color="#D43030"  />
</linearGradient>
<linearGradient id="linear_fill_2KRrpIzCZyG_fJhc27RmU" x1="28" y1="66" x2="100" y2="66" gradientUnits="userSpaceOnUse">
<stop offset="0" stop-color="#00BAAD"  />
<stop offset="1" stop-color="#D43030"  />
</linearGradient>
</defs>
</svg>
