<svg xmlns="http://www.w3.org/2000/svg" xmlns:xlink="http://www.w3.org/1999/xlink" width="24" height="24" viewBox="0 0 64 64" fill="none">
<path d="M58.6667 32C58.6667 46.728 46.728 58.6667 32 58.6667C17.272 58.6667 5.33334 46.728 5.33334 32C5.33334 17.272 17.272 5.33334 32 5.33334C46.728 5.33334 58.6667 17.272 58.6667 32ZM38.6667 19.3333C38.9483 19.3331 39.2179 19.3899 39.4757 19.5037C39.7333 19.6174 39.9571 19.7784 40.1467 19.9867L46.8133 27.32C46.9016 27.4173 46.9797 27.5221 47.0477 27.6347C47.1155 27.7472 47.1715 27.8653 47.216 27.9888C47.2605 28.1125 47.2925 28.2393 47.312 28.3691C47.3315 28.499 47.3381 28.6297 47.332 28.7611C47.3259 28.8923 47.3069 29.0216 47.2752 29.1491C47.2435 29.2765 47.1997 29.3997 47.1437 29.5187C47.088 29.6376 47.0211 29.7499 46.9429 29.8555C46.8648 29.9613 46.7773 30.0583 46.68 30.1467C46.5827 30.235 46.4779 30.3132 46.3653 30.3811C46.2528 30.4488 46.1347 30.5049 46.0112 30.5493C45.8875 30.5938 45.7605 30.6258 45.6307 30.6453C45.5008 30.6649 45.3704 30.6716 45.2389 30.6653C45.1077 30.6591 44.9784 30.6402 44.8509 30.6085C44.7235 30.5769 44.6003 30.5331 44.4813 30.4771C44.3624 30.4213 44.2501 30.3543 44.1445 30.2763C44.0387 30.1982 43.9416 30.1106 43.8533 30.0133L40.6667 26.5067L40.6667 42.6667C40.6667 42.7981 40.6539 42.928 40.6283 43.0568C40.6027 43.1856 40.5648 43.3107 40.5144 43.432C40.464 43.5533 40.4024 43.6688 40.3296 43.7779C40.2568 43.8869 40.1739 43.988 40.0808 44.0808C39.988 44.1739 39.8869 44.2568 39.7779 44.3296C39.6688 44.4024 39.5533 44.464 39.432 44.5144C39.3107 44.5648 39.1856 44.6027 39.0568 44.6283C38.928 44.6539 38.7981 44.6667 38.6667 44.6667C38.5352 44.6667 38.4053 44.6539 38.2765 44.6283C38.1477 44.6027 38.0227 44.5648 37.9013 44.5144C37.78 44.464 37.6645 44.4024 37.5555 44.3296C37.4464 44.2568 37.3453 44.1739 37.2525 44.0808C37.1595 43.988 37.0765 43.8869 37.0037 43.7779C36.9309 43.6688 36.8693 43.5533 36.8189 43.432C36.7685 43.3107 36.7307 43.1856 36.7051 43.0568C36.6795 42.928 36.6667 42.7981 36.6667 42.6667L36.6667 26.5067L33.48 30.0133C33.3917 30.1106 33.2947 30.1982 33.1888 30.2763C33.0832 30.3543 32.9709 30.4213 32.852 30.4771C32.7331 30.5331 32.6099 30.5769 32.4824 30.6085C32.3549 30.6402 32.2256 30.6591 32.0944 30.6653C31.963 30.6716 31.8323 30.6649 31.7024 30.6453C31.5726 30.6258 31.4459 30.5938 31.3221 30.5493C31.1986 30.5049 31.0805 30.4488 30.968 30.3811C30.8555 30.3132 30.7506 30.235 30.6533 30.1467C30.5561 30.0583 30.4685 29.9613 30.3904 29.8555C30.3123 29.7499 30.2454 29.6376 30.1896 29.5187C30.1336 29.3997 30.0898 29.2765 30.0581 29.1491C30.0263 29.0216 30.0074 28.8923 30.0013 28.7611C29.9951 28.6297 30.0018 28.499 30.0213 28.3691C30.0409 28.2393 30.0729 28.1125 30.1173 27.9888C30.1618 27.8653 30.2179 27.7472 30.2856 27.6347C30.3535 27.5221 30.4317 27.4173 30.52 27.32L37.1867 19.9867C37.3763 19.7784 37.6 19.6174 37.8576 19.5037C38.1155 19.3899 38.3851 19.3331 38.6667 19.3333ZM25.3333 19.3333C25.4647 19.3333 25.5947 19.3461 25.7235 19.3718C25.8523 19.3974 25.9774 19.4353 26.0987 19.4856C26.22 19.5358 26.3353 19.5974 26.4445 19.6704C26.5537 19.7434 26.6547 19.8263 26.7475 19.9191C26.8405 20.012 26.9234 20.113 26.9963 20.2222C27.0691 20.3314 27.1308 20.4466 27.1811 20.568C27.2314 20.6893 27.2693 20.8144 27.2949 20.9431C27.3205 21.0719 27.3333 21.202 27.3333 21.3333L27.3333 37.4933L30.52 33.9867C30.6085 33.8896 30.7056 33.8021 30.8112 33.7243C30.9168 33.6461 31.0291 33.5792 31.148 33.5235C31.2669 33.4677 31.3901 33.424 31.5176 33.3923C31.6451 33.3605 31.7743 33.3419 31.9053 33.3357C32.0365 33.3296 32.1672 33.3363 32.2971 33.3557C32.4269 33.3752 32.5536 33.4075 32.6771 33.452C32.8005 33.4965 32.9187 33.5525 33.0312 33.6203C33.1437 33.688 33.2485 33.7661 33.3456 33.8544C33.4427 33.9427 33.5301 34.0397 33.6083 34.1456C33.6864 34.2512 33.7533 34.3635 33.8093 34.4821C33.8653 34.6008 33.9091 34.724 33.9408 34.8515C33.9725 34.9789 33.9915 35.1083 33.9976 35.2395C34.0037 35.3707 33.9973 35.5011 33.9779 35.6309C33.9584 35.7608 33.9264 35.8877 33.8821 36.0112C33.8376 36.1347 33.7816 36.2528 33.7139 36.3653C33.6464 36.4779 33.5683 36.5827 33.48 36.68L26.8133 44.0133C26.7197 44.1165 26.6163 44.2088 26.5032 44.2904C26.3902 44.3717 26.27 44.4408 26.1425 44.4971C26.0151 44.5533 25.8832 44.596 25.7469 44.6248C25.6105 44.6536 25.4727 44.668 25.3333 44.668C25.194 44.668 25.0562 44.6536 24.9198 44.6248C24.7835 44.596 24.6516 44.5533 24.5242 44.4971C24.3967 44.4408 24.2765 44.3717 24.1635 44.2904C24.0504 44.2088 23.9471 44.1165 23.8533 44.0133L17.1867 36.68C17.0982 36.5827 17.0201 36.4779 16.9524 36.3653C16.8846 36.2528 16.8285 36.1347 16.784 36.0112C16.7395 35.8875 16.7075 35.7608 16.6879 35.6309C16.6684 35.5011 16.6617 35.3704 16.6679 35.2389C16.6741 35.1077 16.693 34.9784 16.7247 34.8509C16.7564 34.7235 16.8002 34.6003 16.8561 34.4813C16.9121 34.3624 16.9791 34.2501 17.0571 34.1445C17.1352 34.0387 17.2228 33.9416 17.32 33.8533C17.4172 33.7651 17.5221 33.6869 17.6346 33.6189C17.7472 33.5512 17.8653 33.4952 17.9889 33.4507C18.1125 33.4061 18.2393 33.3741 18.3692 33.3547C18.4991 33.3352 18.6297 33.3285 18.761 33.3347C18.8922 33.3408 19.0216 33.3597 19.1491 33.3915C19.2766 33.4232 19.3998 33.4669 19.5187 33.5229C19.6376 33.5787 19.7498 33.6456 19.8555 33.7237C19.9612 33.8019 20.0582 33.8893 20.1467 33.9867L23.3333 37.4933L23.3333 21.3333C23.3333 21.202 23.3461 21.0719 23.3718 20.9431C23.3974 20.8144 23.4353 20.6893 23.4856 20.568C23.5358 20.4466 23.5974 20.3314 23.6704 20.2222C23.7434 20.113 23.8263 20.012 23.9191 19.9191C24.012 19.8263 24.113 19.7434 24.2222 19.6704C24.3314 19.5974 24.4466 19.5358 24.568 19.4856C24.6893 19.4353 24.8144 19.3974 24.9431 19.3718C25.0719 19.3461 25.202 19.3333 25.3333 19.3333Z" fill-rule="evenodd"  fill="#1A1A1A" >
</path>
</svg>
