<svg xmlns="http://www.w3.org/2000/svg" xmlns:xlink="http://www.w3.org/1999/xlink" width="40" height="40" viewBox="0 0 40 40" fill="none">
<path d="M18.0783 36.5568C9.77825 35.6035 3.33325 28.5552 3.33325 20.0002C3.33325 10.7952 10.7949 3.3335 19.9999 3.3335C29.2049 3.3335 36.6666 10.7952 36.6666 20.0002C36.6666 28.5952 31.1949 27.8885 26.5233 27.2835C23.8266 26.9352 21.3983 26.6218 20.4366 28.1468C19.7783 29.1902 20.4899 30.4902 21.3616 31.3618C21.4261 31.4263 21.4874 31.494 21.5454 31.5647C21.6033 31.6352 21.6576 31.7085 21.7084 31.7843C21.7591 31.8603 21.8059 31.9385 21.8491 32.019C21.8921 32.0995 21.9311 32.182 21.9661 32.2665C22.0009 32.3508 22.0318 32.4367 22.0583 32.524C22.0848 32.6115 22.1069 32.7 22.1248 32.7895C22.1426 32.879 22.1559 32.9693 22.1649 33.0602C22.1738 33.151 22.1783 33.2422 22.1783 33.3335C22.1783 33.4248 22.1738 33.516 22.1649 33.6068C22.1559 33.6977 22.1426 33.788 22.1248 33.8775C22.1069 33.967 22.0848 34.0555 22.0583 34.1428C22.0318 34.2303 22.0009 34.3162 21.9661 34.4005C21.9311 34.485 21.8921 34.5675 21.8491 34.648C21.8059 34.7285 21.7591 34.8067 21.7084 34.8827C21.6576 34.9585 21.6033 35.0318 21.5454 35.1023C21.4874 35.173 21.4261 35.2407 21.3616 35.3052C20.4899 36.1768 19.3033 36.6985 18.0783 36.5568ZM18.4749 11.6668C18.4749 11.7487 18.4709 11.8304 18.4629 11.9119C18.4549 11.9934 18.4429 12.0742 18.4269 12.1545C18.4109 12.2349 18.391 12.3142 18.3673 12.3925C18.3435 12.4709 18.3159 12.5479 18.2846 12.6235C18.2533 12.6992 18.2183 12.7731 18.1798 12.8453C18.1411 12.9175 18.099 12.9877 18.0536 13.0557C18.0081 13.1238 17.9594 13.1895 17.9074 13.2528C17.8555 13.3161 17.8006 13.3767 17.7428 13.4346C17.6849 13.4925 17.6243 13.5474 17.5609 13.5994C17.4976 13.6513 17.4319 13.7 17.3639 13.7455C17.2958 13.791 17.2256 13.833 17.1534 13.8716C17.0812 13.9102 17.0073 13.9452 16.9316 13.9765C16.8559 14.0079 16.7789 14.0354 16.7006 14.0592C16.6223 14.0829 16.543 14.1028 16.4627 14.1188C16.3823 14.1348 16.3015 14.1468 16.22 14.1548C16.1385 14.1628 16.0568 14.1668 15.9749 14.1668C15.893 14.1668 15.8114 14.1628 15.7299 14.1548C15.6484 14.1468 15.5675 14.1348 15.4872 14.1188C15.4069 14.1028 15.3276 14.0829 15.2492 14.0592C15.1709 14.0354 15.0939 14.0079 15.0182 13.9765C14.9426 13.9452 14.8686 13.9102 14.7964 13.8716C14.7242 13.833 14.6541 13.791 14.586 13.7455C14.5179 13.7 14.4522 13.6513 14.3889 13.5994C14.3257 13.5474 14.2651 13.4925 14.2072 13.4346C14.1493 13.3767 14.0943 13.3161 14.0424 13.2528C13.9905 13.1895 13.9417 13.1238 13.8963 13.0557C13.8508 12.9877 13.8087 12.9175 13.7701 12.8453C13.7315 12.7731 13.6966 12.6992 13.6652 12.6235C13.6339 12.5479 13.6063 12.4709 13.5826 12.3925C13.5588 12.3142 13.5389 12.2349 13.523 12.1545C13.507 12.0742 13.495 11.9934 13.487 11.9119C13.4789 11.8304 13.4749 11.7487 13.4749 11.6668C13.4749 11.5849 13.4789 11.5033 13.487 11.4218C13.495 11.3403 13.507 11.2594 13.523 11.1791C13.5389 11.0988 13.5588 11.0195 13.5826 10.9411C13.6063 10.8628 13.6339 10.7858 13.6652 10.7101C13.6966 10.6345 13.7315 10.5605 13.7701 10.4883C13.8087 10.4161 13.8508 10.346 13.8963 10.2779C13.9417 10.2098 13.9905 10.1441 14.0424 10.0808C14.0943 10.0176 14.1493 9.95696 14.2072 9.89906C14.2651 9.84116 14.3257 9.78625 14.3889 9.7343C14.4522 9.68236 14.5179 9.63365 14.586 9.58816C14.6541 9.54268 14.7242 9.50063 14.7964 9.46203C14.8686 9.42343 14.9426 9.38846 15.0182 9.35713C15.0939 9.3258 15.1709 9.29825 15.2492 9.27448C15.3276 9.25071 15.4069 9.23085 15.4872 9.21486C15.5675 9.1989 15.6484 9.1869 15.7299 9.17886C15.8114 9.17085 15.893 9.16683 15.9749 9.16683C16.0568 9.16683 16.1385 9.17085 16.22 9.17886C16.3015 9.1869 16.3823 9.1989 16.4627 9.21486C16.543 9.23085 16.6223 9.25071 16.7006 9.27448C16.7789 9.29825 16.8559 9.3258 16.9316 9.35713C17.0073 9.38846 17.0812 9.42343 17.1534 9.46203C17.2256 9.50063 17.2958 9.54268 17.3639 9.58816C17.4319 9.63365 17.4976 9.68236 17.5609 9.7343C17.6243 9.78625 17.6849 9.84116 17.7428 9.89906C17.8006 9.95696 17.8555 10.0176 17.9074 10.0808C17.9594 10.1441 18.0081 10.2098 18.0536 10.2779C18.099 10.346 18.1411 10.4161 18.1798 10.4883C18.2183 10.5605 18.2533 10.6345 18.2846 10.7101C18.3159 10.7858 18.3435 10.8628 18.3673 10.9411C18.391 11.0195 18.4109 11.0988 18.4269 11.1791C18.4429 11.2594 18.4549 11.3403 18.4629 11.4218C18.4709 11.5033 18.4749 11.5849 18.4749 11.6668ZM10.8333 21.6668C10.9151 21.6668 10.9968 21.6628 11.0783 21.6548C11.1598 21.6468 11.2407 21.6348 11.321 21.6188C11.4013 21.6028 11.4806 21.583 11.559 21.5592C11.6373 21.5353 11.7143 21.5078 11.79 21.4765C11.8656 21.4452 11.9395 21.4102 12.0118 21.3717C12.084 21.333 12.1541 21.291 12.2222 21.2455C12.2903 21.2 12.356 21.1513 12.4192 21.0993C12.4825 21.0475 12.5431 20.9925 12.601 20.9347C12.6589 20.8768 12.7138 20.8162 12.7658 20.7528C12.8177 20.6895 12.8664 20.6238 12.9119 20.5558C12.9574 20.4877 12.9995 20.4175 13.0381 20.3453C13.0767 20.2732 13.1116 20.1992 13.143 20.1235C13.1743 20.0478 13.2018 19.9708 13.2256 19.8925C13.2494 19.8142 13.2692 19.7348 13.2852 19.6545C13.3012 19.5743 13.3132 19.4934 13.3212 19.4118C13.3292 19.3304 13.3333 19.2487 13.3333 19.1668C13.3333 19.0849 13.3292 19.0033 13.3212 18.9218C13.3132 18.8403 13.3012 18.7594 13.2852 18.6792C13.2692 18.5988 13.2494 18.5195 13.2256 18.4412C13.2018 18.3628 13.1743 18.2858 13.143 18.2102C13.1116 18.1345 13.0767 18.0605 13.0381 17.9883C12.9995 17.9161 12.9574 17.8459 12.9119 17.7778C12.8664 17.7098 12.8177 17.6442 12.7658 17.5808C12.7138 17.5175 12.6589 17.4569 12.601 17.399C12.5431 17.3411 12.4825 17.2862 12.4192 17.2343C12.356 17.1823 12.2903 17.1336 12.2222 17.0882C12.1541 17.0427 12.084 17.0007 12.0117 16.962C11.9395 16.9234 11.8656 16.8885 11.79 16.8572C11.7143 16.8258 11.6373 16.7983 11.559 16.7745C11.4806 16.7507 11.4013 16.7308 11.321 16.7148C11.2407 16.6988 11.1598 16.6868 11.0783 16.6788C10.9968 16.6708 10.9151 16.6668 10.8333 16.6668C10.7514 16.6668 10.6697 16.6708 10.5882 16.6788C10.5067 16.6868 10.4258 16.6988 10.3455 16.7148C10.2652 16.7308 10.1859 16.7507 10.1075 16.7745C10.0292 16.7983 9.95219 16.8258 9.87654 16.8572C9.80089 16.8885 9.72697 16.9234 9.65475 16.962C9.58255 17.0007 9.5124 17.0427 9.44432 17.0882C9.37624 17.1336 9.31055 17.1823 9.24727 17.2343C9.18399 17.2862 9.12339 17.3411 9.06549 17.399C9.00759 17.4569 8.95267 17.5175 8.90072 17.5808C8.84879 17.6442 8.80007 17.7098 8.75459 17.7778C8.7091 17.8459 8.66705 17.9161 8.62845 17.9883C8.58985 18.0605 8.55489 18.1345 8.52355 18.2102C8.49222 18.2858 8.46467 18.3628 8.4409 18.4412C8.41714 18.5195 8.39727 18.5988 8.38129 18.6792C8.36532 18.7594 8.35332 18.8403 8.34529 18.9218C8.33727 19.0033 8.33325 19.0849 8.33325 19.1668C8.33325 19.2487 8.33727 19.3304 8.34529 19.4118C8.35332 19.4934 8.36532 19.5743 8.38129 19.6545C8.39727 19.7348 8.41714 19.8142 8.4409 19.8925C8.46467 19.9708 8.49222 20.0478 8.52355 20.1235C8.55489 20.1992 8.58985 20.2732 8.62845 20.3453C8.66705 20.4175 8.7091 20.4877 8.75459 20.5558C8.80007 20.6238 8.84879 20.6895 8.90072 20.7528C8.95267 20.8162 9.00759 20.8768 9.06549 20.9347C9.12339 20.9925 9.18399 21.0475 9.24727 21.0993C9.31055 21.1513 9.37624 21.2 9.44432 21.2455C9.5124 21.291 9.58255 21.333 9.65475 21.3717C9.72697 21.4102 9.80089 21.4452 9.87654 21.4765C9.95219 21.5078 10.0292 21.5353 10.1075 21.5592C10.1859 21.583 10.2652 21.6028 10.3455 21.6188C10.4258 21.6348 10.5067 21.6468 10.5882 21.6548C10.6697 21.6628 10.7514 21.6668 10.8333 21.6668ZM29.1666 21.6668C29.2484 21.6668 29.3301 21.6628 29.4116 21.6548C29.4931 21.6468 29.5741 21.6348 29.6543 21.6188C29.7346 21.6028 29.8139 21.583 29.8923 21.5592C29.9706 21.5353 30.0476 21.5078 30.1233 21.4765C30.1989 21.4452 30.2729 21.4102 30.3451 21.3717C30.4173 21.333 30.4874 21.291 30.5556 21.2455C30.6236 21.2 30.6893 21.1513 30.7526 21.0993C30.8159 21.0475 30.8766 20.9925 30.9344 20.9347C30.9923 20.8768 31.0473 20.8162 31.0991 20.7528C31.1511 20.6895 31.1998 20.6238 31.2453 20.5558C31.2908 20.4877 31.3328 20.4175 31.3714 20.3453C31.4099 20.2732 31.4449 20.1992 31.4763 20.1235C31.5076 20.0478 31.5351 19.9708 31.5589 19.8925C31.5828 19.8142 31.6026 19.7348 31.6186 19.6545C31.6346 19.5743 31.6466 19.4934 31.6546 19.4118C31.6626 19.3304 31.6666 19.2487 31.6666 19.1668C31.6666 19.0849 31.6626 19.0033 31.6546 18.9218C31.6466 18.8403 31.6346 18.7594 31.6186 18.6792C31.6026 18.5988 31.5828 18.5195 31.5589 18.4412C31.5351 18.3628 31.5076 18.2858 31.4763 18.2102C31.4449 18.1345 31.4099 18.0605 31.3714 17.9883C31.3328 17.9161 31.2908 17.8459 31.2453 17.7778C31.1998 17.7098 31.1511 17.6442 31.0991 17.5808C31.0473 17.5175 30.9923 17.4569 30.9344 17.399C30.8766 17.3411 30.8159 17.2862 30.7526 17.2343C30.6893 17.1823 30.6236 17.1336 30.5556 17.0882C30.4874 17.0427 30.4173 17.0007 30.3451 16.962C30.2729 16.9234 30.1989 16.8885 30.1233 16.8572C30.0476 16.8258 29.9706 16.7983 29.8923 16.7745C29.8139 16.7507 29.7346 16.7308 29.6543 16.7148C29.5741 16.6988 29.4931 16.6868 29.4116 16.6788C29.3301 16.6708 29.2484 16.6668 29.1666 16.6668C29.0848 16.6668 29.0031 16.6708 28.9216 16.6788C28.8401 16.6868 28.7591 16.6988 28.6789 16.7148C28.5986 16.7308 28.5193 16.7507 28.4409 16.7745C28.3626 16.7983 28.2856 16.8258 28.2099 16.8572C28.1343 16.8885 28.0603 16.9234 27.9881 16.962C27.9159 17.0007 27.8458 17.0427 27.7776 17.0882C27.7096 17.1336 27.6439 17.1823 27.5806 17.2343C27.5173 17.2862 27.4566 17.3411 27.3988 17.399C27.3409 17.4569 27.2859 17.5175 27.2341 17.5808C27.1821 17.6442 27.1334 17.7098 27.0879 17.7778C27.0424 17.8459 27.0004 17.9161 26.9618 17.9883C26.9233 18.0605 26.8883 18.1345 26.8569 18.2102C26.8256 18.2858 26.7981 18.3628 26.7743 18.4412C26.7504 18.5195 26.7306 18.5988 26.7146 18.6792C26.6986 18.7594 26.6866 18.8403 26.6786 18.9218C26.6706 19.0033 26.6666 19.0849 26.6666 19.1668C26.6666 19.2487 26.6706 19.3304 26.6786 19.4118C26.6866 19.4934 26.6986 19.5743 26.7146 19.6545C26.7306 19.7348 26.7504 19.8142 26.7743 19.8925C26.7981 19.9708 26.8256 20.0478 26.8569 20.1235C26.8883 20.1992 26.9233 20.2732 26.9618 20.3453C27.0004 20.4175 27.0424 20.4877 27.0879 20.5558C27.1334 20.6238 27.1821 20.6895 27.2341 20.7528C27.2859 20.8162 27.3409 20.8768 27.3988 20.9347C27.4566 20.9925 27.5173 21.0475 27.5806 21.0993C27.6439 21.1513 27.7096 21.2 27.7776 21.2455C27.8458 21.291 27.9159 21.333 27.9881 21.3717C28.0603 21.4102 28.1343 21.4452 28.2099 21.4765C28.2856 21.5078 28.3626 21.5353 28.4409 21.5592C28.5193 21.583 28.5986 21.6028 28.6789 21.6188C28.7591 21.6348 28.8401 21.6468 28.9216 21.6548C29.0031 21.6628 29.0848 21.6668 29.1666 21.6668ZM24.1666 14.1668C24.2484 14.1668 24.3301 14.1628 24.4116 14.1548C24.4931 14.1468 24.5741 14.1348 24.6543 14.1188C24.7346 14.1028 24.8139 14.0829 24.8923 14.0592C24.9706 14.0354 25.0476 14.0079 25.1233 13.9765C25.1989 13.9452 25.2729 13.9102 25.3451 13.8716C25.4173 13.833 25.4874 13.791 25.5556 13.7455C25.6236 13.7 25.6893 13.6513 25.7526 13.5994C25.8159 13.5474 25.8766 13.4925 25.9344 13.4346C25.9923 13.3767 26.0473 13.3161 26.0991 13.2528C26.1511 13.1895 26.1998 13.1238 26.2453 13.0557C26.2908 12.9877 26.3328 12.9175 26.3714 12.8453C26.4099 12.7731 26.4449 12.6992 26.4763 12.6235C26.5076 12.5479 26.5351 12.4709 26.5589 12.3925C26.5828 12.3142 26.6026 12.2349 26.6186 12.1545C26.6346 12.0742 26.6466 11.9934 26.6546 11.9119C26.6626 11.8304 26.6666 11.7487 26.6666 11.6668C26.6666 11.5849 26.6626 11.5033 26.6546 11.4218C26.6466 11.3403 26.6346 11.2594 26.6186 11.1791C26.6026 11.0988 26.5828 11.0195 26.5589 10.9411C26.5351 10.8628 26.5076 10.7858 26.4763 10.7101C26.4449 10.6345 26.4099 10.5605 26.3714 10.4883C26.3328 10.4161 26.2908 10.346 26.2453 10.2779C26.1998 10.2098 26.1511 10.1441 26.0991 10.0808C26.0473 10.0176 25.9923 9.95696 25.9344 9.89906C25.8766 9.84116 25.8159 9.78625 25.7526 9.7343C25.6893 9.68236 25.6236 9.63365 25.5556 9.58816C25.4874 9.54268 25.4173 9.50063 25.3451 9.46203C25.2729 9.42343 25.1989 9.38846 25.1233 9.35713C25.0476 9.3258 24.9706 9.29825 24.8923 9.27448C24.8139 9.25071 24.7346 9.23085 24.6543 9.21486C24.5741 9.1989 24.4931 9.1869 24.4116 9.17886C24.3301 9.17085 24.2484 9.16683 24.1666 9.16683C24.0848 9.16683 24.0031 9.17085 23.9216 9.17886C23.8401 9.1869 23.7591 9.1989 23.6789 9.21486C23.5986 9.23085 23.5193 9.25071 23.4409 9.27448C23.3626 9.29825 23.2856 9.3258 23.2099 9.35713C23.1343 9.38846 23.0603 9.42343 22.9881 9.46203C22.9159 9.50063 22.8458 9.54268 22.7776 9.58816C22.7096 9.63365 22.6439 9.68236 22.5806 9.7343C22.5173 9.78625 22.4566 9.84116 22.3988 9.89906C22.3409 9.95696 22.2859 10.0176 22.2341 10.0808C22.1821 10.1441 22.1334 10.2098 22.0879 10.2779C22.0424 10.346 22.0004 10.4161 21.9618 10.4883C21.9233 10.5605 21.8883 10.6345 21.8569 10.7101C21.8256 10.7858 21.7981 10.8628 21.7743 10.9411C21.7504 11.0195 21.7306 11.0988 21.7146 11.1791C21.6986 11.2594 21.6866 11.3403 21.6786 11.4218C21.6706 11.5033 21.6666 11.5849 21.6666 11.6668C21.6666 11.7487 21.6706 11.8304 21.6786 11.9119C21.6866 11.9934 21.6986 12.0742 21.7146 12.1546C21.7306 12.2349 21.7504 12.3142 21.7743 12.3925C21.7981 12.4709 21.8256 12.5479 21.8569 12.6235C21.8883 12.6992 21.9233 12.7731 21.9618 12.8453C22.0004 12.9175 22.0424 12.9877 22.0879 13.0557C22.1334 13.1238 22.1821 13.1895 22.2341 13.2528C22.2859 13.3161 22.3409 13.3767 22.3988 13.4346C22.4566 13.4925 22.5173 13.5474 22.5806 13.5994C22.6439 13.6513 22.7096 13.7 22.7776 13.7455C22.8458 13.791 22.9159 13.833 22.9881 13.8716C23.0603 13.9102 23.1343 13.9452 23.2099 13.9765C23.2856 14.0079 23.3626 14.0354 23.4409 14.0592C23.5193 14.0829 23.5986 14.1028 23.6789 14.1188C23.7591 14.1348 23.8401 14.1468 23.9216 14.1548C24.0031 14.1628 24.0848 14.1668 24.1666 14.1668Z" fill-rule="evenodd"  fill="#FFFFFF" >
</path>
</svg>
