<?xml version="1.0" standalone="no"?>
<svg viewBox="0 0 40 40" xmlns="http://www.w3.org/2000/svg" width="24" height="24">
<g fill="currentColor">
<path d="M3.33337 19.9998C3.33337 13.7148 3.33337 10.5715 5.28671 8.61984C7.23837 6.6665 10.3817 6.6665 16.6667 6.6665L19.1667 6.6665C25.4517 6.6665 28.595 6.6665 30.5467 8.61984C32.5 10.5715 32.5 13.7148 32.5 19.9998C32.5 26.2848 32.5 29.4282 30.5467 31.3798C28.595 33.3332 25.4517 33.3332 19.1667 33.3332L16.6667 33.3332C10.3817 33.3332 7.23837 33.3332 5.28671 31.3798C3.33337 29.4282 3.33337 26.2848 3.33337 19.9998ZM19.9667 14.0398C20.0297 14.0924 20.087 14.1506 20.1385 14.2144C20.19 14.2782 20.2349 14.3465 20.273 14.4191C20.3112 14.4918 20.3419 14.5674 20.365 14.6461C20.3882 14.7248 20.4035 14.805 20.411 14.8867C20.4185 14.9684 20.4179 15.0501 20.4092 15.1317C20.4005 15.2132 20.384 15.2932 20.3597 15.3716C20.3352 15.4499 20.3034 15.5251 20.2642 15.5972C20.225 15.6692 20.1792 15.7368 20.1267 15.7998L17.6684 18.7498L20.8334 18.7498C20.9522 18.7498 21.0685 18.7665 21.1825 18.7997C21.2965 18.8329 21.4037 18.8814 21.5039 18.9452C21.604 19.009 21.6934 19.0855 21.7717 19.1747C21.8502 19.2638 21.9145 19.3621 21.9649 19.4697C22.0154 19.5772 22.0497 19.6897 22.0679 19.807C22.0862 19.9243 22.0879 20.0419 22.0727 20.1597C22.0575 20.2775 22.026 20.3908 21.9785 20.4997C21.931 20.6086 21.8694 20.7086 21.7934 20.7998L17.6267 25.7998C17.5735 25.8607 17.5149 25.9158 17.451 25.9653C17.3872 26.0148 17.3191 26.0577 17.2469 26.0938C17.1747 26.13 17.0996 26.159 17.0217 26.1808C16.9439 26.2025 16.8648 26.2165 16.7842 26.2228C16.7036 26.2293 16.6232 26.2278 16.5429 26.2185C16.4626 26.2093 16.3839 26.1925 16.3069 26.168C16.2299 26.1435 16.156 26.1117 16.0851 26.0728C16.0143 26.034 15.9478 25.9888 15.8857 25.937C15.8236 25.8853 15.7671 25.8282 15.7161 25.7653C15.6651 25.7027 15.6206 25.6357 15.5826 25.5643C15.5447 25.493 15.5139 25.4187 15.4903 25.3413C15.4667 25.2642 15.4508 25.1853 15.4425 25.1048C15.4342 25.0245 15.4337 24.944 15.4411 24.8635C15.4484 24.783 15.4634 24.704 15.486 24.6265C15.5087 24.549 15.5385 24.4743 15.5757 24.4025C15.6128 24.3307 15.6565 24.2632 15.7067 24.1998L18.165 21.2498L15 21.2498C14.8813 21.2498 14.7649 21.2332 14.6509 21.2C14.5369 21.1668 14.4297 21.1183 14.3295 21.0545C14.2293 20.9907 14.14 20.9142 14.0616 20.825C13.9832 20.7359 13.9189 20.6376 13.8685 20.53C13.8181 20.4225 13.7838 20.31 13.7655 20.1927C13.7471 20.0753 13.7456 19.9578 13.7608 19.84C13.776 19.7222 13.8073 19.6089 13.8548 19.5C13.9023 19.3911 13.964 19.2911 14.04 19.1998L18.2067 14.1998C18.2593 14.1368 18.3174 14.0795 18.3812 14.028C18.4451 13.9764 18.5134 13.9316 18.586 13.8935C18.6586 13.8554 18.7343 13.8247 18.813 13.8015C18.8917 13.7782 18.9719 13.7629 19.0535 13.7555C19.1353 13.7481 19.217 13.7487 19.2985 13.7573C19.3801 13.766 19.46 13.7825 19.5384 13.8069C19.6167 13.8313 19.6919 13.8631 19.764 13.9023C19.8362 13.9415 19.9037 13.9873 19.9667 14.0398Z" fill-rule="evenodd"  >
</path>
<path d="M35.4166 23.3332C35.4166 23.4153 35.4246 23.4966 35.4406 23.577C35.4566 23.6576 35.4803 23.7357 35.5118 23.8115C35.5432 23.8874 35.5817 23.9595 35.6273 24.0277C35.6728 24.0959 35.7247 24.159 35.7828 24.217C35.8408 24.2751 35.9039 24.327 35.9721 24.3725C36.0403 24.4181 36.1124 24.4566 36.1883 24.488C36.2641 24.5195 36.3422 24.5432 36.4228 24.5592C36.5032 24.5752 36.5845 24.5832 36.6666 24.5832C36.7487 24.5832 36.83 24.5752 36.9105 24.5592C36.991 24.5432 37.0692 24.5195 37.145 24.488C37.2208 24.4566 37.2929 24.4181 37.3611 24.3725C37.4293 24.327 37.4925 24.2751 37.5505 24.217C37.6086 24.159 37.6604 24.0959 37.706 24.0277C37.7515 23.9595 37.79 23.8874 37.8215 23.8115C37.8529 23.7357 37.8766 23.6576 37.8926 23.577C37.9086 23.4966 37.9166 23.4153 37.9166 23.3332L37.9166 16.6665C37.9166 16.5844 37.9086 16.5031 37.8926 16.4226C37.8766 16.3421 37.8529 16.264 37.8215 16.1882C37.79 16.1123 37.7515 16.0403 37.706 15.972C37.6604 15.9038 37.6086 15.8407 37.5505 15.7826C37.4925 15.7246 37.4293 15.6728 37.3611 15.6272C37.2929 15.5816 37.2208 15.5431 37.145 15.5117C37.0692 15.4802 36.991 15.4565 36.9105 15.4405C36.83 15.4245 36.7487 15.4165 36.6666 15.4165C36.5845 15.4165 36.5032 15.4245 36.4228 15.4405C36.3422 15.4565 36.2641 15.4802 36.1883 15.5117C36.1124 15.5431 36.0403 15.5816 35.9721 15.6272C35.9039 15.6728 35.8408 15.7246 35.7828 15.7826C35.7247 15.8407 35.6728 15.9038 35.6273 15.972C35.5817 16.0403 35.5432 16.1123 35.5118 16.1882C35.4803 16.264 35.4566 16.3421 35.4406 16.4226C35.4246 16.5031 35.4166 16.5844 35.4166 16.6665L35.4166 23.3332Z" >
</path></g>
</svg>
