<svg xmlns="http://www.w3.org/2000/svg" xmlns:xlink="http://www.w3.org/1999/xlink" width="45" height="45" viewBox="0 0 45 45" fill="none">
<path d="M17.2967 24.3832L16.0467 24.3832L17.2967 24.3832ZM17.2967 25.9265L16.36 26.7549C16.4158 26.8177 16.4774 26.8745 16.5446 26.925C16.6118 26.9756 16.6835 27.0189 16.7594 27.0549C16.8354 27.091 16.9142 27.1191 16.9959 27.1392C17.0776 27.1593 17.1604 27.1711 17.2444 27.1745C17.3285 27.178 17.412 27.173 17.495 27.1595C17.578 27.1461 17.6589 27.1245 17.7375 27.0947C17.8162 27.0649 17.8911 27.0276 17.9622 26.9827C18.0334 26.9379 18.0993 26.8864 18.16 26.8282L17.2967 25.9265ZM20.865 24.2349C20.9216 24.1774 20.9721 24.1151 21.0165 24.048C21.061 23.9808 21.0987 23.91 21.1294 23.8355C21.1602 23.7611 21.1836 23.6844 21.1995 23.6054C21.2155 23.5264 21.2237 23.4466 21.2243 23.366C21.2248 23.2855 21.2176 23.2056 21.2026 23.1264C21.1877 23.0471 21.1654 22.9701 21.1355 22.8954C21.1057 22.8205 21.069 22.7491 21.0254 22.6814C20.9818 22.6136 20.9321 22.5506 20.8763 22.4925C20.8205 22.4344 20.7597 22.3821 20.6938 22.3357C20.6279 22.2894 20.5582 22.2497 20.4846 22.2169C20.4111 22.184 20.3351 22.1584 20.2566 22.1402C20.1781 22.122 20.0986 22.1115 20.018 22.1087C19.9375 22.1058 19.8575 22.1107 19.7779 22.1234C19.6983 22.136 19.6207 22.1562 19.545 22.1839C19.4694 22.2115 19.397 22.2462 19.3281 22.2879C19.2591 22.3295 19.1947 22.3774 19.135 22.4315L20.865 24.2349ZM15.935 22.5049C15.8817 22.44 15.8224 22.381 15.7571 22.328C15.6919 22.2751 15.622 22.2292 15.5475 22.1904C15.4731 22.1515 15.3954 22.1204 15.3147 22.0972C15.2339 22.074 15.1517 22.0591 15.0679 22.0525C14.9841 22.0459 14.9006 22.0476 14.8172 22.0579C14.7338 22.0681 14.6522 22.0865 14.5726 22.1132C14.4929 22.1399 14.4167 22.1742 14.3439 22.2164C14.2712 22.2584 14.2034 22.3072 14.1405 22.3629C14.0776 22.4186 14.0209 22.4801 13.9704 22.5472C13.9199 22.6144 13.8766 22.686 13.8405 22.7619C13.8044 22.8376 13.7763 22.9163 13.756 22.9979C13.7358 23.0794 13.724 23.1622 13.7205 23.2462C13.7169 23.3302 13.7218 23.4136 13.7351 23.4965C13.7484 23.5795 13.7699 23.6604 13.7995 23.739C13.8291 23.8176 13.8663 23.8925 13.911 23.9637C13.9557 24.0348 14.007 24.1007 14.065 24.1615L15.935 22.5049ZM29.885 20.0149C29.9407 20.0752 30.0018 20.1294 30.0682 20.1777C30.1345 20.226 30.205 20.2673 30.2795 20.3017C30.3541 20.3361 30.4312 20.3629 30.511 20.3821C30.5909 20.4013 30.6719 20.4125 30.7539 20.4157C30.8359 20.419 30.9174 20.4142 30.9985 20.4014C31.0797 20.3886 31.1587 20.368 31.2357 20.3396C31.3127 20.3112 31.3862 20.2756 31.4562 20.2327C31.5262 20.1898 31.5914 20.1406 31.6517 20.0849C31.712 20.0292 31.7664 19.9681 31.8145 19.9017C31.8629 19.8353 31.9042 19.7648 31.9385 19.6903C31.973 19.6158 31.9997 19.5386 32.0189 19.4588C32.038 19.379 32.0494 19.298 32.0525 19.216C32.0559 19.134 32.051 19.0524 32.0382 18.9714C32.0254 18.8903 32.0049 18.8112 31.9764 18.7342C31.948 18.6572 31.9124 18.5837 31.8695 18.5136C31.8267 18.4436 31.7774 18.3785 31.7217 18.3182L29.885 20.0149ZM25.075 15.4165C20.0984 15.4165 16.0484 19.4215 16.0484 24.3832L18.5484 24.3832C18.5484 20.8215 21.46 17.9165 25.075 17.9165L25.075 15.4165ZM16.0484 24.3832L16.0484 25.9265L18.5484 25.9265L18.5484 24.3832L16.0484 24.3832ZM18.1634 26.8282L20.8667 24.2349L19.1367 22.4315L16.4334 25.0232L18.1634 26.8282ZM18.2334 25.0965L15.9367 22.5049L14.0667 24.1615L16.3617 26.7549L18.2334 25.0965ZM31.7234 18.3182C31.512 18.0895 31.2895 17.8724 31.0557 17.6668C30.8219 17.4611 30.578 17.2681 30.3242 17.0877C30.0705 16.9072 29.8081 16.7404 29.537 16.5871C29.266 16.4338 28.9879 16.2949 28.7025 16.1704C28.4171 16.0458 28.126 15.9364 27.8294 15.8419C27.5327 15.7475 27.2319 15.6686 26.927 15.6053C26.6221 15.542 26.3148 15.4945 26.005 15.463C25.6953 15.4314 25.3847 15.416 25.0734 15.4165L25.0734 17.9165C25.5255 17.9154 25.9729 17.9607 26.4155 18.0525C26.8582 18.1443 27.2868 18.2805 27.7012 18.4613C28.1156 18.642 28.5071 18.8634 28.8755 19.1254C29.244 19.3874 29.5816 19.6844 29.8884 20.0165L31.7234 18.3182ZM32.6984 24.0732L33.6317 23.2432C33.5759 23.1803 33.5142 23.1236 33.447 23.0732C33.3797 23.0227 33.308 22.9795 33.232 22.9435C33.156 22.9076 33.0772 22.8796 32.9955 22.8595C32.9139 22.8394 32.831 22.8277 32.7469 22.8244C32.6629 22.821 32.5794 22.8261 32.4964 22.8397C32.4134 22.8531 32.3325 22.8748 32.2539 22.9047C32.1754 22.9345 32.1005 22.9719 32.0294 23.0169C31.9582 23.0617 31.8924 23.1133 31.8317 23.1715L32.6984 24.0732ZM29.1334 25.7632C29.0741 25.8201 29.021 25.8822 28.974 25.9495C28.9271 26.017 28.8872 26.0883 28.8542 26.1635C28.8213 26.2387 28.7961 26.3165 28.7785 26.3967C28.7609 26.4769 28.7513 26.5581 28.7497 26.6402C28.748 26.7222 28.7544 26.8036 28.7689 26.8845C28.7833 26.9654 28.8055 27.0441 28.8354 27.1205C28.8653 27.197 28.9023 27.2698 28.9465 27.339C28.9909 27.4081 29.0415 27.4723 29.0984 27.5315C29.1553 27.5907 29.2174 27.6439 29.2847 27.6909C29.3521 27.7377 29.4235 27.7776 29.4987 27.8105C29.5739 27.8435 29.6516 27.8688 29.7319 27.8864C29.8121 27.904 29.8932 27.9136 29.9752 27.9152C30.0573 27.9169 30.1388 27.9105 30.2197 27.896C30.3006 27.8816 30.3793 27.8594 30.4557 27.8295C30.5322 27.7996 30.605 27.7626 30.6742 27.7184C30.7434 27.674 30.8075 27.6234 30.8667 27.5665L29.1334 25.7632ZM34.0667 27.4965C34.1219 27.5553 34.1822 27.6082 34.2477 27.6554C34.3132 27.7026 34.3827 27.743 34.4559 27.7767C34.5292 27.8104 34.605 27.8367 34.6835 27.8557C34.762 27.8747 34.8415 27.886 34.922 27.8897C35.0025 27.8932 35.0827 27.8891 35.1625 27.8772C35.2424 27.8652 35.3204 27.8457 35.3964 27.8187C35.4724 27.7917 35.545 27.7577 35.6145 27.7167C35.684 27.6756 35.7489 27.6282 35.809 27.5745C35.8692 27.5209 35.9239 27.4619 35.9727 27.3977C36.0215 27.3336 36.0639 27.2653 36.0994 27.1929C36.135 27.1205 36.1634 27.0454 36.1845 26.9675C36.2057 26.8896 36.219 26.8105 36.2247 26.73C36.2305 26.6495 36.2285 26.5692 36.2187 26.4892C36.2089 26.4091 36.1915 26.3306 36.1665 26.2539C36.1415 26.1772 36.1094 26.1036 36.0702 26.0332C36.031 25.9626 35.9854 25.8965 35.9334 25.8349L34.0667 27.4965ZM20.0784 30.0082C20.0219 29.9497 19.9603 29.8973 19.8936 29.8509C19.8268 29.8043 19.7563 29.7647 19.6818 29.732C19.6074 29.6994 19.5305 29.6742 19.4511 29.6565C19.3718 29.6389 19.2914 29.629 19.2102 29.627C19.1289 29.625 19.0482 29.6309 18.968 29.6445C18.8879 29.6583 18.8099 29.6797 18.7339 29.7087C18.6579 29.7376 18.5855 29.7736 18.5165 29.8167C18.4476 29.8598 18.3835 29.9092 18.3242 29.9649C18.2649 30.0205 18.2115 30.0814 18.1641 30.1474C18.1166 30.2134 18.076 30.2834 18.0423 30.3574C18.0085 30.4312 17.9822 30.5077 17.9633 30.5869C17.9445 30.666 17.9335 30.7461 17.9302 30.8274C17.927 30.9086 17.9317 30.9894 17.9443 31.0697C17.9568 31.15 17.977 31.2284 18.0049 31.3047C18.0327 31.3811 18.0677 31.4541 18.1098 31.5237C18.1519 31.5932 18.2003 31.6581 18.255 31.7182L20.0784 30.0082ZM24.8917 34.5832C29.88 34.5832 33.9484 30.5832 33.9484 25.6165L31.4484 25.6165C31.4484 29.1749 28.5267 32.0832 24.8917 32.0832L24.8917 34.5832ZM33.9484 25.6165L33.9484 24.0732L31.4484 24.0732L31.4484 25.6165L33.9484 25.6165ZM31.8317 23.1715L29.1334 25.7632L30.8667 27.5665L33.5634 24.9749L31.8317 23.1715ZM31.765 24.9049L34.065 27.4949L35.935 25.8349L33.6334 23.2432L31.765 24.9049ZM18.2534 31.7165C18.4656 31.9425 18.6888 32.1572 18.9229 32.3603C19.1571 32.5635 19.4011 32.7543 19.6548 32.9325C19.9086 33.1107 20.1707 33.2753 20.4413 33.4267C20.712 33.578 20.9896 33.7152 21.2742 33.838C21.5589 33.9608 21.8491 34.069 22.1449 34.1622C22.4405 34.2553 22.7403 34.333 23.044 34.3955C23.3477 34.458 23.6538 34.5047 23.9622 34.5358C24.2708 34.5668 24.58 34.582 24.89 34.5815L24.89 32.0815C22.985 32.0815 21.2734 31.2815 20.0767 30.0065L18.2534 31.7165Z"   fill="#000000" fill-opacity="0.8">
</path>
<path    stroke="rgba(0, 0, 0, 0.8)" stroke-width="1.75"  stroke-linecap="round"  d="M16.6667 10.5635C17.2971 10.1988 17.9487 9.87702 18.6214 9.59812C19.2942 9.31923 19.9824 9.08565 20.6859 8.89738C21.3894 8.70913 22.1023 8.5678 22.8244 8.47342C23.5465 8.37903 24.2717 8.33239 25 8.33352C34.205 8.33352 41.6667 15.7952 41.6667 25.0002C41.6667 34.2052 34.205 41.6668 25 41.6668C15.795 41.6668 8.33337 34.2052 8.33337 25.0002C8.33337 21.9652 9.14504 19.1168 10.5634 16.6668">
</path>
</svg>
