<svg xmlns="http://www.w3.org/2000/svg" xmlns:xlink="http://www.w3.org/1999/xlink" width="45" height="45" viewBox="0 0 45 45" fill="none">
<path d="M17.2967 24.3833L16.0467 24.3833L17.2967 24.3833ZM17.2967 25.9266L16.36 26.755C16.4158 26.8179 16.4774 26.8746 16.5446 26.9251C16.6118 26.9757 16.6835 27.019 16.7594 27.055C16.8354 27.0911 16.9142 27.1192 16.9959 27.1393C17.0776 27.1594 17.1604 27.1712 17.2444 27.1746C17.3285 27.1781 17.412 27.1731 17.495 27.1596C17.578 27.1462 17.6589 27.1246 17.7375 27.0948C17.8162 27.065 17.8911 27.0277 17.9622 26.9828C18.0334 26.938 18.0993 26.8865 18.16 26.8283L17.2967 25.9266ZM20.865 24.235C20.9216 24.1775 20.9721 24.1153 21.0165 24.0481C21.061 23.9809 21.0987 23.9101 21.1294 23.8356C21.1602 23.7612 21.1836 23.6845 21.1995 23.6055C21.2155 23.5265 21.2237 23.4467 21.2243 23.3661C21.2248 23.2856 21.2176 23.2057 21.2026 23.1265C21.1877 23.0473 21.1654 22.9703 21.1355 22.8955C21.1057 22.8206 21.069 22.7493 21.0254 22.6815C20.9818 22.6137 20.9321 22.5508 20.8763 22.4926C20.8205 22.4345 20.7597 22.3823 20.6938 22.3358C20.6279 22.2895 20.5582 22.2499 20.4846 22.217C20.4111 22.1841 20.3351 22.1585 20.2566 22.1403C20.1781 22.1221 20.0986 22.1116 20.018 22.1088C19.9375 22.1059 19.8575 22.1108 19.7779 22.1235C19.6983 22.1361 19.6207 22.1563 19.545 22.184C19.4694 22.2116 19.397 22.2463 19.3281 22.288C19.2591 22.3296 19.1947 22.3775 19.135 22.4316L20.865 24.235ZM15.935 22.505C15.8817 22.4401 15.8224 22.3811 15.7571 22.3281C15.6919 22.2753 15.622 22.2294 15.5475 22.1905C15.4731 22.1516 15.3954 22.1205 15.3147 22.0973C15.2339 22.0741 15.1517 22.0592 15.0679 22.0526C14.9841 22.046 14.9006 22.0478 14.8172 22.058C14.7338 22.0682 14.6522 22.0866 14.5726 22.1133C14.4929 22.14 14.4167 22.1744 14.3439 22.2165C14.2712 22.2585 14.2034 22.3073 14.1405 22.363C14.0776 22.4188 14.0209 22.4802 13.9704 22.5473C13.9199 22.6145 13.8766 22.6861 13.8405 22.762C13.8044 22.8378 13.7763 22.9164 13.756 22.998C13.7358 23.0795 13.724 23.1623 13.7205 23.2463C13.7169 23.3303 13.7218 23.4138 13.7351 23.4966C13.7484 23.5796 13.7699 23.6605 13.7995 23.7391C13.8291 23.8177 13.8663 23.8926 13.911 23.9638C13.9557 24.0349 14.007 24.1009 14.065 24.1616L15.935 22.505ZM29.885 20.015C29.9407 20.0753 30.0018 20.1296 30.0682 20.1778C30.1345 20.2261 30.205 20.2674 30.2795 20.3018C30.3541 20.3362 30.4312 20.363 30.511 20.3822C30.5909 20.4014 30.6719 20.4126 30.7539 20.4159C30.8359 20.4191 30.9174 20.4143 30.9985 20.4015C31.0797 20.3887 31.1587 20.3681 31.2357 20.3397C31.3127 20.3113 31.3862 20.2757 31.4562 20.2328C31.5262 20.19 31.5914 20.1407 31.6517 20.085C31.712 20.0293 31.7664 19.9682 31.8145 19.9018C31.8629 19.8354 31.9042 19.765 31.9385 19.6904C31.973 19.6159 31.9997 19.5387 32.0189 19.4589C32.038 19.3791 32.0494 19.2982 32.0525 19.2161C32.0559 19.1341 32.051 19.0526 32.0382 18.9715C32.0254 18.8904 32.0049 18.8113 31.9764 18.7343C31.948 18.6573 31.9124 18.5838 31.8695 18.5138C31.8267 18.4438 31.7774 18.3786 31.7217 18.3183L29.885 20.015ZM25.075 15.4166C20.0984 15.4166 16.0484 19.4216 16.0484 24.3833L18.5484 24.3833C18.5484 20.8216 21.46 17.9166 25.075 17.9166L25.075 15.4166ZM16.0484 24.3833L16.0484 25.9266L18.5484 25.9266L18.5484 24.3833L16.0484 24.3833ZM18.1634 26.8283L20.8667 24.235L19.1367 22.4316L16.4334 25.0233L18.1634 26.8283ZM18.2334 25.0966L15.9367 22.505L14.0667 24.1616L16.3617 26.755L18.2334 25.0966ZM31.7234 18.3183C31.512 18.0897 31.2895 17.8725 31.0557 17.6669C30.8219 17.4612 30.578 17.2682 30.3242 17.0878C30.0705 16.9074 29.8081 16.7405 29.537 16.5872C29.266 16.4339 28.9879 16.295 28.7025 16.1705C28.4171 16.046 28.126 15.9365 27.8294 15.8421C27.5327 15.7476 27.2319 15.6687 26.927 15.6054C26.6221 15.5421 26.3148 15.4947 26.005 15.4631C25.6953 15.4316 25.3847 15.4161 25.0734 15.4166L25.0734 17.9166C25.5255 17.9155 25.9729 17.9609 26.4155 18.0526C26.8582 18.1444 27.2868 18.2807 27.7012 18.4614C28.1156 18.6421 28.5071 18.8635 28.8755 19.1255C29.244 19.3875 29.5816 19.6846 29.8884 20.0166L31.7234 18.3183ZM32.6984 24.0733L33.6317 23.2433C33.5759 23.1804 33.5142 23.1238 33.447 23.0733C33.3797 23.0229 33.308 22.9796 33.232 22.9436C33.156 22.9078 33.0772 22.8798 32.9955 22.8596C32.9139 22.8395 32.831 22.8278 32.7469 22.8245C32.6629 22.8211 32.5794 22.8263 32.4964 22.8398C32.4134 22.8533 32.3325 22.8749 32.2539 22.9048C32.1754 22.9346 32.1005 22.972 32.0294 23.017C31.9582 23.0619 31.8924 23.1134 31.8317 23.1716L32.6984 24.0733ZM29.1334 25.7633C29.0741 25.8202 29.021 25.8823 28.974 25.9496C28.9271 26.0171 28.8872 26.0884 28.8542 26.1636C28.8213 26.2389 28.7961 26.3166 28.7785 26.3968C28.7609 26.477 28.7513 26.5582 28.7497 26.6403C28.748 26.7223 28.7544 26.8038 28.7689 26.8846C28.7833 26.9655 28.8055 27.0442 28.8354 27.1206C28.8653 27.1971 28.9023 27.2699 28.9465 27.3391C28.9909 27.4083 29.0415 27.4724 29.0984 27.5316C29.1553 27.5909 29.2174 27.644 29.2847 27.691C29.3521 27.7379 29.4235 27.7778 29.4987 27.8106C29.5739 27.8436 29.6516 27.8689 29.7319 27.8865C29.8121 27.9041 29.8932 27.9138 29.9752 27.9153C30.0573 27.917 30.1388 27.9106 30.2197 27.8961C30.3006 27.8817 30.3793 27.8595 30.4557 27.8296C30.5322 27.7998 30.605 27.7627 30.6742 27.7185C30.7434 27.6741 30.8075 27.6235 30.8667 27.5666L29.1334 25.7633ZM34.0667 27.4966C34.1219 27.5554 34.1822 27.6084 34.2477 27.6555C34.3132 27.7027 34.3827 27.7431 34.4559 27.7768C34.5292 27.8105 34.605 27.8368 34.6835 27.8558C34.762 27.8748 34.8415 27.8861 34.922 27.8898C35.0025 27.8934 35.0827 27.8892 35.1625 27.8773C35.2424 27.8653 35.3204 27.8458 35.3964 27.8188C35.4724 27.7918 35.545 27.7578 35.6145 27.7168C35.684 27.6757 35.7489 27.6283 35.809 27.5746C35.8692 27.521 35.9239 27.462 35.9727 27.3978C36.0215 27.3337 36.0639 27.2654 36.0994 27.193C36.135 27.1206 36.1634 27.0455 36.1845 26.9676C36.2057 26.8898 36.219 26.8106 36.2247 26.7301C36.2305 26.6496 36.2285 26.5693 36.2187 26.4893C36.2089 26.4092 36.1915 26.3308 36.1665 26.254C36.1415 26.1773 36.1094 26.1038 36.0702 26.0333C36.031 25.9628 35.9854 25.8966 35.9334 25.835L34.0667 27.4966ZM20.0784 30.0083C20.0219 29.9499 19.9603 29.8974 19.8936 29.851C19.8268 29.8044 19.7563 29.7648 19.6818 29.7321C19.6074 29.6995 19.5305 29.6743 19.4511 29.6566C19.3718 29.639 19.2914 29.6291 19.2102 29.6271C19.1289 29.6251 19.0482 29.631 18.968 29.6446C18.8879 29.6584 18.8099 29.6798 18.7339 29.7088C18.6579 29.7377 18.5855 29.7737 18.5165 29.8168C18.4476 29.8599 18.3835 29.9093 18.3242 29.965C18.2649 30.0206 18.2115 30.0815 18.1641 30.1475C18.1166 30.2135 18.076 30.2835 18.0423 30.3575C18.0085 30.4314 17.9822 30.5079 17.9633 30.587C17.9445 30.6661 17.9335 30.7462 17.9302 30.8275C17.927 30.9087 17.9317 30.9895 17.9443 31.0698C17.9568 31.1501 17.977 31.2285 18.0049 31.3048C18.0327 31.3813 18.0677 31.4543 18.1098 31.5238C18.1519 31.5934 18.2003 31.6582 18.255 31.7183L20.0784 30.0083ZM24.8917 34.5833C29.88 34.5833 33.9484 30.5833 33.9484 25.6166L31.4484 25.6166C31.4484 29.175 28.5267 32.0833 24.8917 32.0833L24.8917 34.5833ZM33.9484 25.6166L33.9484 24.0733L31.4484 24.0733L31.4484 25.6166L33.9484 25.6166ZM31.8317 23.1716L29.1334 25.7633L30.8667 27.5666L33.5634 24.975L31.8317 23.1716ZM31.765 24.905L34.065 27.495L35.935 25.835L33.6334 23.2433L31.765 24.905ZM18.2534 31.7166C18.4656 31.9426 18.6888 32.1573 18.9229 32.3605C19.1571 32.5636 19.4011 32.7545 19.6548 32.9326C19.9086 33.1108 20.1707 33.2755 20.4413 33.4268C20.712 33.5781 20.9896 33.7153 21.2742 33.8381C21.5589 33.961 21.8491 34.0691 22.1449 34.1623C22.4405 34.2555 22.7403 34.3331 23.044 34.3956C23.3477 34.4581 23.6538 34.5048 23.9622 34.536C24.2708 34.567 24.58 34.5821 24.89 34.5816L24.89 32.0816C22.985 32.0816 21.2734 31.2816 20.0767 30.0066L18.2534 31.7166Z"   fill="#FFFFFF" fill-opacity="0.8">
</path>
<path    stroke="rgba(255, 255, 255, 0.8)" stroke-width="1.75"  stroke-linecap="round"  d="M16.6667 10.5634C17.2971 10.1987 17.9487 9.87689 18.6214 9.59799C19.2942 9.31911 19.9824 9.08553 20.6859 8.89726C21.3894 8.70901 22.1023 8.56768 22.8244 8.47329C23.5465 8.37891 24.2717 8.33227 25 8.33339C34.205 8.33339 41.6667 15.7951 41.6667 25C41.6667 34.205 34.205 41.6667 25 41.6667C15.795 41.6667 8.33337 34.205 8.33337 25C8.33337 21.9651 9.14504 19.1167 10.5634 16.6667">
</path>
</svg>
