<svg xmlns="http://www.w3.org/2000/svg" xmlns:xlink="http://www.w3.org/1999/xlink" width="24" height="24" viewBox="0 0 64 64" fill="none">
<path    stroke="currentColor" stroke-width="5"  stroke-linecap="round"  d="M49.3332 49.3332L58.6665 58.6665M18 8.72C18.4389 8.46672 18.885 8.22683 19.3383 8.00032C19.7916 7.77381 20.2513 7.56109 20.7174 7.36215C21.1834 7.16324 21.655 6.97847 22.1322 6.80783C22.6094 6.63722 23.0912 6.48106 23.5777 6.33935C24.0642 6.19765 24.5546 6.07065 25.0487 5.95837C25.5429 5.84609 26.04 5.74871 26.54 5.66626C27.0399 5.58381 27.5419 5.51642 28.0461 5.4641C28.5501 5.41176 29.0552 5.37459 29.5613 5.35258C30.0676 5.33057 30.5741 5.32376 31.0808 5.33213C31.5875 5.3405 32.0935 5.36407 32.5985 5.40282C33.1041 5.44156 33.6076 5.49541 34.1095 5.56437C34.6116 5.63333 35.1111 5.71729 35.6081 5.81623C36.1052 5.91517 36.5988 6.02892 37.0889 6.15749C37.5791 6.28604 38.0649 6.42918 38.5465 6.5869C39.0281 6.74461 39.5047 6.91662 39.9756 7.10293C40.4471 7.28924 40.9121 7.48951 41.3713 7.70373C41.8308 7.91795 42.2833 8.14573 42.7287 8.38712C43.1743 8.62848 43.6121 8.88299 44.0425 9.15067C44.4729 9.41829 44.8948 9.69861 45.3081 9.9916C45.7217 10.2846 46.126 10.5897 46.5209 10.9069C46.9161 11.2241 47.3015 11.5529 47.6769 11.8933C48.0524 12.2336 48.4175 12.5849 48.7716 12.9472C49.126 13.3094 49.4692 13.682 49.8012 14.0648C50.1332 14.4477 50.4535 14.8401 50.7617 15.2422C51.0703 15.6442 51.3665 16.0552 51.6503 16.475C51.934 16.8949 52.2049 17.3228 52.4631 17.7589C52.7212 18.195 52.966 18.6384 53.1975 19.0892C53.4289 19.54 53.6468 19.9973 53.8508 20.4611C54.0548 20.925 54.2447 21.3945 54.4207 21.8698C54.5967 22.345 54.758 22.8251 54.9049 23.3101C55.0521 23.795 55.1844 24.2839 55.302 24.7768C55.4199 25.2697 55.5228 25.7656 55.6105 26.2647C55.6985 26.7638 55.7716 27.2651 55.8295 27.7685C55.8873 28.2718 55.93 28.7765 55.9577 29.2827C55.9855 29.7886 55.9977 30.2949 55.9948 30.8016C55.9921 31.3084 55.974 31.8147 55.9409 32.3201C55.9079 32.8257 55.8593 33.33 55.7959 33.8327C55.7327 34.3356 55.6543 34.8359 55.5607 35.334C55.4673 35.8321 55.3591 36.3268 55.2359 36.8183C55.1127 37.31 54.9751 37.7975 54.8225 38.2807C54.67 38.7639 54.5033 39.2423 54.3223 39.7153C54.1412 40.1889 53.946 40.6564 53.7369 41.1177C53.5279 41.5793 53.3049 42.0343 53.0684 42.4823C52.8321 42.9308 52.5823 43.3713 52.3193 43.8044C52.0567 44.2377 51.7809 44.6628 51.4924 45.0793C51.2041 45.4961 50.9036 45.9039 50.5905 46.3023C50.2777 46.7012 49.9532 47.09 49.6169 47.4689C49.2809 47.8481 48.9337 48.2169 48.5753 48.5753C48.2169 48.9337 47.8481 49.2809 47.4689 49.6169C47.09 49.9532 46.7012 50.2777 46.3023 50.5905C45.9039 50.9036 45.4961 51.2041 45.0793 51.4924C44.6628 51.7809 44.2377 52.0567 43.8044 52.3193C43.3713 52.5823 42.9308 52.8321 42.4823 53.0684C42.0343 53.3049 41.5793 53.5279 41.1177 53.7369C40.6564 53.946 40.1889 54.1412 39.7153 54.3223C39.2423 54.5033 38.7639 54.67 38.2807 54.8225C37.7975 54.9751 37.31 55.1127 36.8183 55.2359C36.3268 55.3591 35.8321 55.4673 35.334 55.5607C34.8359 55.6543 34.3356 55.7327 33.8327 55.7959C33.33 55.8593 32.8257 55.9079 32.3201 55.9409C31.8145 55.974 31.3083 55.9921 30.8016 55.9948C30.2949 55.9977 29.7885 55.9855 29.2824 55.9577C28.7764 55.93 28.2717 55.8873 27.7683 55.8295C27.265 55.7716 26.7638 55.6985 26.2647 55.6105C25.7656 55.5228 25.2697 55.4199 24.7768 55.302C24.2839 55.1844 23.795 55.0521 23.3101 54.9049C22.8251 54.758 22.345 54.5967 21.8698 54.4207C21.3945 54.2447 20.925 54.0548 20.4611 53.8508C19.9973 53.6468 19.54 53.4289 19.0892 53.1975C18.6384 52.966 18.195 52.7212 17.7589 52.4631C17.3228 52.2049 16.8948 51.934 16.475 51.6503C16.0552 51.3665 15.6442 51.0703 15.2422 50.7617C14.8401 50.4535 14.4477 50.1332 14.0648 49.8012C13.682 49.4692 13.3094 49.126 12.9472 48.7716C12.5849 48.4175 12.2336 48.0524 11.8933 47.6769C11.5529 47.3015 11.2241 46.9161 10.9069 46.5209C10.5897 46.126 10.2846 45.7217 9.9916 45.3081C9.69862 44.8948 9.41829 44.4729 9.15067 44.0425C8.88299 43.6121 8.62848 43.1743 8.38712 42.7287C8.14573 42.2833 7.91795 41.8308 7.70373 41.3713C7.48949 40.9121 7.28922 40.4471 7.10293 39.9756C6.91662 39.5047 6.7446 39.0281 6.58688 38.5465C6.42917 38.0649 6.28603 37.5791 6.15746 37.0889C6.02891 36.5988 5.91517 36.1052 5.81624 35.6081C5.71728 35.1111 5.63333 34.6116 5.56437 34.1095C5.49541 33.6076 5.44155 33.1041 5.4028 32.5985C5.36406 32.0935 5.3405 31.5875 5.33213 31.0808C5.32376 30.5741 5.33057 30.0676 5.35258 29.5613C5.37459 29.0552 5.41177 28.5501 5.4641 28.0461C5.51642 27.5419 5.58381 27.0399 5.66626 26.54C5.74872 26.04 5.84608 25.5429 5.95837 25.0487C6.07065 24.5546 6.19765 24.0642 6.33936 23.5777C6.48106 23.0912 6.63722 22.6094 6.80784 22.1322C6.97847 21.655 7.16324 21.1834 7.36216 20.7174C7.56109 20.2513 7.77381 19.7916 8.00032 19.3383C8.22683 18.885 8.46672 18.4389 8.72 18">
</path>
</svg>
