<?xml version="1.0" standalone="no"?>
<svg viewBox="0 0 40 40" xmlns="http://www.w3.org/2000/svg" width="24" height="24">
<g fill="currentColor">
<path d="M11.6667 20.0002L11.6667 21.6668L28.3333 21.6668L28.3333 20.0002C28.3333 19.8366 28.3413 19.6735 28.3573 19.5108C28.3733 19.348 28.3973 19.1865 28.4292 19.0262C28.461 18.8657 28.5005 18.7073 28.548 18.5508C28.5955 18.3944 28.6503 18.2406 28.7128 18.0895C28.7753 17.9384 28.845 17.7907 28.922 17.6463C28.999 17.5021 29.0828 17.362 29.1735 17.226C29.2643 17.0899 29.3615 16.9586 29.465 16.8322C29.5687 16.7056 29.6782 16.5845 29.7937 16.4687C29.9092 16.353 30.03 16.2432 30.1563 16.1393C30.2825 16.0354 30.4137 15.9379 30.5495 15.8469C30.6853 15.7558 30.8252 15.6716 30.9693 15.5943C31.1133 15.517 31.2608 15.4469 31.4118 15.3841C31.5628 15.3213 31.7165 15.266 31.8728 15.2182C32.0292 15.1704 32.1875 15.1304 32.3478 15.0982C32.5082 15.066 32.6697 15.0417 32.8323 15.0253C32.995 15.0089 33.1582 15.0005 33.3217 15.0002C33.3198 14.5635 33.281 14.1302 33.205 13.7002C33.1732 13.5396 33.1353 13.3804 33.0917 13.2226C33.048 13.0648 32.9985 12.9089 32.9433 12.7547C32.8882 12.6006 32.8275 12.4487 32.7612 12.299C32.6948 12.1494 32.6232 12.0023 32.546 11.8579C32.4688 11.7136 32.3863 11.5722 32.2988 11.4339C32.2112 11.2956 32.1187 11.1607 32.0212 11.0292C31.9237 10.8977 31.8213 10.77 31.7145 10.646C31.6075 10.522 31.4962 10.4022 31.3803 10.2864C31.2647 10.1707 31.1448 10.0593 31.0208 9.95238C30.8968 9.84545 30.7692 9.74322 30.6377 9.6457C30.5062 9.54817 30.3712 9.45562 30.233 9.36805C30.0947 9.28046 29.9533 9.19808 29.8088 9.12091C29.6645 9.04375 29.5175 8.97199 29.3678 8.90565C29.2182 8.83931 29.0662 8.77857 28.912 8.72341C28.7578 8.66827 28.602 8.61887 28.4442 8.57521C28.2863 8.53156 28.1272 8.49376 27.9667 8.46183C27.3233 8.3335 26.55 8.3335 25 8.3335L15 8.3335C13.45 8.3335 12.6767 8.3335 12.0333 8.46183C11.8728 8.49376 11.7136 8.53156 11.5558 8.57521C11.398 8.61887 11.2421 8.66827 11.0879 8.72341C10.9338 8.77857 10.7819 8.83931 10.6322 8.90565C10.4825 8.97199 10.3355 9.04375 10.1911 9.12091C10.0467 9.19808 9.90541 9.28046 9.76709 9.36805C9.62878 9.45562 9.49386 9.54817 9.36238 9.6457C9.23088 9.74322 9.10314 9.84545 8.97918 9.95238C8.85523 10.0593 8.73536 10.1707 8.61959 10.2864C8.50385 10.4022 8.39249 10.522 8.28556 10.646C8.17863 10.77 8.0764 10.8977 7.97888 11.0292C7.88136 11.1607 7.78881 11.2956 7.70123 11.4339C7.61364 11.5722 7.53126 11.7136 7.45409 11.8579C7.37693 12.0023 7.30517 12.1494 7.23883 12.299C7.17249 12.4487 7.11175 12.6006 7.05659 12.7547C7.00145 12.9089 6.95205 13.0648 6.90839 13.2226C6.86474 13.3804 6.82694 13.5396 6.79501 13.7002C6.719 14.1302 6.68011 14.5635 6.67834 15.0002C6.84186 15.0005 7.00496 15.0089 7.16764 15.0253C7.33033 15.0417 7.49183 15.066 7.65214 15.0982C7.81244 15.1304 7.97078 15.1704 8.12716 15.2182C8.28355 15.266 8.43723 15.3213 8.58818 15.3841C8.73913 15.4469 8.88664 15.517 9.03073 15.5943C9.17481 15.6716 9.31478 15.7558 9.45059 15.8468C9.58641 15.9379 9.71746 16.0354 9.84371 16.1393C9.96998 16.2432 10.0908 16.353 10.2063 16.4687C10.3218 16.5845 10.4314 16.7056 10.535 16.8322C10.6386 16.9586 10.7357 17.0899 10.8265 17.226C10.9172 17.362 11.001 17.5021 11.078 17.6463C11.155 17.7907 11.2247 17.9384 11.2872 18.0895C11.3497 18.2406 11.4046 18.3944 11.452 18.5508C11.4994 18.7073 11.539 18.8657 11.5709 19.0262C11.6027 19.1865 11.6267 19.348 11.6427 19.5108C11.6587 19.6735 11.6667 19.8366 11.6667 20.0002Z"  >
</path>
<path d="M30.74 29.9998L9.26004 29.9998C8.80642 30 8.35864 29.9488 7.91671 29.8465L7.91671 31.6665C7.91671 31.7486 7.90871 31.8299 7.89269 31.9103C7.87669 31.9909 7.85297 32.0691 7.82156 32.1448C7.79016 32.2207 7.75164 32.2928 7.70604 32.361C7.66044 32.4292 7.60862 32.4923 7.55059 32.5503C7.49256 32.6085 7.42942 32.6603 7.36117 32.7058C7.29294 32.7514 7.22089 32.7899 7.14506 32.8213C7.06924 32.8528 6.99107 32.8765 6.91057 32.8925C6.83007 32.9085 6.74879 32.9165 6.66671 32.9165C6.58464 32.9165 6.50334 32.9085 6.42284 32.8925C6.34234 32.8765 6.26419 32.8528 6.18836 32.8213C6.11252 32.7899 6.04049 32.7514 5.97224 32.7058C5.90401 32.6603 5.84086 32.6085 5.78282 32.5503C5.72479 32.4923 5.67297 32.4292 5.62737 32.361C5.58177 32.2928 5.54327 32.2207 5.51186 32.1448C5.48046 32.0691 5.45674 31.9909 5.44072 31.9103C5.42472 31.8299 5.41671 31.7486 5.41671 31.6665L5.41671 28.5848C5.25374 28.4463 5.09874 28.2993 4.95171 28.144C4.80468 27.9887 4.66648 27.8258 4.53713 27.6553C4.40777 27.485 4.28802 27.3082 4.17786 27.1248C4.06769 26.9415 3.96778 26.7527 3.87811 26.5585C3.78843 26.3643 3.70953 26.1658 3.64139 25.963C3.57325 25.7602 3.51628 25.5544 3.47049 25.3455C3.42469 25.1365 3.39033 24.9257 3.36741 24.713C3.3445 24.5003 3.33316 24.2871 3.33338 24.0732L3.33338 19.9998C3.33338 19.8906 3.33873 19.7817 3.34943 19.6732C3.36013 19.5645 3.37613 19.4566 3.39743 19.3495C3.41873 19.2425 3.44522 19.1367 3.47691 19.0322C3.5086 18.9277 3.54533 18.8251 3.58711 18.7242C3.62889 18.6234 3.67551 18.5248 3.72698 18.4285C3.77843 18.3323 3.83449 18.2388 3.89514 18.148C3.9558 18.0572 4.02076 17.9696 4.09001 17.8852C4.15927 17.8008 4.23249 17.7201 4.30969 17.6428C4.38688 17.5656 4.46767 17.4924 4.55206 17.4232C4.63645 17.3538 4.72403 17.2889 4.81481 17.2283C4.90558 17.1677 4.99911 17.1116 5.09539 17.0602C5.19167 17.0086 5.29024 16.9619 5.39109 16.9202C5.49196 16.8784 5.59462 16.8417 5.69909 16.81C5.80356 16.7783 5.90934 16.7518 6.01641 16.7305C6.12349 16.7093 6.23136 16.6933 6.33999 16.6825C6.44864 16.6718 6.55754 16.6665 6.66671 16.6665C6.77587 16.6665 6.88479 16.6718 6.99342 16.6825C7.10207 16.6933 7.20994 16.7093 7.31701 16.7305C7.42409 16.7518 7.52986 16.7783 7.63432 16.81C7.73879 16.8417 7.84146 16.8784 7.94232 16.9202C8.04319 16.9619 8.14176 17.0086 8.23802 17.0602C8.33432 17.1116 8.42784 17.1677 8.51861 17.2283C8.60939 17.2889 8.69697 17.3538 8.78136 17.4232C8.86576 17.4924 8.94654 17.5656 9.02372 17.6428C9.10092 17.7201 9.17416 17.8008 9.24341 17.8852C9.31267 17.9696 9.37762 18.0572 9.43827 18.148C9.49894 18.2388 9.55499 18.3323 9.60644 18.4285C9.65791 18.5248 9.70454 18.6234 9.74631 18.7242C9.78809 18.8251 9.82482 18.9277 9.85651 19.0322C9.88821 19.1367 9.91469 19.2425 9.93599 19.3495C9.95729 19.4566 9.97329 19.5645 9.98399 19.6732C9.99469 19.7817 10 19.8906 10 19.9998L10 21.9998C10 22.0874 10.0086 22.1741 10.0257 22.26C10.0427 22.3458 10.068 22.4291 10.1015 22.51C10.135 22.5909 10.1761 22.6678 10.2247 22.7407C10.2734 22.8135 10.3287 22.8808 10.3906 22.9427C10.4525 23.0046 10.5198 23.0598 10.5926 23.1085C10.6654 23.1571 10.7423 23.1981 10.8231 23.2317C10.904 23.2652 10.9874 23.2905 11.0733 23.3075C11.1591 23.3246 11.2458 23.3332 11.3334 23.3332L28.6667 23.3332C28.7542 23.3332 28.841 23.3246 28.9269 23.3075C29.0127 23.2905 29.096 23.2652 29.1769 23.2317C29.2577 23.1981 29.3347 23.1571 29.4075 23.1085C29.4804 23.0598 29.5477 23.0046 29.6095 22.9427C29.6714 22.8808 29.7267 22.8135 29.7754 22.7407C29.8239 22.6678 29.865 22.5909 29.8985 22.51C29.932 22.4291 29.9574 22.3458 29.9744 22.26C29.9915 22.1741 30 22.0874 30 21.9998L30 19.9998C30 19.8906 30.0054 19.7817 30.016 19.6732C30.0269 19.5645 30.0429 19.4566 30.064 19.3495C30.0854 19.2425 30.1119 19.1367 30.1435 19.0322C30.1752 18.9277 30.2119 18.8251 30.2537 18.7242C30.2955 18.6234 30.3422 18.5248 30.3937 18.4285C30.4452 18.3323 30.5012 18.2388 30.5619 18.148C30.6224 18.0572 30.6874 17.9696 30.7567 17.8852C30.8259 17.8008 30.8992 17.7201 30.9764 17.6428C31.0535 17.5656 31.1344 17.4924 31.2187 17.4232C31.3032 17.3538 31.3907 17.2889 31.4815 17.2283C31.5724 17.1677 31.6659 17.1116 31.762 17.0602C31.8584 17.0086 31.9569 16.9619 32.0577 16.9202C32.1585 16.8784 32.2612 16.8417 32.3657 16.81C32.4702 16.7783 32.576 16.7518 32.683 16.7305C32.7902 16.7093 32.898 16.6933 33.0067 16.6825C33.1152 16.6718 33.2242 16.6665 33.3334 16.6665C33.4425 16.6665 33.5515 16.6718 33.66 16.6825C33.7687 16.6933 33.8765 16.7093 33.9837 16.7305C34.0907 16.7518 34.1965 16.7783 34.301 16.81C34.4055 16.8417 34.5082 16.8784 34.609 16.9202C34.7099 16.9619 34.8084 17.0086 34.9047 17.0602C35.0009 17.1116 35.0944 17.1677 35.1852 17.2283C35.276 17.2889 35.3635 17.3538 35.448 17.4232C35.5324 17.4924 35.6132 17.5656 35.6904 17.6428C35.7675 17.7201 35.8409 17.8008 35.91 17.8852C35.9794 17.9696 36.0444 18.0572 36.1049 18.148C36.1655 18.2388 36.2215 18.3323 36.273 18.4285C36.3245 18.5248 36.3712 18.6234 36.413 18.7242C36.4549 18.8251 36.4915 18.9277 36.5232 19.0322C36.5549 19.1367 36.5814 19.2425 36.6027 19.3495C36.6239 19.4566 36.6399 19.5645 36.6507 19.6732C36.6614 19.7817 36.6667 19.8906 36.6667 19.9998L36.6667 24.0732C36.6669 24.2871 36.6555 24.5003 36.6327 24.713C36.6099 24.9257 36.5754 25.1365 36.5295 25.3455C36.4837 25.5544 36.4269 25.7602 36.3587 25.963C36.2905 26.1658 36.2117 26.3643 36.122 26.5585C36.0324 26.7527 35.9324 26.9415 35.8222 27.1248C35.712 27.3082 35.5924 27.485 35.4629 27.6553C35.3335 27.8258 35.1954 27.9887 35.0484 28.144C34.9014 28.2993 34.7464 28.4463 34.5834 28.5848L34.5834 31.6665C34.5834 31.7486 34.5754 31.8299 34.5594 31.9103C34.5434 31.9909 34.5197 32.0691 34.4882 32.1448C34.4567 32.2207 34.4182 32.2928 34.3727 32.361C34.3272 32.4292 34.2754 32.4923 34.2172 32.5503C34.1592 32.6085 34.096 32.6603 34.0279 32.7058C33.9597 32.7514 33.8875 32.7899 33.8117 32.8213C33.7359 32.8528 33.6577 32.8765 33.5772 32.8925C33.4967 32.9085 33.4155 32.9165 33.3334 32.9165C33.2512 32.9165 33.17 32.9085 33.0895 32.8925C33.009 32.8765 32.9309 32.8528 32.855 32.8213C32.7792 32.7899 32.707 32.7514 32.6389 32.7058C32.5707 32.6603 32.5075 32.6085 32.4495 32.5503C32.3914 32.4923 32.3395 32.4292 32.294 32.361C32.2485 32.2928 32.21 32.2207 32.1785 32.1448C32.147 32.0691 32.1234 31.9909 32.1074 31.9103C32.0914 31.8299 32.0834 31.7486 32.0834 31.6665L32.0834 29.8465C31.6415 29.9488 31.1937 30 30.74 29.9998Z" >
</path></g>
</svg>
