<svg xmlns="http://www.w3.org/2000/svg" xmlns:xlink="http://www.w3.org/1999/xlink" width="40" height="40" viewBox="0 0 40 40" fill="none">
<path    stroke="rgba(255, 255, 255, 1)" stroke-width="1.75"  stroke-linecap="round"  d="M15 26.6665C16.4167 27.7165 18.1417 28.3332 20 28.3332C21.8583 28.3332 23.5833 27.7165 25 26.6665">
</path>
<ellipse cx="25.000041007995605" cy="17.5" rx="1.6666669845581055" ry="2.5"   fill="#FFFFFF" >
</ellipse>
<ellipse cx="15.000040531158447" cy="17.5" rx="1.6666665077209473" ry="2.5"   fill="#FFFFFF" >
</ellipse>
<path    stroke="rgba(255, 255, 255, 1)" stroke-width="1.75"  stroke-linecap="round"  d="M3.66663 16.6665C3.74804 16.2689 3.84382 15.8749 3.95398 15.4843C4.06414 15.0937 4.18839 14.7077 4.32673 14.3261C4.46505 13.9446 4.61709 13.5686 4.78284 13.1982C4.94861 12.8278 5.12764 12.4639 5.31994 12.1065C5.51226 11.7492 5.71733 11.3993 5.93516 11.0569C6.15301 10.7145 6.38303 10.3805 6.62523 10.0549C6.86743 9.72927 7.12118 9.4129 7.38646 9.1058C7.65174 8.79869 7.92788 8.50165 8.21483 8.2147C8.50178 7.92775 8.79881 7.65162 9.10593 7.38634C9.41303 7.12105 9.72939 6.8673 10.055 6.6251C10.3806 6.3829 10.7146 6.15289 11.057 5.93504C11.3994 5.7172 11.7493 5.51214 12.1067 5.31982C12.464 5.12752 12.8279 4.94849 13.1983 4.78272C13.5688 4.61697 13.9447 4.46493 14.3263 4.3266C14.7078 4.18827 15.0938 4.06402 15.4844 3.95385C15.875 3.8437 16.2691 3.74792 16.6666 3.6665M3.66663 23.3332C3.74804 23.7307 3.84382 24.1248 3.95398 24.5153C4.06414 24.906 4.18839 25.292 4.32673 25.6735C4.46505 26.055 4.61709 26.431 4.78284 26.8015C4.94861 27.172 5.12764 27.5358 5.31994 27.8932C5.51226 28.2505 5.71733 28.6003 5.93516 28.9428C6.15301 29.2852 6.38303 29.6192 6.62523 29.9448C6.86743 30.2703 7.12118 30.5867 7.38646 30.8938C7.65174 31.201 7.92788 31.498 8.21483 31.785C8.50178 32.0718 8.79881 32.348 9.10593 32.6133C9.41303 32.8787 9.72939 33.1323 10.055 33.3745C10.3806 33.6167 10.7146 33.8468 11.057 34.0647C11.3994 34.2825 11.7493 34.4875 12.1067 34.6798C12.464 34.8722 12.8279 35.0512 13.1983 35.217C13.5688 35.3827 13.9447 35.5347 14.3263 35.673C14.7078 35.8113 15.0938 35.9357 15.4844 36.0458C15.875 36.156 16.2691 36.2517 16.6666 36.3332M36.3333 16.6665C36.2518 16.2689 36.1561 15.8749 36.046 15.4843C35.9358 15.0937 35.8115 14.7077 35.6731 14.3261C35.5348 13.9446 35.3828 13.5686 35.2171 13.1982C35.0513 12.8278 34.8723 12.4639 34.68 12.1065C34.4876 11.7492 34.2826 11.3993 34.0648 11.0569C33.847 10.7145 33.6168 10.3805 33.3746 10.0549C33.1325 9.72927 32.8788 9.4129 32.6135 9.1058C32.3481 8.79869 32.072 8.50165 31.7851 8.2147C31.4981 7.92775 31.2011 7.65162 30.894 7.38634C30.5868 7.12105 30.2705 6.8673 29.945 6.6251C29.6193 6.3829 29.2853 6.15289 28.943 5.93504C28.6005 5.7172 28.2506 5.51214 27.8933 5.31982C27.536 5.12752 27.1721 4.94849 26.8016 4.78272C26.4311 4.61697 26.0551 4.46493 25.6736 4.3266C25.2921 4.18827 24.9061 4.06402 24.5155 3.95385C24.125 3.8437 23.7308 3.74792 23.3333 3.6665M36.3333 23.3332C36.2518 23.7307 36.1561 24.1248 36.046 24.5153C35.9358 24.906 35.8115 25.292 35.6731 25.6735C35.5348 26.055 35.3828 26.431 35.2171 26.8015C35.0513 27.172 34.8723 27.5358 34.68 27.8932C34.4876 28.2505 34.2826 28.6003 34.0648 28.9428C33.847 29.2852 33.6168 29.6192 33.3746 29.9448C33.1325 30.2703 32.8788 30.5867 32.6135 30.8938C32.3481 31.201 32.072 31.498 31.7851 31.785C31.4981 32.0718 31.2011 32.348 30.894 32.6133C30.5868 32.8787 30.2705 33.1323 29.945 33.3745C29.6193 33.6167 29.2853 33.8468 28.943 34.0647C28.6005 34.2825 28.2506 34.4875 27.8933 34.6798C27.5358 34.8722 27.172 35.0512 26.8016 35.217C26.4311 35.3827 26.0551 35.5347 25.6736 35.673C25.2921 35.8113 24.9061 35.9357 24.5155 36.0458C24.125 36.156 23.7308 36.2517 23.3333 36.3332">
</path>
</svg>
