<svg xmlns="http://www.w3.org/2000/svg" xmlns:xlink="http://www.w3.org/1999/xlink" width="24" height="24" viewBox="0 0 40 40" fill="none">
<path d="M18.0018 4.28354C18.0173 4.35976 18.0252 4.43675 18.0255 4.51452C18.0257 4.59229 18.0184 4.66934 18.0037 4.74567C17.9888 4.822 17.9665 4.89616 17.937 4.96814C17.9075 5.04011 17.8714 5.10851 17.8285 5.17334C17.7855 5.23817 17.7366 5.29821 17.6818 5.35344C17.627 5.40864 17.5674 5.45799 17.503 5.50149C17.4385 5.54496 17.3704 5.58174 17.2987 5.61182C17.227 5.64189 17.153 5.66469 17.0768 5.68021C16.7283 5.75161 16.3828 5.83562 16.0405 5.93226C15.6981 6.02886 15.3597 6.13782 15.0252 6.25912C14.6908 6.38041 14.3612 6.51372 14.0365 6.65907C13.7118 6.80441 13.3928 6.96137 13.0795 7.12999C12.7662 7.29859 12.4595 7.47839 12.1594 7.66937C11.8592 7.86034 11.5664 8.06201 11.281 8.27434C10.9955 8.48667 10.7182 8.70914 10.449 8.94171C10.1798 9.17426 9.91939 9.41632 9.66784 9.66789C9.41628 9.91944 9.17421 10.1798 8.94164 10.4491C8.70907 10.7183 8.48662 10.9956 8.27429 11.281C8.06196 11.5665 7.86029 11.8593 7.66932 12.1594C7.47834 12.4596 7.29854 12.7663 7.12994 13.0796C6.96132 13.3928 6.80436 13.7118 6.65902 14.0365C6.51367 14.3612 6.38036 14.6908 6.25907 15.0253C6.13777 15.3597 6.02881 15.6981 5.93221 16.0405C5.83557 16.3829 5.75156 16.7283 5.68016 17.0769C5.66469 17.1532 5.64194 17.2273 5.61191 17.299C5.58186 17.3709 5.54509 17.4391 5.50161 17.5037C5.45811 17.5683 5.40874 17.628 5.35351 17.6829C5.29824 17.7376 5.23817 17.7866 5.17327 17.8297C5.10837 17.8727 5.03991 17.9089 4.96787 17.9384C4.89583 17.9679 4.8216 17.9901 4.74519 18.005C4.66876 18.0199 4.59162 18.0273 4.51377 18.027C4.43591 18.0267 4.35884 18.0188 4.28254 18.0032C4.20624 17.9878 4.13218 17.965 4.06037 17.9349C3.98856 17.9049 3.92037 17.8681 3.85582 17.8245C3.79126 17.781 3.73157 17.7316 3.67674 17.6764C3.62191 17.621 3.57301 17.5609 3.53004 17.496C3.48705 17.4311 3.45081 17.3626 3.42132 17.2905C3.39183 17.2185 3.36966 17.1443 3.3548 17.0679C3.33994 16.9914 3.33268 16.9143 3.33302 16.8364C3.33336 16.7586 3.3413 16.6815 3.35682 16.6052C3.4397 16.2 3.53724 15.7984 3.64944 15.4003C3.76164 15.0022 3.88819 14.6087 4.0291 14.2199C4.17002 13.8311 4.32493 13.4479 4.4938 13.0703C4.66269 12.6928 4.84511 12.3219 5.04106 11.9577C5.23701 11.5935 5.44597 11.2369 5.66796 10.8879C5.88992 10.5389 6.12432 10.1985 6.37116 9.86664C6.61797 9.53477 6.87657 9.21234 7.14694 8.89936C7.41729 8.58636 7.69869 8.28364 7.99114 7.99121C8.28359 7.69874 8.58631 7.41734 8.89931 7.14699C9.21229 6.87662 9.53473 6.61802 9.86659 6.37121C10.1985 6.12437 10.5389 5.88997 10.8878 5.66801C11.2368 5.44602 11.5934 5.23706 11.9576 5.04111C12.3219 4.84516 12.6927 4.66274 13.0703 4.49385C13.4478 4.32497 13.831 4.17007 14.2199 4.02915C14.6087 3.88824 15.0021 3.76169 15.4002 3.64949C15.7983 3.5373 16.2 3.43976 16.6052 3.35687C16.6815 3.34131 16.7585 3.33336 16.8363 3.33302C16.9142 3.33267 16.9914 3.33994 17.0678 3.35482C17.1443 3.3697 17.2185 3.3919 17.2905 3.42144C17.3625 3.45097 17.4309 3.48726 17.4958 3.5303C17.5607 3.57335 17.6208 3.62231 17.676 3.6772C17.7312 3.7321 17.7805 3.79186 17.8238 3.85649C17.8673 3.92112 17.904 3.98937 17.934 4.06124C17.9639 4.1331 17.9865 4.2072 18.0018 4.28354ZM4.28349 21.9985C4.35971 21.983 4.43672 21.975 4.51452 21.9745C4.59232 21.9742 4.66941 21.9815 4.74579 21.9963C4.82216 22.0112 4.89636 22.0332 4.96837 22.0627C5.04037 22.0922 5.10881 22.1283 5.17367 22.1713C5.23854 22.2143 5.29857 22.2632 5.35381 22.318C5.40902 22.3728 5.45836 22.4325 5.50182 22.497C5.54527 22.5617 5.58201 22.6297 5.61202 22.7015C5.64202 22.7733 5.66474 22.8473 5.68016 22.9235C5.75156 23.272 5.83557 23.6175 5.93221 23.9598C6.02881 24.3023 6.13777 24.6407 6.25907 24.9752C6.38036 25.3097 6.51367 25.6392 6.65902 25.9638C6.80436 26.2885 6.96132 26.6075 7.12994 26.9208C7.29854 27.2342 7.47834 27.5408 7.66932 27.841C7.86029 28.1412 8.06196 28.434 8.27429 28.7193C8.48662 29.0048 8.70909 29.2822 8.94166 29.5513C9.17421 29.8205 9.41628 30.081 9.66784 30.3325C9.91939 30.5842 10.1798 30.8262 10.449 31.0587C10.7182 31.2913 10.9955 31.5137 11.281 31.726C11.5664 31.9383 11.8592 32.14 12.1594 32.331C12.4595 32.522 12.7662 32.7018 13.0795 32.8703C13.3928 33.039 13.7118 33.196 14.0365 33.3413C14.3612 33.4867 14.6908 33.62 15.0252 33.7413C15.3597 33.8625 15.6981 33.9715 16.0405 34.0682C16.3828 34.1648 16.7283 34.2487 17.0768 34.3202C17.1532 34.3357 17.2273 34.3583 17.2992 34.3883C17.371 34.4183 17.4393 34.4552 17.5038 34.4985C17.5685 34.5422 17.6283 34.5915 17.6832 34.6467C17.738 34.702 17.787 34.762 17.8302 34.8268C17.8732 34.8918 17.9094 34.9603 17.939 35.0323C17.9685 35.1045 17.9908 35.1788 18.0057 35.2552C18.0205 35.3317 18.0279 35.4088 18.0277 35.4867C18.0273 35.5645 18.0194 35.6417 18.004 35.718C17.9884 35.7943 17.9656 35.8683 17.9355 35.9402C17.9054 36.0122 17.8685 36.0803 17.825 36.1448C17.7815 36.2093 17.7322 36.2692 17.6768 36.3238C17.6215 36.3787 17.5613 36.4277 17.4963 36.4707C17.4314 36.5137 17.3629 36.5498 17.2908 36.5793C17.2187 36.6088 17.1444 36.631 17.068 36.6458C16.9915 36.6607 16.9144 36.6678 16.8365 36.6675C16.7586 36.6672 16.6815 36.659 16.6052 36.6435C16.2 36.5607 15.7984 36.463 15.4004 36.3508C15.0023 36.2387 14.6089 36.112 14.2201 35.971C13.8313 35.8302 13.4481 35.6752 13.0706 35.5063C12.6931 35.3373 12.3223 35.1548 11.9581 34.959C11.5939 34.763 11.2374 34.554 10.8885 34.332C10.5395 34.11 10.1992 33.8757 9.86734 33.6288C9.53551 33.382 9.21312 33.1233 8.90018 32.853C8.58722 32.5827 8.28454 32.3013 7.99214 32.0088C7.69971 31.7165 7.41834 31.4137 7.14804 31.1007C6.87771 30.7877 6.61916 30.4653 6.37237 30.1333C6.12557 29.8015 5.89121 29.4612 5.66927 29.1122C5.44731 28.7632 5.23837 28.4065 5.04246 28.0423C4.84653 27.6782 4.66414 27.3073 4.49529 26.9298C4.32643 26.5523 4.17156 26.1692 4.03067 25.7803C3.88977 25.3917 3.76323 24.9982 3.65105 24.6C3.53887 24.202 3.44135 23.8003 3.35849 23.3952C3.34303 23.319 3.33516 23.242 3.33487 23.1642C3.33457 23.0863 3.34186 23.0093 3.35674 22.933C3.37161 22.8567 3.39379 22.7825 3.42325 22.7105C3.45273 22.6387 3.48894 22.5702 3.53189 22.5053C3.57483 22.4407 3.62368 22.3805 3.67844 22.3253C3.7332 22.2702 3.79282 22.2208 3.8573 22.1772C3.92178 22.1337 3.98988 22.097 4.0616 22.0668C4.13331 22.0368 4.20728 22.014 4.28349 21.9985ZM21.9985 4.28354C22.0138 4.2072 22.0365 4.1331 22.0663 4.06124C22.0963 3.98937 22.133 3.92112 22.1765 3.85649C22.2198 3.79186 22.2692 3.7321 22.3243 3.6772C22.3795 3.62231 22.4397 3.57335 22.5045 3.5303C22.5693 3.48726 22.6378 3.45097 22.7098 3.42144C22.7818 3.3919 22.856 3.3697 22.9325 3.35482C23.009 3.33994 23.0862 3.33267 23.164 3.33302C23.2418 3.33336 23.3188 3.34131 23.3952 3.35687C23.8003 3.43975 24.202 3.53729 24.6002 3.64949C24.9982 3.76169 25.3917 3.88824 25.7805 4.02915C26.1693 4.17007 26.5525 4.32497 26.93 4.49385C27.3075 4.66274 27.6785 4.84516 28.0427 5.04111C28.4068 5.23706 28.7635 5.44602 29.1125 5.66801C29.4615 5.88997 29.8018 6.12437 30.1337 6.37121C30.4655 6.61802 30.788 6.87662 31.101 7.14699C31.414 7.41734 31.7167 7.69874 32.0092 7.99121C32.3017 8.28364 32.583 8.58636 32.8533 8.89936C33.1238 9.21234 33.3823 9.53477 33.6292 9.86664C33.876 10.1985 34.1103 10.5389 34.3323 10.8879C34.5543 11.2369 34.7633 11.5935 34.9593 11.9577C35.1552 12.3219 35.3377 12.6928 35.5065 13.0703C35.6753 13.4479 35.8303 13.8311 35.9712 14.2199C36.112 14.6087 36.2387 15.0022 36.3508 15.4003C36.463 15.7984 36.5607 16.2 36.6435 16.6052C36.659 16.6814 36.6668 16.7585 36.6672 16.8364C36.6675 16.9141 36.6602 16.9913 36.6453 17.0677C36.6305 17.1441 36.6082 17.2184 36.5787 17.2904C36.5492 17.3624 36.513 17.4308 36.47 17.4957C36.427 17.5606 36.3782 17.6206 36.3233 17.6759C36.2685 17.7311 36.2088 17.7805 36.1443 17.824C36.0798 17.8675 36.0117 17.9043 35.9398 17.9344C35.868 17.9645 35.7938 17.9873 35.7177 18.0027C35.6413 18.0181 35.5643 18.026 35.4865 18.0264C35.4087 18.0267 35.3317 18.0194 35.2552 18.0045C35.1787 17.9896 35.1045 17.9674 35.0325 17.9379C34.9605 17.9084 34.892 17.8722 34.8272 17.8292C34.7623 17.7862 34.7022 17.7373 34.647 17.6825C34.5917 17.6276 34.5423 17.568 34.4988 17.5035C34.4553 17.439 34.4187 17.3708 34.3885 17.299C34.3583 17.2271 34.3357 17.1531 34.3202 17.0769C34.2487 16.7283 34.1647 16.3829 34.0682 16.0405C33.9715 15.6981 33.8625 15.3597 33.7413 15.0253C33.62 14.6908 33.4867 14.3612 33.3413 14.0365C33.196 13.7118 33.039 13.3928 32.8703 13.0796C32.7018 12.7663 32.522 12.4596 32.331 12.1594C32.14 11.8593 31.9383 11.5665 31.726 11.281C31.5137 10.9956 31.2912 10.7183 31.0587 10.4491C30.8262 10.1798 30.584 9.91944 30.3325 9.66789C30.081 9.41632 29.8205 9.17426 29.5513 8.94169C29.2822 8.70912 29.0048 8.48667 28.7193 8.27434C28.4338 8.06201 28.1412 7.86034 27.841 7.66937C27.5408 7.47839 27.234 7.29859 26.9208 7.12999C26.6075 6.96137 26.2885 6.80441 25.9638 6.65907C25.6392 6.51372 25.3097 6.38041 24.9752 6.25912C24.6407 6.13782 24.3023 6.02886 23.9598 5.93226C23.6175 5.83562 23.272 5.75161 22.9235 5.68021C22.8473 5.66469 22.7733 5.64189 22.7017 5.61182C22.6298 5.58174 22.5618 5.54496 22.4973 5.50149C22.4328 5.45799 22.3733 5.40864 22.3185 5.35344C22.2637 5.29821 22.2148 5.23817 22.1718 5.17334C22.129 5.10851 22.0928 5.04009 22.0633 4.96812C22.0338 4.89615 22.0115 4.822 21.9967 4.74567C21.9818 4.66934 21.9747 4.59229 21.9748 4.51452C21.9752 4.43675 21.983 4.35976 21.9985 4.28354ZM35.7168 21.9985C35.7932 22.014 35.8672 22.0367 35.939 22.0667C36.0108 22.0967 36.079 22.1333 36.1435 22.1768C36.208 22.2203 36.2678 22.2697 36.3227 22.3248C36.3775 22.3802 36.4265 22.44 36.4695 22.5048C36.5125 22.5698 36.5488 22.6382 36.5783 22.7102C36.6078 22.7822 36.6302 22.8563 36.645 22.9327C36.66 23.0092 36.6673 23.0862 36.667 23.164C36.6668 23.2418 36.659 23.3188 36.6435 23.3952C36.5607 23.8003 36.463 24.202 36.3508 24.6C36.2387 24.9982 36.112 25.3917 35.9712 25.7805C35.8303 26.1693 35.6753 26.5525 35.5065 26.93C35.3377 27.3077 35.1552 27.6785 34.9593 28.0427C34.7633 28.4068 34.5543 28.7635 34.3323 29.1125C34.1103 29.4615 33.876 29.8018 33.6292 30.1337C33.3823 30.4657 33.1238 30.788 32.8533 31.101C32.583 31.414 32.3017 31.7168 32.0092 32.0092C31.7167 32.3017 31.414 32.583 31.101 32.8533C30.788 33.1238 30.4655 33.3823 30.1337 33.6292C29.8018 33.876 29.4615 34.1103 29.1125 34.3323C28.7635 34.5543 28.4068 34.7633 28.0427 34.9593C27.6785 35.1552 27.3075 35.3377 26.93 35.5065C26.5525 35.6755 26.1693 35.8303 25.7805 35.9712C25.3917 36.112 24.9982 36.2387 24.6002 36.3508C24.202 36.463 23.8003 36.5607 23.3952 36.6435C23.319 36.659 23.2418 36.6668 23.164 36.6672C23.0862 36.6675 23.0092 36.6602 22.9327 36.6453C22.8562 36.6305 22.782 36.6083 22.71 36.5787C22.638 36.5493 22.5695 36.513 22.5047 36.47C22.4398 36.427 22.3797 36.3782 22.3245 36.3233C22.2693 36.2685 22.2198 36.2088 22.1763 36.1443C22.1328 36.0798 22.0962 36.0117 22.066 35.9398C22.0358 35.868 22.0132 35.7938 21.9977 35.7177C21.9822 35.6415 21.9743 35.5645 21.974 35.4865C21.9737 35.4087 21.981 35.3317 21.9958 35.2552C22.0107 35.1788 22.033 35.1045 22.0625 35.0325C22.092 34.9605 22.1282 34.892 22.1712 34.8272C22.2142 34.7623 22.263 34.7023 22.3178 34.647C22.3727 34.5917 22.4323 34.5423 22.4968 34.4988C22.5613 34.4555 22.6295 34.4187 22.7013 34.3885C22.7732 34.3583 22.8473 34.3357 22.9235 34.3202C23.272 34.2487 23.6175 34.1648 23.9598 34.0682C24.3023 33.9715 24.6407 33.8625 24.9752 33.7413C25.3097 33.62 25.6392 33.4867 25.9638 33.3413C26.2885 33.196 26.6075 33.039 26.9208 32.8703C27.234 32.7018 27.5408 32.522 27.841 32.331C28.1412 32.14 28.4338 31.9383 28.7193 31.726C29.0048 31.5137 29.2822 31.2913 29.5513 31.0587C29.8205 30.8262 30.081 30.5842 30.3325 30.3325C30.584 30.081 30.8262 29.8205 31.0587 29.5513C31.2912 29.2822 31.5137 29.0048 31.726 28.7193C31.9383 28.434 32.14 28.1412 32.331 27.841C32.522 27.5408 32.7018 27.2342 32.8703 26.9208C33.039 26.6075 33.196 26.2885 33.3413 25.9638C33.4867 25.6392 33.62 25.3097 33.7413 24.9752C33.8625 24.6407 33.9715 24.3023 34.0682 23.9598C34.1647 23.6175 34.2487 23.272 34.3202 22.9235C34.3357 22.8473 34.3583 22.7733 34.3883 22.7015C34.4183 22.6297 34.455 22.5617 34.4985 22.497C34.542 22.4325 34.5913 22.3728 34.6465 22.318C34.7017 22.2632 34.7618 22.2143 34.8267 22.1713C34.8915 22.1283 34.96 22.0922 35.032 22.0627C35.104 22.0332 35.1782 22.0112 35.2545 21.9963C35.331 21.9815 35.408 21.9742 35.4858 21.9745C35.5637 21.975 35.6407 21.983 35.7168 21.9985Z" fill-rule="evenodd"  fill="currentColor" >
</path>
<path   fill-rule="evenodd"  fill="currentColor"  d="M19.9999 32.6385C20.2068 32.6385 20.4135 32.6335 20.6201 32.6233C20.8266 32.6132 21.0329 32.5978 21.2387 32.5777C21.4445 32.5573 21.6497 32.532 21.8544 32.5017C22.059 32.4713 22.2627 32.436 22.4656 32.3957C22.6684 32.3553 22.8701 32.31 23.0707 32.2597C23.2714 32.2095 23.4707 32.1543 23.6686 32.0943C23.8666 32.0341 24.0629 31.9693 24.2576 31.8997C24.4524 31.83 24.6452 31.7557 24.8364 31.6765C25.0276 31.5973 25.2166 31.5135 25.4034 31.425C25.5904 31.3367 25.7751 31.2437 25.9576 31.1462C26.1401 31.0487 26.3199 30.9468 26.4972 30.8405C26.6747 30.7342 26.8494 30.6235 27.0214 30.5085C27.1934 30.3937 27.3624 30.2745 27.5286 30.1513C27.6947 30.0282 27.8577 29.9008 28.0176 29.7697C28.1774 29.6385 28.3341 29.5033 28.4872 29.3645C28.6406 29.2257 28.7904 29.083 28.9366 28.9368C29.0827 28.7907 29.2254 28.6408 29.3642 28.4875C29.5031 28.3343 29.6382 28.1777 29.7694 28.0178C29.9006 27.858 30.0279 27.695 30.1511 27.5288C30.2742 27.3626 30.3934 27.1937 30.5082 27.0217C30.6232 26.8497 30.7339 26.675 30.8402 26.4975C30.9466 26.3202 31.0484 26.1403 31.1459 25.9578C31.2434 25.7753 31.3364 25.5907 31.4247 25.4037C31.5132 25.2168 31.5971 25.0278 31.6762 24.8367C31.7554 24.6455 31.8297 24.4527 31.8994 24.2578C31.9691 24.0632 32.0339 23.8668 32.0941 23.6688C32.1541 23.4709 32.2092 23.2717 32.2594 23.071C32.3097 22.8703 32.3551 22.6686 32.3954 22.4658C32.4357 22.2629 32.4711 22.0592 32.5014 21.8547C32.5317 21.65 32.5571 21.4448 32.5774 21.239C32.5976 21.0331 32.6129 20.8269 32.6231 20.6203C32.6332 20.4138 32.6382 20.207 32.6382 20.0002C32.6382 19.7933 32.6332 19.5865 32.6231 19.38C32.6129 19.1734 32.5976 18.9672 32.5774 18.7613C32.5571 18.5555 32.5317 18.3503 32.5014 18.1456C32.4711 17.9411 32.4357 17.7374 32.3954 17.5345C32.3551 17.3317 32.3097 17.13 32.2594 16.9293C32.2092 16.7287 32.1541 16.5294 32.0941 16.3314C32.0339 16.1335 31.9691 15.9372 31.8994 15.7424C31.8297 15.5477 31.7554 15.3547 31.6762 15.1637C31.5971 14.9726 31.5132 14.7836 31.4247 14.5966C31.3364 14.4096 31.2434 14.2249 31.1459 14.0425C31.0484 13.8601 30.9466 13.6802 30.8402 13.5028C30.7339 13.3253 30.6232 13.1507 30.5082 12.9787C30.3934 12.8067 30.2742 12.6376 30.1511 12.4715C30.0279 12.3054 29.9006 12.1424 29.7694 11.9825C29.6382 11.8226 29.5031 11.666 29.3642 11.5128C29.2254 11.3595 29.0827 11.2098 28.9366 11.0635C28.7904 10.9172 28.6406 10.7747 28.4872 10.6358C28.3341 10.4969 28.1774 10.3618 28.0176 10.2306C27.8577 10.0994 27.6947 9.97217 27.5286 9.84895C27.3624 9.72573 27.1934 9.60668 27.0214 9.49177C26.8494 9.37685 26.6747 9.26623 26.4972 9.15988C26.3199 9.05355 26.1401 8.95163 25.9576 8.85413C25.7751 8.75663 25.5904 8.66367 25.4034 8.57523C25.2166 8.4868 25.0276 8.403 24.8364 8.32385C24.6452 8.24469 24.4524 8.17028 24.2576 8.1006C24.0629 8.03092 23.8666 7.96606 23.6686 7.90602C23.4707 7.84597 23.2714 7.79082 23.0707 7.74057C22.8701 7.69031 22.6684 7.64501 22.4656 7.60467C22.2627 7.56431 22.059 7.52896 21.8544 7.4986C21.6497 7.46826 21.4445 7.44294 21.2387 7.42267C21.0329 7.4024 20.8266 7.38719 20.6201 7.37703C20.4135 7.36689 20.2068 7.36182 19.9999 7.36182C19.793 7.36182 19.5863 7.36689 19.3797 7.37703C19.1732 7.38719 18.967 7.4024 18.7611 7.42267C18.5553 7.44294 18.3501 7.46826 18.1454 7.4986C17.9409 7.52896 17.7371 7.56431 17.5342 7.60467C17.3315 7.64501 17.1297 7.69031 16.9291 7.74057C16.7284 7.79082 16.5291 7.84597 16.3312 7.90602C16.1333 7.96606 15.9369 8.03092 15.7422 8.1006C15.5474 8.17028 15.3545 8.24469 15.1634 8.32385C14.9723 8.403 14.7833 8.4868 14.5963 8.57523C14.4093 8.66367 14.2247 8.75663 14.0422 8.85413C13.8598 8.95163 13.6799 9.05355 13.5025 9.15988C13.3251 9.26623 13.1504 9.37685 12.9784 9.49177C12.8064 9.60668 12.6374 9.72573 12.4713 9.84895C12.3051 9.97217 12.1421 10.0994 11.9822 10.2306C11.8224 10.3618 11.6658 10.4969 11.5125 10.6358C11.3593 10.7747 11.2095 10.9172 11.0633 11.0635C10.917 11.2098 10.7744 11.3595 10.6355 11.5128C10.4966 11.666 10.3616 11.8226 10.2303 11.9825C10.0991 12.1424 9.97192 12.3054 9.84871 12.4715C9.72549 12.6376 9.60644 12.8067 9.49152 12.9787C9.37661 13.1507 9.26597 13.3253 9.15964 13.5028C9.05331 13.6802 8.95139 13.8601 8.85389 14.0425C8.75639 14.2249 8.66342 14.4096 8.57499 14.5966C8.48656 14.7836 8.40276 14.9726 8.32361 15.1637C8.24445 15.3547 8.17003 15.5477 8.10036 15.7424C8.03068 15.9372 7.96582 16.1335 7.90577 16.3314C7.84573 16.5294 7.79058 16.7287 7.74032 16.9293C7.69007 17.13 7.64476 17.3317 7.60441 17.5345C7.56406 17.7374 7.52871 17.9411 7.49836 18.1456C7.46801 18.3503 7.4427 18.5555 7.42242 18.7613C7.40216 18.9672 7.38694 19.1734 7.37679 19.38C7.36664 19.5865 7.36157 19.7933 7.36157 20.0002C7.36157 20.207 7.36664 20.4138 7.37679 20.6203C7.38694 20.8269 7.40216 21.0331 7.42242 21.239C7.4427 21.4448 7.46801 21.65 7.49836 21.8547C7.52871 22.0592 7.56406 22.2629 7.60441 22.4658C7.64476 22.6686 7.69007 22.8703 7.74032 23.071C7.79058 23.2717 7.84573 23.4709 7.90577 23.6688C7.96582 23.8668 8.03068 24.0632 8.10036 24.2578C8.17003 24.4527 8.24445 24.6455 8.32361 24.8367C8.40276 25.0278 8.48656 25.2168 8.57499 25.4037C8.66342 25.5907 8.75639 25.7753 8.85389 25.9578C8.95139 26.1403 9.05331 26.3202 9.15964 26.4975C9.26597 26.675 9.37661 26.8497 9.49152 27.0217C9.60644 27.1937 9.72549 27.3626 9.84871 27.5288C9.97192 27.695 10.0991 27.858 10.2303 28.0178C10.3616 28.1777 10.4966 28.3343 10.6355 28.4875C10.7744 28.6408 10.917 28.7907 11.0633 28.9368C11.2095 29.083 11.3593 29.2257 11.5125 29.3645C11.6658 29.5033 11.8224 29.6385 11.9822 29.7697C12.1421 29.9008 12.3051 30.0282 12.4713 30.1513C12.6374 30.2745 12.8064 30.3937 12.9784 30.5085C13.1504 30.6235 13.3251 30.7342 13.5025 30.8405C13.6799 30.9468 13.8598 31.0487 14.0422 31.1462C14.2247 31.2437 14.4093 31.3367 14.5963 31.425C14.7833 31.5135 14.9723 31.5973 15.1634 31.6765C15.3545 31.7557 15.5474 31.83 15.7422 31.8997C15.9369 31.9693 16.1333 32.0341 16.3312 32.0943C16.5291 32.1543 16.7284 32.2095 16.9291 32.2597C17.1297 32.31 17.3315 32.3553 17.5342 32.3957C17.7371 32.436 17.9409 32.4713 18.1454 32.5017C18.3501 32.532 18.5553 32.5573 18.7611 32.5777C18.967 32.5978 19.1732 32.6132 19.3797 32.6233C19.5863 32.6335 19.793 32.6385 19.9999 32.6385ZM14.8999 24.2318C14.9462 24.1692 14.9981 24.1117 15.0557 24.0592C15.1133 24.0068 15.1755 23.9606 15.2423 23.9205C15.309 23.8803 15.379 23.847 15.4523 23.8208C15.5257 23.7945 15.6008 23.7756 15.6779 23.7642C15.7549 23.7527 15.8323 23.7489 15.9101 23.7527C15.9879 23.7565 16.0645 23.7679 16.1401 23.7868C16.2156 23.8058 16.2886 23.832 16.359 23.8653C16.4293 23.8988 16.4958 23.9387 16.5582 23.9852C17.5416 24.7135 18.7249 25.1352 19.9999 25.1352C20.3082 25.1347 20.6145 25.1097 20.9187 25.06C21.2231 25.0102 21.5215 24.9365 21.8139 24.8388C22.1062 24.741 22.389 24.6207 22.6621 24.4775C22.9351 24.3343 23.1949 24.1702 23.4416 23.9852C23.504 23.9388 23.5704 23.899 23.6407 23.8658C23.7111 23.8327 23.784 23.8067 23.8594 23.7878C23.9349 23.7689 24.0114 23.7576 24.0891 23.7538C24.1667 23.75 24.2441 23.7539 24.3211 23.7653C24.3979 23.7768 24.4731 23.7957 24.5462 23.822C24.6194 23.8482 24.6892 23.8813 24.7561 23.9213C24.8227 23.9613 24.8849 24.0074 24.9424 24.0597C24.9999 24.112 25.0519 24.1693 25.0982 24.2318C25.1446 24.2943 25.1844 24.3607 25.2176 24.431C25.2507 24.5013 25.2767 24.5742 25.2956 24.6497C25.3144 24.7252 25.3257 24.8017 25.3296 24.8793C25.3334 24.957 25.3296 25.0343 25.3181 25.1113C25.3066 25.1882 25.2877 25.2633 25.2614 25.3365C25.2352 25.4097 25.2021 25.4795 25.1621 25.5463C25.1221 25.613 25.0759 25.6751 25.0237 25.7327C24.9714 25.7902 24.9141 25.8422 24.8516 25.8885C24.5036 26.1487 24.1371 26.3795 23.7521 26.5808C23.3671 26.7822 22.9685 26.9515 22.5564 27.0888C22.1442 27.2262 21.7237 27.3298 21.2949 27.3997C20.866 27.4695 20.4344 27.5047 19.9999 27.5052C19.5655 27.5047 19.1338 27.4697 18.7049 27.3998C18.276 27.33 17.8555 27.2265 17.4434 27.0892C17.0312 26.9518 16.6326 26.7825 16.2476 26.581C15.8626 26.3797 15.4961 26.1488 15.1482 25.8885C15.0858 25.8422 15.0284 25.7902 14.9762 25.7327C14.924 25.675 14.8779 25.6128 14.8379 25.5462C14.7979 25.4795 14.7648 25.4095 14.7386 25.3363C14.7124 25.2632 14.6935 25.188 14.6821 25.1112C14.6706 25.0343 14.6668 24.957 14.6705 24.8793C14.6743 24.8017 14.6856 24.7252 14.7044 24.6497C14.7233 24.5742 14.7493 24.5013 14.7824 24.431C14.8156 24.3608 14.8553 24.2943 14.9016 24.2318M25.5299 17.3335C25.5299 18.4802 24.9132 19.4085 24.1482 19.4085C23.3849 19.4085 22.7649 18.4802 22.7649 17.3335C22.7649 16.1885 23.3849 15.2601 24.1482 15.2601C24.9116 15.2601 25.5316 16.1885 25.5316 17.3335M15.8566 19.4085C16.6199 19.4085 17.2399 18.4802 17.2399 17.3335C17.2399 16.1885 16.6199 15.2601 15.8566 15.2601C15.0932 15.2601 14.4732 16.1885 14.4732 17.3335C14.4732 18.4802 15.0932 19.4085 15.8566 19.4085Z">
</path>
</svg>
