<svg xmlns="http://www.w3.org/2000/svg" xmlns:xlink="http://www.w3.org/1999/xlink" width="24" height="24" viewBox="0 0 64 64" fill="none">
<path d="M12.608 43.0319C8.48801 38.9092 6.42667 36.8505 5.66133 34.1759C4.89333 31.5013 5.54933 28.6613 6.86133 22.984L7.616 19.7093C8.71734 14.9307 9.26934 12.5413 10.904 10.904C12.5413 9.26934 14.9307 8.71734 19.7093 7.616L22.984 6.85866C28.664 5.54933 31.5013 4.89333 34.1761 5.65866C36.8508 6.42666 38.9094 8.48801 43.0294 12.608L47.9094 17.488C55.0854 24.6613 58.6668 28.2453 58.6668 32.6985C58.6668 37.1545 55.0828 40.7385 47.9121 47.9092C40.7388 55.0826 37.1548 58.6665 32.6988 58.6665C28.2453 58.6665 24.6587 55.0826 17.488 47.9119L12.608 43.0319Z" stroke="rgba(26, 26, 26, 1.00)" stroke-width="3"   >
</path>
<ellipse cx="20.742863994097256" cy="29.010667017648537" transform="rotate(-45 15.409530639648438 23.67733383178711)" rx="5.3333333544488175" ry="5.333333185861426" stroke="rgba(26, 26, 26, 1.00)" stroke-width="3"   >
</ellipse>
<path    stroke="rgba(26, 26, 26, 1.00)" stroke-width="3"  stroke-linecap="round"  d="M30.7787 49.3333L49.3893 30.72">
</path>
</svg>
