<svg xmlns="http://www.w3.org/2000/svg" xmlns:xlink="http://www.w3.org/1999/xlink" width="40" height="40" viewBox="0 0 64 64" fill="none">
<path   fill-rule="evenodd"  fill="currentColor"  d="M28.872 12.008C22.992 9.008 17.8827 8.40267 15.3573 10.9333C11.0107 15.28 15.928 27.2453 26.344 37.6587C36.7573 48.0721 48.7227 52.9921 53.0694 48.6454C55.5974 46.1174 54.9894 41.0107 51.9921 35.1333C51.4507 35.2267 50.8561 35.24 50.2134 35.1227C47.6934 34.6693 43.7201 32.7333 37.4933 26.5093C31.2693 20.2827 29.3333 16.3093 28.88 13.7893C28.771 13.1971 28.7675 12.6042 28.8693 12.0107M33.8827 33.888C33.8213 33.9515 33.757 34.0118 33.6896 34.0691C33.6222 34.1261 33.5523 34.1797 33.4797 34.2299C33.407 34.28 33.332 34.3265 33.2547 34.3693C33.1773 34.412 33.0981 34.4507 33.0171 34.4856C32.936 34.5205 32.8533 34.5512 32.7691 34.5779C32.685 34.6045 32.5997 34.6269 32.5131 34.6451C32.4267 34.6632 32.3397 34.6771 32.252 34.6867C32.1642 34.6961 32.0761 34.7013 31.9877 34.7021C31.8994 34.7029 31.8113 34.6992 31.7235 34.6912C31.6355 34.6832 31.5481 34.6709 31.4613 34.6541C31.3746 34.6376 31.2889 34.6167 31.2043 34.5915C31.1196 34.5662 31.0364 34.5369 30.9547 34.5035C30.8731 34.4701 30.7933 34.4326 30.7152 34.3912C30.6372 34.3499 30.5614 34.3049 30.488 34.256C30.4144 34.2071 30.3435 34.1547 30.2752 34.0987C30.2068 34.0427 30.1413 33.9835 30.0789 33.9211C30.0165 33.8587 29.9573 33.7933 29.9013 33.7248C29.8453 33.6565 29.7929 33.5857 29.744 33.5123C29.6951 33.4387 29.6501 33.3629 29.6088 33.2848C29.5674 33.2067 29.53 33.1269 29.4965 33.0453C29.4631 32.9635 29.4338 32.8803 29.4085 32.7957C29.3835 32.7111 29.3626 32.6254 29.3459 32.5387C29.3292 32.4519 29.3168 32.3645 29.3088 32.2765C29.3008 32.1887 29.2973 32.1006 29.2981 32.0123C29.2989 31.9239 29.3039 31.8359 29.3133 31.7483C29.3229 31.6605 29.3368 31.5733 29.3549 31.4869C29.3731 31.4005 29.3955 31.3152 29.4221 31.2309C29.4488 31.1467 29.4796 31.064 29.5144 30.9829C29.5493 30.9019 29.588 30.8227 29.6307 30.7453C29.6735 30.668 29.72 30.593 29.7701 30.5203C29.8203 30.4477 29.8739 30.3778 29.9309 30.3104C29.9882 30.243 30.0485 30.1787 30.112 30.1173C30.2366 29.997 30.3717 29.8899 30.5171 29.796C30.6623 29.7019 30.8154 29.6229 30.9763 29.5587C31.1372 29.4945 31.3027 29.4465 31.4728 29.4147C31.6429 29.3827 31.8146 29.3674 31.9877 29.3688C32.1609 29.3704 32.3323 29.3886 32.5019 29.4235C32.6715 29.4583 32.8361 29.5093 32.9957 29.5763C33.1554 29.6433 33.3071 29.725 33.4509 29.8213C33.5946 29.9179 33.7276 30.0274 33.8501 30.1499C33.9726 30.2723 34.0821 30.4054 34.1787 30.5491C34.275 30.6929 34.3567 30.8446 34.4237 31.0043C34.4908 31.1639 34.5417 31.3285 34.5765 31.4981C34.6114 31.6677 34.6296 31.8391 34.6312 32.0123C34.6326 32.1854 34.6173 32.3571 34.5853 32.5272C34.5535 32.6973 34.5055 32.8629 34.4413 33.0237C34.3772 33.1846 34.298 33.3378 34.204 33.4832C34.1101 33.6285 34.003 33.7634 33.8827 33.888ZM22.5707 22.5707C22.632 22.6342 22.6964 22.6945 22.7637 22.7516C22.831 22.8087 22.901 22.8624 22.9737 22.9126C23.0464 22.9627 23.1214 23.0092 23.1986 23.0519C23.2759 23.0946 23.3551 23.1334 23.4363 23.1683C23.5174 23.2031 23.6 23.2339 23.6842 23.2605C23.7684 23.2871 23.8538 23.3096 23.9402 23.3277C24.0266 23.3459 24.1137 23.3597 24.2015 23.3693C24.2892 23.3788 24.3773 23.3839 24.4656 23.3847C24.5539 23.3854 24.642 23.3818 24.73 23.3738C24.8179 23.3659 24.9052 23.3535 24.9919 23.3369C25.0787 23.3202 25.1643 23.2993 25.249 23.2741C25.3336 23.2489 25.4168 23.2196 25.4985 23.1862C25.5803 23.1527 25.6602 23.1153 25.7382 23.074C25.8162 23.0326 25.8919 22.9875 25.9655 22.9386C26.039 22.8897 26.1099 22.8372 26.1782 22.7813C26.2466 22.7254 26.3119 22.6662 26.3744 22.6037C26.4368 22.5413 26.496 22.4759 26.552 22.4076C26.6079 22.3393 26.6604 22.2683 26.7093 22.1948C26.7582 22.1213 26.8033 22.0455 26.8445 21.9675C26.886 21.8895 26.9234 21.8096 26.9568 21.7279C26.9902 21.6461 27.0196 21.563 27.0448 21.4783C27.07 21.3937 27.0909 21.308 27.1075 21.2213C27.1242 21.1346 27.1365 21.0472 27.1445 20.9593C27.1525 20.8714 27.1562 20.7832 27.1555 20.6949C27.1546 20.6066 27.1494 20.5186 27.14 20.4308C27.1304 20.343 27.1165 20.2559 27.0984 20.1695C27.0803 20.0831 27.0579 19.9978 27.0312 19.9136C27.0045 19.8294 26.9738 19.7467 26.9389 19.6656C26.9041 19.5844 26.8653 19.5053 26.8227 19.428C26.7798 19.3507 26.7333 19.2757 26.6832 19.203C26.6331 19.1304 26.5794 19.0604 26.5223 18.993C26.4652 18.9257 26.4049 18.8614 26.3413 18.8C26.2168 18.6797 26.0818 18.5726 25.9364 18.4786C25.791 18.3846 25.6379 18.3055 25.4771 18.2413C25.3163 18.1771 25.1507 18.1291 24.9806 18.0972C24.8104 18.0653 24.6387 18.05 24.4656 18.0515C24.2925 18.053 24.1211 18.0712 23.9515 18.1061C23.7819 18.141 23.6173 18.1919 23.4576 18.2589C23.2979 18.3258 23.1462 18.4076 23.0024 18.5041C22.8587 18.6006 22.7256 18.7101 22.6031 18.8325C22.4807 18.9549 22.3713 19.088 22.2747 19.2318C22.1782 19.3755 22.0965 19.5273 22.0295 19.6869C21.9626 19.8466 21.9117 20.0112 21.8768 20.1808C21.8419 20.3504 21.8237 20.5218 21.8222 20.6949C21.8207 20.8681 21.8359 21.0397 21.8678 21.2099C21.8998 21.3801 21.9478 21.5456 22.012 21.7064C22.0762 21.8672 22.1553 22.0203 22.2492 22.1657C22.3433 22.3111 22.4504 22.4461 22.5707 22.5707ZM45.2001 41.4267C45.1387 41.4902 45.0742 41.5505 45.007 41.6078C44.9395 41.6649 44.8697 41.7185 44.7971 41.7686C44.7243 41.8187 44.6494 41.8651 44.5721 41.9081C44.4947 41.9507 44.4155 41.9894 44.3345 42.0243C44.2534 42.059 44.1707 42.0899 44.0865 42.1166C44.0022 42.1433 43.9169 42.1657 43.8305 42.1838C43.7441 42.2019 43.6569 42.2158 43.5694 42.2254C43.4814 42.2347 43.3934 42.2398 43.3051 42.2409C43.2166 42.2414 43.1286 42.2379 43.0409 42.2299C42.9529 42.2219 42.8654 42.2094 42.7787 42.1929C42.6918 42.1763 42.6062 42.1553 42.5217 42.1302C42.4369 42.1049 42.3537 42.0755 42.2721 42.0422C42.1905 42.0086 42.1105 41.9713 42.0326 41.9299C41.9545 41.8886 41.8787 41.8435 41.8054 41.7947C41.7318 41.7457 41.6609 41.6934 41.5926 41.6374C41.5241 41.5814 41.4587 41.5222 41.3963 41.4598C41.3339 41.3974 41.2747 41.3318 41.2187 41.2635C41.1627 41.1953 41.1102 41.1243 41.0614 41.051C41.0123 40.9774 40.9673 40.9014 40.9262 40.8235C40.8846 40.7454 40.8473 40.6657 40.8139 40.5841C40.7803 40.5022 40.751 40.419 40.7259 40.3345C40.7009 40.2497 40.6798 40.1641 40.6633 40.0774C40.6465 39.9905 40.6342 39.9033 40.6262 39.8153C40.6182 39.7273 40.6145 39.6393 40.6155 39.551C40.6161 39.4625 40.6211 39.3745 40.6307 39.2867C40.6403 39.199 40.6542 39.1121 40.6723 39.0257C40.6905 38.939 40.7129 38.8537 40.7395 38.7697C40.7662 38.6854 40.7969 38.6027 40.8318 38.5217C40.8665 38.4406 40.9054 38.3614 40.9481 38.2841C40.9907 38.2067 41.0374 38.1315 41.0875 38.059C41.1377 37.9865 41.1913 37.9163 41.2483 37.8491C41.3054 37.7817 41.3659 37.7174 41.4294 37.6561C41.5539 37.5355 41.6889 37.4286 41.8342 37.3347C41.9795 37.2406 42.1326 37.1614 42.2937 37.0974C42.4545 37.0331 42.6201 36.9851 42.7902 36.9534C42.9603 36.9214 43.1318 36.9059 43.3051 36.9075C43.4782 36.9091 43.6497 36.9273 43.8193 36.9622C43.9889 36.9969 44.1534 37.0478 44.3131 37.115C44.4726 37.1819 44.6243 37.2635 44.7683 37.3601C44.9118 37.4566 45.0449 37.5659 45.1675 37.6886C45.2899 37.811 45.3995 37.9441 45.4961 38.0878C45.5923 38.2315 45.6739 38.3833 45.7411 38.543C45.8081 38.7025 45.859 38.8673 45.8939 39.0369C45.9286 39.2065 45.947 39.3777 45.9486 39.551C45.9499 39.7241 45.9347 39.8958 45.9027 40.0659C45.8707 40.2361 45.8227 40.4014 45.7587 40.5625C45.6945 40.7233 45.6153 40.8763 45.5214 41.0219C45.4275 41.167 45.3203 41.3019 45.2001 41.4267Z">
</path>
<path     fill="currentColor"  d="M32.8052 12.7733C33.1052 12.584 33.4124 12.4077 33.7271 12.2443C34.0418 12.0809 34.3629 11.931 34.69 11.7947C35.0175 11.6584 35.3501 11.5361 35.6876 11.4278C36.0252 11.3195 36.3668 11.2256 36.7124 11.1462C37.058 11.0667 37.4066 11.0019 37.7575 10.9518C38.1084 10.9017 38.461 10.8665 38.8151 10.8461C39.1693 10.8258 39.5234 10.8203 39.8778 10.8299C40.2324 10.8394 40.5858 10.8638 40.938 10.9031C41.2906 10.9424 41.6407 10.9965 41.9884 11.0654C42.3364 11.1342 42.6807 11.2176 43.0215 11.3155C43.3623 11.4134 43.6986 11.5255 44.0298 11.6517C44.3613 11.778 44.6866 11.9179 45.0061 12.0716C45.3258 12.2253 45.6383 12.3921 45.9436 12.5722C46.2492 12.7522 46.5466 12.9448 46.8357 13.15C47.125 13.3551 47.4053 13.572 47.6762 13.8008C47.9471 14.0295 48.2079 14.2692 48.4586 14.52L49.4826 15.5413C49.7332 15.7921 49.973 16.053 50.2018 16.324C50.4306 16.5949 50.6474 16.8751 50.8522 17.1644C51.0575 17.4536 51.25 17.751 51.4298 18.0565C51.6101 18.362 51.7767 18.6746 51.9303 18.9942C52.0839 19.3138 52.2239 19.6392 52.3501 19.9706C52.4765 20.302 52.5885 20.6381 52.6861 20.9789C52.7839 21.3197 52.8671 21.6641 52.9359 22.012C53.0047 22.3598 53.0588 22.7099 53.098 23.0624C53.1375 23.4148 53.1618 23.7682 53.1711 24.1227C53.1807 24.4771 53.1751 24.8313 53.1546 25.1853C53.1343 25.5393 53.0991 25.8919 53.049 26.2429C52.9989 26.5939 52.9338 26.9421 52.8543 27.2877C52.7748 27.6333 52.681 27.9749 52.5725 28.3125C52.4642 28.6501 52.3421 28.9826 52.2055 29.3099C52.0693 29.6373 51.9194 29.9584 51.7556 30.2731C51.5924 30.5877 51.4159 30.8949 51.2266 31.1947C51.1239 31.2053 51.0218 31.2018 50.9199 31.184C49.5973 30.944 46.3386 29.6907 40.3226 23.6773C34.3092 17.6613 33.0559 14.4053 32.8159 13.08C32.798 12.9783 32.7946 12.8761 32.8052 12.7733ZM12.8027 31.384C12.8859 31.2825 12.9584 31.1738 13.0203 31.0579C13.0821 30.942 13.132 30.8212 13.1701 30.6955C13.2081 30.5698 13.2335 30.4416 13.2463 30.3109C13.2592 30.1803 13.2591 30.0496 13.2462 29.9189C13.2333 29.7883 13.2077 29.6601 13.1696 29.5344C13.1314 29.4089 13.0814 29.2882 13.0195 29.1723C12.9575 29.0565 12.8849 28.9479 12.8016 28.8464C12.7183 28.7449 12.6259 28.6524 12.5244 28.5691C12.4229 28.4859 12.3142 28.4133 12.1984 28.3515C12.0826 28.2894 11.9619 28.2394 11.8362 28.2013C11.7106 28.1631 11.5824 28.1376 11.4518 28.1248C11.3211 28.1118 11.1904 28.1117 11.0597 28.1245C10.929 28.1373 10.8008 28.1628 10.6752 28.2008C10.5495 28.2388 10.4287 28.2888 10.3129 28.3507C10.197 28.4125 10.0883 28.4851 9.98677 28.5683C9.88522 28.6515 9.79274 28.7438 9.70935 28.8453L3.78936 36.064C3.70811 36.1657 3.63747 36.2743 3.57741 36.3899C3.51736 36.5054 3.46905 36.6256 3.43248 36.7504C3.39591 36.8754 3.37177 37.0027 3.36005 37.1323C3.34834 37.262 3.34927 37.3916 3.36285 37.521C3.37643 37.6504 3.40242 37.7773 3.4408 37.9019C3.47916 38.0264 3.5292 38.1459 3.59091 38.2603C3.65261 38.3749 3.72482 38.4827 3.80752 38.5832C3.89024 38.6837 3.98189 38.7752 4.08248 38.8578C4.18308 38.9405 4.29072 39.0125 4.40539 39.0741C4.52007 39.1357 4.63963 39.1859 4.76405 39.224C4.88848 39.2621 5.01543 39.288 5.14491 39.3016C5.2744 39.3152 5.40396 39.316 5.5336 39.304C5.66323 39.2923 5.79051 39.268 5.91541 39.2312C6.04031 39.1947 6.1605 39.1461 6.27594 39.0861C6.39141 39.0261 6.49997 38.9552 6.60159 38.8739C6.70325 38.7925 6.79605 38.7021 6.88002 38.6027L12.8027 31.384ZM22.1014 44.728C22.1915 44.6344 22.2718 44.5333 22.3423 44.4243C22.4127 44.3152 22.472 44.2003 22.5201 44.0797C22.5682 43.9589 22.6041 43.8349 22.628 43.7072C22.6519 43.5795 22.6632 43.4509 22.662 43.3211C22.6609 43.1912 22.6471 43.0627 22.6209 42.9355C22.5947 42.8083 22.5564 42.6848 22.5062 42.5651C22.4559 42.4453 22.3946 42.3315 22.3221 42.2237C22.2497 42.116 22.1676 42.0163 22.0757 41.9243C21.9838 41.8325 21.884 41.7504 21.7761 41.6781C21.6683 41.6059 21.5544 41.5445 21.4347 41.4944C21.3149 41.4443 21.1914 41.4061 21.0642 41.38C20.937 41.3539 20.8084 41.3403 20.6786 41.3392C20.5487 41.3381 20.42 41.3496 20.2923 41.3739C20.1647 41.3979 20.0406 41.4339 19.92 41.4821C19.7995 41.5304 19.6846 41.5896 19.5756 41.66C19.4666 41.7307 19.3654 41.8109 19.272 41.9013L8.28269 52.888C8.19245 52.9813 8.11202 53.0824 8.04146 53.1915C7.9709 53.3005 7.91154 53.4155 7.86335 53.536C7.81517 53.6565 7.77906 53.7805 7.75503 53.9083C7.73103 54.036 7.71954 54.1648 7.72061 54.2947C7.72167 54.4245 7.73527 54.5531 7.76135 54.6803C7.78746 54.8075 7.82559 54.9309 7.87575 55.0507C7.92591 55.1704 7.98717 55.2843 8.05949 55.3923C8.13181 55.5 8.21386 55.5997 8.30565 55.6917C8.39743 55.7837 8.49722 55.8659 8.60501 55.9381C8.71279 56.0107 8.82658 56.072 8.94631 56.1221C9.06605 56.1725 9.18951 56.2107 9.31669 56.2371C9.44389 56.2632 9.57242 56.2768 9.70226 56.2781C9.83213 56.2795 9.9609 56.268 10.0885 56.244C10.2162 56.2203 10.3403 56.1843 10.461 56.136C10.5816 56.088 10.6965 56.0288 10.8055 55.9584C10.9147 55.8877 11.0159 55.8075 11.1094 55.7173L22.1014 44.728ZM35.4319 51.4747C35.5151 51.5763 35.5877 51.6848 35.6495 51.8005C35.7114 51.9163 35.7612 52.0371 35.7991 52.1627C35.8372 52.2883 35.8629 52.4163 35.8756 52.5469C35.8885 52.6776 35.8885 52.8083 35.8754 52.9387C35.8626 53.0693 35.8372 53.1973 35.7991 53.3229C35.761 53.4485 35.7111 53.5693 35.6493 53.6851C35.5874 53.8008 35.5149 53.9093 35.4316 54.0109C35.3484 54.1123 35.2559 54.2045 35.1546 54.288L27.936 60.2107C27.8345 60.2941 27.7258 60.3667 27.6099 60.4285C27.494 60.4907 27.3732 60.5405 27.2475 60.5787C27.1218 60.6168 26.9936 60.6424 26.863 60.6552C26.7321 60.668 26.6013 60.668 26.4706 60.6552C26.3399 60.6424 26.2116 60.6168 26.0859 60.5787C25.9602 60.5405 25.8394 60.4907 25.7235 60.4285C25.6076 60.3667 25.4989 60.2941 25.3974 60.2107C25.2958 60.1272 25.2034 60.0349 25.12 59.9333C25.0367 59.8317 24.964 59.7232 24.9021 59.6072C24.8402 59.4912 24.7902 59.3704 24.752 59.2448C24.7139 59.1192 24.6884 58.9909 24.6755 58.86C24.6626 58.7293 24.6626 58.5987 24.6755 58.468C24.6884 58.3371 24.7139 58.2088 24.752 58.0832C24.7901 57.9576 24.8402 57.8368 24.9021 57.7208C24.964 57.6048 25.0367 57.4963 25.12 57.3947C25.2034 57.2931 25.2958 57.2008 25.3974 57.1173L32.6159 51.1973C32.7175 51.1139 32.826 51.0411 32.9418 50.9789C33.0575 50.9168 33.1783 50.8667 33.3039 50.8285C33.4298 50.7904 33.558 50.7645 33.6887 50.7515C33.8194 50.7384 33.9501 50.7384 34.0807 50.7512C34.2116 50.764 34.3399 50.7893 34.4655 50.8275C34.5914 50.8656 34.7124 50.9155 34.8282 50.9771C34.9442 51.0389 35.053 51.1115 35.1543 51.1949C35.2562 51.2781 35.3487 51.3704 35.4319 51.472">
</path>
</svg>
