<svg xmlns="http://www.w3.org/2000/svg" xmlns:xlink="http://www.w3.org/1999/xlink" width="80.5" height="30" viewBox="0 0 80.5 30" fill="none">
<g >
<path     fill="#FFFFFF"  d="M37.96 10.6L42.216 10.6Q44.856 10.6 46.232 12.088Q47.608 13.576 47.608 16.216Q47.608 18.952 46.232 20.376Q44.856 21.8 42.152 21.8L37.96 21.8L37.96 10.6ZM42.248 19.816Q42.92 19.816 43.528 19.384Q44.136 18.952 44.512 18.136Q44.888 17.32 44.888 16.232Q44.888 15.192 44.528 14.368Q44.168 13.544 43.56 13.064Q42.952 12.584 42.248 12.584L40.6 12.584L40.6 19.816L42.248 19.816ZM49.256 10.6L51.896 10.6L51.896 21.8L49.256 21.8L49.256 10.6ZM53.064 10.6L55.976 10.6L58.056 14.84L58.12 14.84L60.2 10.6L63.112 10.6L59.416 17.256L59.416 21.8L56.776 21.8L56.776 17.288L53.064 10.6Z">
</path>
</g>
<path    stroke="rgba(255, 255, 255, 1)" stroke-width="1"    d="M80 0L80 28">
</path>
<path d="M13.2211 10.88C14.0124 9.46 14.4086 8.75 14.9999 8.75C15.5912 8.75 15.9874 9.46 16.7786 10.88L16.9837 11.2475C17.2086 11.6512 17.3211 11.8525 17.4962 11.985C17.6712 12.1188 17.8911 12.1688 18.3274 12.2675L18.7249 12.3575C20.2624 12.705 21.0312 12.8787 21.2136 13.4675C21.3974 14.055 20.8724 14.6675 19.8249 15.8938L19.5536 16.2113C19.2561 16.5588 19.1074 16.7338 19.0411 16.9487C18.9724 17.1637 18.9949 17.3963 19.0411 17.8613L19.0812 18.2838C19.2399 19.9188 19.3186 20.7363 18.8399 21.1C18.3611 21.4625 17.6424 21.1325 16.2024 20.47L15.8299 20.2975C15.4212 20.11 15.2174 20.015 14.9999 20.015C14.7836 20.015 14.5786 20.11 14.1699 20.2975L13.7974 20.47C12.3574 21.1325 11.6386 21.4638 11.1599 21.1C10.6812 20.7375 10.7599 19.9188 10.9186 18.2838L10.9586 17.8613C11.0049 17.3963 11.0274 17.1637 10.9586 16.9487C10.8924 16.7338 10.7437 16.5588 10.4461 16.2113L10.1749 15.8938C9.1274 14.6688 8.6024 14.0563 8.78615 13.4675C8.96865 12.88 9.73615 12.705 11.2737 12.3575L11.6724 12.2675C12.1099 12.1675 12.3274 12.1188 12.5036 11.9862C12.6786 11.8525 12.7911 11.6512 13.0161 11.2488L13.2211 10.88Z"   fill="#FFFFFF" >
</path>
<path   fill-rule="evenodd"  fill="#FFFFFF"  d="M15 1.5625C15.0616 1.5625 15.1225 1.5685 15.1829 1.58051C15.2432 1.59252 15.3019 1.6103 15.3588 1.63386C15.4156 1.65742 15.4698 1.6863 15.5209 1.7205C15.572 1.7547 15.6194 1.79356 15.6629 1.83709C15.7065 1.88061 15.7454 1.92797 15.7795 1.97915C15.8136 2.03033 15.8425 2.08436 15.8661 2.14124C15.8897 2.1981 15.9075 2.25672 15.9195 2.3171C15.9315 2.37747 15.9375 2.43844 15.9375 2.5L15.9375 5C15.9375 5.06156 15.9315 5.12252 15.9195 5.1829C15.9075 5.24327 15.8897 5.3019 15.8661 5.35876C15.8425 5.41564 15.8136 5.46966 15.7795 5.52085C15.7454 5.57204 15.7065 5.61939 15.6629 5.66291C15.6194 5.70644 15.572 5.7453 15.5209 5.7795C15.4698 5.8137 15.4156 5.84257 15.3588 5.86614C15.3019 5.8897 15.2432 5.90747 15.1829 5.91949C15.1225 5.9315 15.0616 5.9375 15 5.9375C14.9384 5.9375 14.8775 5.9315 14.8171 5.91949C14.7568 5.90747 14.6981 5.8897 14.6412 5.86614C14.5844 5.84257 14.5302 5.8137 14.4791 5.7795C14.428 5.7453 14.3806 5.70644 14.3371 5.66291C14.2935 5.61939 14.2546 5.57204 14.2205 5.52085C14.1864 5.46966 14.1575 5.41564 14.1339 5.35876C14.1102 5.3019 14.0925 5.24327 14.0805 5.1829C14.0685 5.12252 14.0625 5.06156 14.0625 5L14.0625 2.5C14.0625 2.43844 14.0685 2.37747 14.0805 2.3171C14.0925 2.25672 14.1102 2.1981 14.1339 2.14124C14.1575 2.08436 14.1864 2.03033 14.2205 1.97915C14.2546 1.92797 14.2935 1.88061 14.3371 1.83709C14.3806 1.79356 14.428 1.7547 14.4791 1.7205C14.5302 1.6863 14.5844 1.65742 14.6412 1.63386C14.6981 1.6103 14.7568 1.59252 14.8171 1.58051C14.8775 1.5685 14.9384 1.5625 15 1.5625ZM23.1625 6.8375C23.206 6.88101 23.2447 6.92835 23.2789 6.97951C23.313 7.03067 23.3419 7.08466 23.3654 7.1415C23.389 7.19834 23.4067 7.25691 23.4188 7.31725C23.4306 7.37757 23.4366 7.43849 23.4366 7.5C23.4366 7.56151 23.4306 7.62242 23.4188 7.68275C23.4067 7.74309 23.389 7.80166 23.3654 7.8585C23.3419 7.91534 23.313 7.96932 23.2789 8.02048C23.2447 8.07165 23.206 8.11899 23.1625 8.1625L22.7337 8.59125C22.6898 8.63226 22.6423 8.66871 22.5911 8.70057C22.5401 8.73244 22.4865 8.75914 22.4304 8.78069C22.3743 8.80222 22.3165 8.81821 22.2572 8.82865C22.198 8.83908 22.1383 8.84376 22.0781 8.8427C22.018 8.84163 21.9585 8.83485 21.8996 8.82234C21.8407 8.80982 21.7836 8.7918 21.7283 8.76829C21.6729 8.74477 21.6203 8.71618 21.5704 8.68255C21.5205 8.6489 21.4743 8.6108 21.4317 8.56826C21.3891 8.52572 21.3511 8.47951 21.3175 8.42964C21.2839 8.37976 21.2552 8.32714 21.2318 8.27175C21.2083 8.21636 21.1903 8.15925 21.1776 8.1004C21.1651 8.04156 21.1584 7.98206 21.1572 7.9219C21.1562 7.86174 21.161 7.80204 21.1714 7.74279C21.1817 7.68352 21.1978 7.62581 21.2194 7.56964C21.2409 7.51346 21.2675 7.45986 21.2994 7.40882C21.3312 7.35779 21.3678 7.31026 21.4088 7.26625L21.8375 6.8375C21.881 6.79404 21.9284 6.75522 21.9795 6.72107C22.0306 6.68694 22.0846 6.6581 22.1415 6.63457C22.1984 6.61106 22.2569 6.5933 22.3172 6.58131C22.3776 6.56932 22.4385 6.56332 22.5 6.56332C22.5615 6.56332 22.6224 6.56932 22.6828 6.58131C22.7431 6.5933 22.8016 6.61106 22.8585 6.63457C22.9154 6.6581 22.9694 6.68694 23.0205 6.72107C23.0716 6.75522 23.119 6.79404 23.1625 6.8375ZM6.8375 6.8375C6.88101 6.79404 6.92835 6.75522 6.97951 6.72107C7.03067 6.68694 7.08466 6.6581 7.1415 6.63457C7.19834 6.61106 7.25691 6.5933 7.31725 6.58131C7.37757 6.56932 7.43849 6.56332 7.5 6.56332C7.56151 6.56332 7.62243 6.56932 7.68275 6.58131C7.74309 6.5933 7.80166 6.61106 7.8585 6.63457C7.91534 6.6581 7.96933 6.68694 8.02049 6.72107C8.07165 6.75522 8.11899 6.79404 8.1625 6.8375L8.5925 7.26625C8.63476 7.31006 8.67241 7.35752 8.70544 7.40866C8.73845 7.4598 8.76622 7.51364 8.78876 7.57019C8.8113 7.62674 8.82816 7.68492 8.83936 7.74476C8.85055 7.8046 8.85588 7.86495 8.85532 7.92581C8.85476 7.98667 8.84834 8.04692 8.83605 8.10653C8.82375 8.16616 8.80582 8.22404 8.78226 8.28016C8.7587 8.33628 8.72994 8.38961 8.69597 8.44012C8.66203 8.49065 8.62353 8.53742 8.58046 8.58045C8.5374 8.62347 8.49059 8.66194 8.44003 8.69584C8.38947 8.72975 8.33612 8.75845 8.27997 8.78196C8.22383 8.80547 8.16594 8.82335 8.10631 8.83558C8.04667 8.84782 7.98642 8.85419 7.92556 8.85468C7.8647 8.85518 7.80435 8.84981 7.74452 8.83856C7.6847 8.8273 7.62652 8.81038 7.57 8.7878C7.51347 8.76521 7.45966 8.73738 7.40855 8.70431C7.35745 8.67125 7.31001 8.63356 7.26625 8.59125L6.8375 8.1625C6.79404 8.11899 6.75523 8.07165 6.72108 8.02048C6.68694 7.96932 6.6581 7.91534 6.63457 7.8585C6.61106 7.80166 6.5933 7.74309 6.58131 7.68275C6.56932 7.62242 6.56332 7.56151 6.56332 7.5C6.56332 7.43849 6.56932 7.37757 6.58131 7.31725C6.5933 7.25691 6.61106 7.19834 6.63457 7.1415C6.6581 7.08466 6.68694 7.03067 6.72108 6.97951C6.75523 6.92835 6.79404 6.88101 6.8375 6.8375ZM1.5625 15C1.5625 14.9384 1.5685 14.8775 1.58051 14.8171C1.59252 14.7567 1.6103 14.6981 1.63386 14.6412C1.65742 14.5844 1.6863 14.5302 1.7205 14.4791C1.7547 14.428 1.79356 14.3806 1.83709 14.3371C1.88061 14.2935 1.92797 14.2546 1.97915 14.2205C2.03033 14.1864 2.08436 14.1575 2.14124 14.1339C2.1981 14.1102 2.25673 14.0925 2.3171 14.0805C2.37748 14.0685 2.43844 14.0625 2.5 14.0625L5 14.0625C5.06156 14.0625 5.12253 14.0685 5.1829 14.0805C5.24327 14.0925 5.3019 14.1102 5.35876 14.1339C5.41564 14.1575 5.46966 14.1864 5.52085 14.2205C5.57204 14.2546 5.61939 14.2935 5.66291 14.3371C5.70644 14.3806 5.7453 14.428 5.7795 14.4791C5.8137 14.5302 5.84258 14.5844 5.86614 14.6412C5.8897 14.6981 5.90747 14.7567 5.91949 14.8171C5.9315 14.8775 5.9375 14.9384 5.9375 15C5.9375 15.0616 5.9315 15.1225 5.91949 15.1829C5.90747 15.2432 5.8897 15.3019 5.86614 15.3587C5.84258 15.4156 5.8137 15.4697 5.7795 15.5209C5.7453 15.572 5.70644 15.6194 5.66291 15.6629C5.61939 15.7065 5.57204 15.7454 5.52085 15.7795C5.46966 15.8136 5.41564 15.8425 5.35876 15.8661C5.3019 15.8897 5.24327 15.9075 5.1829 15.9195C5.12253 15.9315 5.06156 15.9375 5 15.9375L2.5 15.9375C2.43844 15.9375 2.37748 15.9315 2.3171 15.9195C2.25673 15.9075 2.1981 15.8897 2.14124 15.8661C2.08436 15.8425 2.03033 15.8136 1.97915 15.7795C1.92797 15.7454 1.88061 15.7065 1.83709 15.6629C1.79356 15.6194 1.7547 15.572 1.7205 15.5209C1.6863 15.4697 1.65742 15.4156 1.63386 15.3587C1.6103 15.3019 1.59252 15.2432 1.58051 15.1829C1.5685 15.1225 1.5625 15.0616 1.5625 15ZM24.0625 15C24.0625 14.9384 24.0685 14.8775 24.0805 14.8171C24.0925 14.7567 24.1103 14.6981 24.1339 14.6412C24.1575 14.5844 24.1864 14.5302 24.2205 14.4791C24.2546 14.428 24.2935 14.3806 24.3371 14.3371C24.3806 14.2935 24.428 14.2546 24.4791 14.2205C24.5303 14.1864 24.5844 14.1575 24.6413 14.1339C24.6981 14.1102 24.7568 14.0925 24.8171 14.0805C24.8775 14.0685 24.9384 14.0625 25 14.0625L27.5 14.0625C27.5616 14.0625 27.6225 14.0685 27.6829 14.0805C27.7432 14.0925 27.8019 14.1102 27.8587 14.1339C27.9156 14.1575 27.9697 14.1864 28.0209 14.2205C28.072 14.2546 28.1194 14.2935 28.1629 14.3371C28.2065 14.3806 28.2454 14.428 28.2795 14.4791C28.3136 14.5302 28.3425 14.5844 28.3661 14.6412C28.3897 14.6981 28.4075 14.7567 28.4195 14.8171C28.4315 14.8775 28.4375 14.9384 28.4375 15C28.4375 15.0616 28.4315 15.1225 28.4195 15.1829C28.4075 15.2432 28.3897 15.3019 28.3661 15.3587C28.3425 15.4156 28.3136 15.4697 28.2795 15.5209C28.2454 15.572 28.2065 15.6194 28.1629 15.6629C28.1194 15.7065 28.072 15.7454 28.0209 15.7795C27.9697 15.8136 27.9156 15.8425 27.8587 15.8661C27.8019 15.8897 27.7432 15.9075 27.6829 15.9195C27.6225 15.9315 27.5616 15.9375 27.5 15.9375L25 15.9375C24.9384 15.9375 24.8775 15.9315 24.8171 15.9195C24.7568 15.9075 24.6981 15.8897 24.6413 15.8661C24.5844 15.8425 24.5303 15.8136 24.4791 15.7795C24.428 15.7454 24.3806 15.7065 24.3371 15.6629C24.2935 15.6194 24.2546 15.572 24.2205 15.5209C24.1864 15.4697 24.1575 15.4156 24.1339 15.3587C24.1103 15.3019 24.0925 15.2432 24.0805 15.1829C24.0685 15.1225 24.0625 15.0616 24.0625 15ZM8.59125 21.4087C8.63471 21.4522 8.67352 21.4996 8.70767 21.5507C8.74181 21.6019 8.77065 21.6559 8.79418 21.7127C8.81769 21.7696 8.83545 21.8281 8.84744 21.8885C8.85942 21.9489 8.86543 22.0097 8.86543 22.0712C8.86543 22.1327 8.85942 22.1936 8.84744 22.254C8.83545 22.3144 8.81769 22.3729 8.79418 22.4297C8.77065 22.4866 8.74181 22.5406 8.70767 22.5917C8.67352 22.6429 8.63471 22.6902 8.59125 22.7337L8.1625 23.1625C8.11849 23.2035 8.07096 23.24 8.01993 23.2719C7.96889 23.3037 7.91529 23.3304 7.85911 23.352C7.80294 23.3735 7.74522 23.3895 7.68596 23.3999C7.62671 23.4104 7.56701 23.4151 7.50685 23.414C7.44669 23.4129 7.38719 23.4061 7.32834 23.3936C7.26949 23.3811 7.21238 23.3631 7.15699 23.3395C7.10161 23.316 7.04899 23.2875 6.9991 23.2539C6.94922 23.2202 6.90301 23.1821 6.86048 23.1395C6.81794 23.097 6.77984 23.0507 6.74619 23.0009C6.71254 22.951 6.68396 22.8984 6.66045 22.843C6.63694 22.7876 6.61891 22.7305 6.6064 22.6716C6.59389 22.6127 6.58709 22.5532 6.58602 22.4931C6.58496 22.433 6.58965 22.3732 6.60009 22.314C6.61053 22.2547 6.62651 22.197 6.64806 22.1409C6.6696 22.0847 6.69631 22.0311 6.72818 21.9801C6.76004 21.929 6.79649 21.8815 6.8375 21.8375L7.26625 21.4087C7.30976 21.3652 7.3571 21.3265 7.40826 21.2924C7.45942 21.2582 7.51341 21.2294 7.57025 21.2059C7.62709 21.1822 7.68566 21.1645 7.746 21.1525C7.80632 21.1406 7.86724 21.1346 7.92875 21.1346C7.99026 21.1346 8.05118 21.1406 8.1115 21.1525C8.17184 21.1645 8.23041 21.1822 8.28725 21.2059C8.34409 21.2294 8.39808 21.2582 8.44924 21.2924C8.5004 21.3265 8.54774 21.3652 8.59125 21.4087ZM21.4075 21.4087C21.451 21.3651 21.4984 21.3262 21.5496 21.2921C21.6007 21.2579 21.6549 21.229 21.7118 21.2054C21.7686 21.1817 21.8272 21.164 21.8876 21.152C21.948 21.14 22.009 21.134 22.0706 21.134C22.1322 21.134 22.1933 21.14 22.2536 21.152C22.314 21.164 22.3726 21.1817 22.4295 21.2054C22.4864 21.229 22.5405 21.2579 22.5916 21.2921C22.6429 21.3262 22.6903 21.3651 22.7337 21.4087L23.1625 21.8375C23.2035 21.8815 23.24 21.929 23.2719 21.9801C23.3037 22.0311 23.3304 22.0847 23.352 22.1409C23.3735 22.197 23.3895 22.2547 23.3999 22.314C23.4104 22.3732 23.4151 22.433 23.414 22.4931C23.4129 22.5532 23.4061 22.6127 23.3936 22.6716C23.3811 22.7305 23.3631 22.7876 23.3396 22.843C23.316 22.8984 23.2875 22.951 23.2539 23.0009C23.2202 23.0507 23.1821 23.097 23.1395 23.1395C23.097 23.1821 23.0508 23.2202 23.0009 23.2539C22.951 23.2875 22.8984 23.316 22.843 23.3396C22.7876 23.3631 22.7305 23.3811 22.6716 23.3936C22.6127 23.4061 22.5532 23.4129 22.4931 23.414C22.433 23.4151 22.3732 23.4104 22.314 23.3999C22.2547 23.3895 22.197 23.3735 22.1409 23.352C22.0847 23.3304 22.0311 23.3037 21.9801 23.2719C21.929 23.24 21.8815 23.2035 21.8375 23.1625L21.4088 22.7337C21.3652 22.6902 21.3265 22.6429 21.2924 22.5917C21.2582 22.5406 21.2294 22.4866 21.2059 22.4297C21.1822 22.3729 21.1645 22.3144 21.1525 22.254C21.1406 22.1936 21.1346 22.1327 21.1346 22.0712C21.1346 22.0097 21.1406 21.9489 21.1526 21.8885C21.1645 21.8281 21.1822 21.7696 21.2059 21.7127C21.2294 21.6559 21.2582 21.6019 21.2924 21.5507C21.3265 21.4996 21.3652 21.4522 21.4088 21.4087M15 24.0625C15.0616 24.0625 15.1225 24.0685 15.1829 24.0805C15.2432 24.0925 15.3019 24.1102 15.3588 24.1339C15.4156 24.1575 15.4698 24.1864 15.5209 24.2205C15.572 24.2546 15.6194 24.2935 15.6629 24.3371C15.7065 24.3806 15.7454 24.428 15.7795 24.4791C15.8136 24.5302 15.8425 24.5844 15.8661 24.6412C15.8897 24.6981 15.9075 24.7567 15.9195 24.8171C15.9315 24.8775 15.9375 24.9384 15.9375 25L15.9375 27.5C15.9375 27.5616 15.9315 27.6225 15.9195 27.6829C15.9075 27.7432 15.8897 27.8019 15.8661 27.8587C15.8425 27.9156 15.8136 27.9697 15.7795 28.0209C15.7454 28.072 15.7065 28.1194 15.6629 28.1629C15.6194 28.2065 15.572 28.2454 15.5209 28.2795C15.4698 28.3136 15.4156 28.3425 15.3588 28.3661C15.3019 28.3897 15.2432 28.4075 15.1829 28.4195C15.1225 28.4315 15.0616 28.4375 15 28.4375C14.9384 28.4375 14.8775 28.4315 14.8171 28.4195C14.7568 28.4075 14.6981 28.3897 14.6412 28.3661C14.5844 28.3425 14.5302 28.3136 14.4791 28.2795C14.428 28.2454 14.3806 28.2065 14.3371 28.1629C14.2935 28.1194 14.2546 28.072 14.2205 28.0209C14.1864 27.9697 14.1575 27.9156 14.1339 27.8587C14.1102 27.8019 14.0925 27.7432 14.0805 27.6829C14.0685 27.6225 14.0625 27.5616 14.0625 27.5L14.0625 25C14.0625 24.9384 14.0685 24.8775 14.0805 24.8171C14.0925 24.7567 14.1102 24.6981 14.1339 24.6412C14.1575 24.5844 14.1864 24.5302 14.2205 24.4791C14.2546 24.428 14.2935 24.3806 14.3371 24.3371C14.3806 24.2935 14.428 24.2546 14.4791 24.2205C14.5302 24.1864 14.5844 24.1575 14.6412 24.1339C14.6981 24.1102 14.7568 24.0925 14.8171 24.0805C14.8775 24.0685 14.9384 24.0625 15 24.0625Z">
</path>
</svg>
