<svg xmlns="http://www.w3.org/2000/svg" xmlns:xlink="http://www.w3.org/1999/xlink" width="88.8955078125" height="37.79998779296875" viewBox="0 0 88.8955078125 37.79998779296875" fill="none">
<g >
<path     fill="#0F0F0F" fill-opacity="0.8" d="M36.2041 0.965996L36.2041 37.8L30.828 37.8L30.828 6.342L5.37605 6.342L5.37605 37.8L5.34058e-05 37.8L5.34058e-05 0.965996L36.2041 0.965996ZM7.51805 9.114L28.6861 9.114L28.6861 14.322L7.51805 14.322L7.51805 9.114ZM8.69405 16.968L27.51 16.968L27.51 34.062L8.69405 34.062L8.69405 16.968ZM22.218 28.728L22.218 22.26L13.9861 22.26L13.9861 28.728L22.218 28.728ZM53.7835 13.524Q52.2715 14.448 51.3475 14.91L51.3475 8.778Q54.0775 7.308 55.7575 5.124Q57.4375 2.94 58.6555 -3.8147e-06L67.0135 -3.8147e-06Q68.2315 2.94 69.9115 5.124Q71.5915 7.308 74.3215 8.778L74.3215 14.91Q73.2295 14.364 71.6755 13.356L71.6755 28.686L62.9815 28.686L62.9815 23.52L66.7615 23.52L66.7615 17.514L59.2855 17.514L59.2855 31.962L73.5235 31.962L73.5235 37.38L53.7835 37.38L53.7835 13.524ZM69.9535 12.138Q66.4255 9.366 64.1575 5.46L61.5115 5.46Q59.2435 9.366 55.7155 12.138L69.9535 12.138ZM75.7075 2.31L80.6215 2.31L80.6215 28.98L75.7075 28.98L75.7075 2.31ZM79.2775 32.76L83.6455 32.76L83.6455 -3.8147e-06L88.8955 -3.8147e-06L88.8955 37.8L79.2775 37.8L79.2775 32.76Z">
</path>
</g>
</svg>
